<?xml version="1.0" encoding="UTF-8" standalone="no"?>
<!-- Generator: Adobe Illustrator 18.0.0, SVG Export Plug-In . SVG Version: 6.00 Build 0)  -->

<svg
   xmlns:dc="http://purl.org/dc/elements/1.1/"
   xmlns:cc="http://creativecommons.org/ns#"
   xmlns:rdf="http://www.w3.org/1999/02/22-rdf-syntax-ns#"
   xmlns:svg="http://www.w3.org/2000/svg"
   xmlns="http://www.w3.org/2000/svg"
   xmlns:sodipodi="http://sodipodi.sourceforge.net/DTD/sodipodi-0.dtd"
   xmlns:inkscape="http://www.inkscape.org/namespaces/inkscape"
   version="1.1"
   id="Layer_1"
   x="0px"
   y="0px"
   viewBox="0 0 385 450"
   enable-background="new 0 0 385 450"
   xml:space="preserve"
   sodipodi:docname="banner-img.svg"
   inkscape:version="0.92.3 (2405546, 2018-03-11)"><metadata
   id="metadata81"><rdf:RDF><cc:Work
       rdf:about=""><dc:format>image/svg+xml</dc:format><dc:type
         rdf:resource="http://purl.org/dc/dcmitype/StillImage" /></cc:Work></rdf:RDF></metadata><defs
   id="defs79">
	
	
	
	
	
	
</defs><sodipodi:namedview
   pagecolor="#ffffff"
   bordercolor="#666666"
   borderopacity="1"
   objecttolerance="10"
   gridtolerance="10"
   guidetolerance="10"
   inkscape:pageopacity="0"
   inkscape:pageshadow="2"
   inkscape:window-width="1600"
   inkscape:window-height="837"
   id="namedview77"
   showgrid="false"
   inkscape:zoom="1.0488889"
   inkscape:cx="228.93875"
   inkscape:cy="310.79745"
   inkscape:window-x="-8"
   inkscape:window-y="-8"
   inkscape:window-maximized="1"
   inkscape:current-layer="Layer_1" />
<path
   style="fill:#e6e6e6;fill-opacity:1"
   inkscape:connector-curvature="0"
   id="path2"
   d="m 367.7,29.3 h -327 c -6.6,0 -12,5.4 -12,12 v 391.5 c 0,6.6 5.4,12 12,12 h 327 c 6.6,0 12,-5.4 12,-12 V 41.3 c 0,-6.6 -5.4,-12 -12,-12 z" /><path
   style="fill:#ffffff"
   inkscape:connector-curvature="0"
   id="path4"
   d="m 344.3,5.2 h -327 c -6.6,0 -12,5.4 -12,12 v 391.5 c 0,6.6 5.4,12 12,12 h 327 c 6.6,0 12,-5.4 12,-12 V 17.2 c 0,-6.6 -5.4,-12 -12,-12 z" /><g
   id="g24"
   style="fill:#c8c8c8;fill-opacity:1">
		<path
   style="fill:#c8c8c8;fill-opacity:1"
   inkscape:connector-curvature="0"
   id="path6"
   d="m 235,38.9 c 0,-0.7 0.1,-1.3 0.4,-2 0.2,-0.7 0.6,-1.3 1,-1.8 0.5,-0.5 1,-1 1.7,-1.3 0.7,-0.3 1.4,-0.5 2.2,-0.5 1,0 1.8,0.2 2.6,0.7 0.7,0.5 1.2,1 1.6,1.8 l -0.7,0.4 c -0.2,-0.4 -0.4,-0.7 -0.7,-1 -0.3,-0.3 -0.6,-0.5 -0.9,-0.6 -0.3,-0.1 -0.6,-0.3 -1,-0.4 -0.3,-0.1 -0.7,-0.1 -1,-0.1 -0.7,0 -1.3,0.1 -1.9,0.4 -0.5,0.3 -1,0.7 -1.4,1.1 -0.4,0.5 -0.7,1 -0.9,1.6 -0.2,0.6 -0.3,1.2 -0.3,1.8 0,0.7 0.1,1.3 0.3,1.9 0.2,0.6 0.5,1.1 0.9,1.6 0.4,0.5 0.9,0.8 1.4,1.1 0.5,0.3 1.1,0.4 1.8,0.4 0.3,0 0.7,0 1,-0.1 0.4,-0.1 0.7,-0.2 1,-0.4 0.3,-0.2 0.6,-0.4 0.9,-0.7 0.3,-0.3 0.5,-0.6 0.7,-1 l 0.7,0.3 c -0.2,0.4 -0.4,0.8 -0.8,1.1 -0.3,0.3 -0.7,0.6 -1.1,0.8 -0.4,0.2 -0.8,0.4 -1.3,0.5 -0.5,0.1 -0.9,0.2 -1.3,0.2 -0.8,0 -1.5,-0.2 -2.1,-0.5 -0.6,-0.3 -1.2,-0.8 -1.6,-1.3 -0.5,-0.5 -0.8,-1.2 -1.1,-1.8 0,-0.7 -0.1,-1.4 -0.1,-2.2 z" />
		<path
   style="fill:#c8c8c8;fill-opacity:1"
   inkscape:connector-curvature="0"
   id="path8"
   d="m 251.1,44 c 0.8,0 1.4,-0.1 1.9,-0.4 0.5,-0.3 0.9,-0.7 1.2,-1.1 0.3,-0.5 0.5,-1 0.6,-1.6 0.1,-0.6 0.2,-1.2 0.2,-1.8 v -5.6 h 0.8 v 5.6 c 0,0.7 -0.1,1.5 -0.2,2.1 -0.2,0.7 -0.4,1.3 -0.8,1.8 -0.4,0.5 -0.8,0.9 -1.4,1.2 -0.6,0.3 -1.3,0.5 -2.2,0.5 -0.9,0 -1.6,-0.2 -2.2,-0.5 -0.6,-0.3 -1.1,-0.7 -1.4,-1.3 -0.3,-0.6 -0.6,-1.1 -0.8,-1.8 -0.2,-0.7 -0.2,-1.4 -0.2,-2.1 v -5.6 h 0.8 V 39 c 0,0.6 0.1,1.2 0.2,1.8 0.1,0.6 0.3,1.1 0.6,1.6 0.3,0.5 0.7,0.8 1.2,1.1 0.3,0.3 0.9,0.5 1.7,0.5 z" />
		<path
   style="fill:#c8c8c8;fill-opacity:1"
   inkscape:connector-curvature="0"
   id="path10"
   d="M 258.5,44.6 V 33.4 h 4.6 c 0.5,0 0.9,0.1 1.3,0.3 0.4,0.2 0.7,0.5 1,0.8 0.3,0.3 0.5,0.7 0.7,1.1 0.2,0.4 0.2,0.8 0.2,1.3 0,0.4 -0.1,0.8 -0.2,1.2 -0.1,0.4 -0.3,0.7 -0.5,1 -0.2,0.3 -0.5,0.6 -0.8,0.8 -0.3,0.2 -0.7,0.3 -1.1,0.4 l 2.8,4.3 h -0.9 l -2.7,-4.2 h -3.6 v 4.2 z m 0.8,-4.9 h 3.9 c 0.4,0 0.7,-0.1 1,-0.2 0.3,-0.2 0.5,-0.4 0.8,-0.6 0.2,-0.3 0.4,-0.6 0.5,-0.9 0.1,-0.3 0.2,-0.7 0.2,-1 0,-0.4 -0.1,-0.7 -0.2,-1 -0.1,-0.3 -0.3,-0.6 -0.5,-0.9 -0.2,-0.3 -0.5,-0.5 -0.8,-0.6 -0.3,-0.2 -0.6,-0.2 -1,-0.2 h -3.8 v 5.4 z" />
		<path
   style="fill:#c8c8c8;fill-opacity:1"
   inkscape:connector-curvature="0"
   id="path12"
   d="M 268.7,44.6 V 33.4 h 4.6 c 0.5,0 0.9,0.1 1.3,0.3 0.4,0.2 0.7,0.5 1,0.8 0.3,0.3 0.5,0.7 0.7,1.1 0.2,0.4 0.2,0.8 0.2,1.3 0,0.4 -0.1,0.8 -0.2,1.2 -0.1,0.4 -0.3,0.7 -0.5,1 -0.2,0.3 -0.5,0.6 -0.8,0.8 -0.3,0.2 -0.7,0.3 -1.1,0.4 l 2.8,4.3 h -0.9 l -2.7,-4.2 h -3.6 v 4.2 z m 0.8,-4.9 h 3.9 c 0.4,0 0.7,-0.1 1,-0.2 0.3,-0.2 0.5,-0.4 0.8,-0.6 0.2,-0.3 0.4,-0.6 0.5,-0.9 0.1,-0.3 0.2,-0.7 0.2,-1 0,-0.4 -0.1,-0.7 -0.2,-1 -0.1,-0.3 -0.3,-0.6 -0.5,-0.9 -0.2,-0.3 -0.5,-0.5 -0.8,-0.6 -0.3,-0.2 -0.6,-0.2 -1,-0.2 h -3.8 v 5.4 z" />
		<path
   style="fill:#c8c8c8;fill-opacity:1"
   inkscape:connector-curvature="0"
   id="path14"
   d="m 279.3,31.8 -0.6,-0.3 1,-1.3 h 0.9 z m -0.4,12.8 V 33.4 h 0.8 v 11.2 z" />
		<path
   style="fill:#c8c8c8;fill-opacity:1"
   inkscape:connector-curvature="0"
   id="path16"
   d="m 281.9,38.9 c 0,-0.7 0.1,-1.3 0.4,-2 0.2,-0.7 0.6,-1.3 1,-1.8 0.5,-0.5 1,-1 1.7,-1.3 0.7,-0.3 1.4,-0.5 2.2,-0.5 1,0 1.8,0.2 2.6,0.7 0.7,0.5 1.2,1 1.6,1.8 l -0.7,0.4 c -0.2,-0.4 -0.4,-0.7 -0.7,-1 -0.3,-0.3 -0.6,-0.5 -0.9,-0.6 -0.3,-0.1 -0.6,-0.3 -1,-0.4 -0.3,-0.1 -0.7,-0.1 -1,-0.1 -0.7,0 -1.3,0.1 -1.9,0.4 -0.5,0.3 -1,0.7 -1.4,1.1 -0.4,0.5 -0.7,1 -0.9,1.6 -0.2,0.6 -0.3,1.2 -0.3,1.8 0,0.7 0.1,1.3 0.3,1.9 0.2,0.6 0.5,1.1 0.9,1.6 0.4,0.5 0.9,0.8 1.4,1.1 0.5,0.3 1.1,0.4 1.8,0.4 0.3,0 0.7,0 1,-0.1 0.4,-0.1 0.7,-0.2 1,-0.4 0.3,-0.2 0.6,-0.4 0.9,-0.7 0.3,-0.3 0.5,-0.6 0.7,-1 l 0.7,0.3 c -0.2,0.4 -0.4,0.8 -0.8,1.1 -0.3,0.3 -0.7,0.6 -1.1,0.8 -0.4,0.2 -0.8,0.4 -1.3,0.5 -0.5,0.1 -0.9,0.2 -1.3,0.2 -0.8,0 -1.5,-0.2 -2.1,-0.5 -0.6,-0.3 -1.2,-0.8 -1.6,-1.3 -0.5,-0.5 -0.8,-1.2 -1.1,-1.8 0,-0.7 -0.1,-1.4 -0.1,-2.2 z" />
		<path
   style="fill:#c8c8c8;fill-opacity:1"
   inkscape:connector-curvature="0"
   id="path18"
   d="m 298,44 c 0.8,0 1.4,-0.1 1.9,-0.4 0.5,-0.3 0.9,-0.7 1.2,-1.1 0.3,-0.5 0.5,-1 0.6,-1.6 0.1,-0.6 0.2,-1.2 0.2,-1.8 v -5.6 h 0.8 v 5.6 c 0,0.7 -0.1,1.5 -0.2,2.1 -0.2,0.7 -0.4,1.3 -0.8,1.8 -0.4,0.5 -0.8,0.9 -1.4,1.2 -0.6,0.3 -1.3,0.5 -2.2,0.5 -0.9,0 -1.6,-0.2 -2.2,-0.5 -0.6,-0.3 -1.1,-0.7 -1.4,-1.3 -0.3,-0.6 -0.6,-1.1 -0.8,-1.8 -0.2,-0.7 -0.2,-1.4 -0.2,-2.1 v -5.6 h 0.8 V 39 c 0,0.6 0.1,1.2 0.2,1.8 0.1,0.6 0.3,1.1 0.6,1.6 0.3,0.5 0.7,0.8 1.2,1.1 0.4,0.3 1,0.5 1.7,0.5 z" />
		<path
   style="fill:#c8c8c8;fill-opacity:1"
   inkscape:connector-curvature="0"
   id="path20"
   d="M 305.4,44.6 V 33.4 h 0.8 v 10.5 h 6.7 v 0.7 z" />
		<path
   style="fill:#c8c8c8;fill-opacity:1"
   inkscape:connector-curvature="0"
   id="path22"
   d="m 318.3,44.7 c -0.8,0 -1.5,-0.2 -2.1,-0.5 -0.6,-0.3 -1.2,-0.8 -1.7,-1.3 -0.5,-0.5 -0.8,-1.1 -1.1,-1.8 -0.3,-0.7 -0.4,-1.4 -0.4,-2.1 0,-0.7 0.1,-1.5 0.4,-2.1 0.3,-0.7 0.6,-1.3 1.1,-1.8 0.5,-0.5 1,-0.9 1.7,-1.3 0.6,-0.3 1.3,-0.5 2.1,-0.5 0.8,0 1.5,0.2 2.1,0.5 0.6,0.3 1.2,0.8 1.7,1.3 0.5,0.5 0.8,1.1 1.1,1.8 0.3,0.7 0.4,1.4 0.4,2.1 0,0.8 -0.1,1.5 -0.4,2.2 -0.3,0.7 -0.6,1.3 -1.1,1.8 -0.5,0.5 -1,0.9 -1.7,1.2 -0.7,0.3 -1.3,0.5 -2.1,0.5 z M 313.9,39 c 0,0.6 0.1,1.3 0.3,1.9 0.2,0.6 0.5,1.1 0.9,1.6 0.4,0.5 0.9,0.8 1.4,1.1 0.5,0.3 1.1,0.4 1.8,0.4 0.7,0 1.3,-0.1 1.8,-0.4 0.5,-0.3 1,-0.7 1.4,-1.1 0.4,-0.5 0.7,-1 0.9,-1.6 0.2,-0.6 0.3,-1.2 0.3,-1.8 0,-0.6 -0.1,-1.3 -0.3,-1.9 -0.2,-0.6 -0.5,-1.1 -0.9,-1.6 -0.4,-0.5 -0.9,-0.8 -1.4,-1.1 -0.5,-0.3 -1.1,-0.4 -1.8,-0.4 -0.7,0 -1.3,0.1 -1.8,0.4 -0.5,0.3 -1,0.7 -1.4,1.1 -0.4,0.5 -0.7,1 -0.9,1.6 -0.2,0.6 -0.3,1.2 -0.3,1.8 z" />
	</g><g
   id="g48"
   style="fill:#b4b4b4;fill-opacity:1">
		<path
   style="fill:#b4b4b4;fill-opacity:1"
   inkscape:connector-curvature="0"
   id="path26"
   d="m 65.5,318.4 v 8.8 H 64.9 V 323 h -5.5 v 4.2 h -0.6 v -8.8 h 0.6 v 4 h 5.5 v -4 z" />
		<path
   style="fill:#b4b4b4;fill-opacity:1"
   inkscape:connector-curvature="0"
   id="path28"
   d="m 70.6,318.4 h 0.5 l 3.7,8.8 h -0.7 l -1.2,-2.9 h -4.2 l -1.2,2.9 h -0.7 z m 2.2,5.4 -1.9,-4.6 -2,4.6 z" />
		<path
   style="fill:#b4b4b4;fill-opacity:1"
   inkscape:connector-curvature="0"
   id="path30"
   d="m 82.6,324.9 c 0,0.3 -0.1,0.6 -0.2,0.9 -0.1,0.3 -0.3,0.5 -0.5,0.7 -0.2,0.2 -0.5,0.4 -0.8,0.5 -0.3,0.1 -0.6,0.2 -0.9,0.2 h -4.1 v -8.8 h 4.1 c 0.3,0 0.6,0.1 0.8,0.2 0.2,0.1 0.5,0.3 0.6,0.5 0.2,0.2 0.3,0.4 0.4,0.7 0.1,0.3 0.1,0.5 0.1,0.8 0,0.4 -0.1,0.9 -0.3,1.2 -0.2,0.4 -0.5,0.6 -0.9,0.8 0.5,0.1 0.9,0.4 1.2,0.8 0.4,0.5 0.5,1 0.5,1.5 z M 76.8,319 v 3.5 H 80 c 0.2,0 0.5,0 0.7,-0.1 0.2,-0.1 0.4,-0.2 0.5,-0.4 0.1,-0.2 0.3,-0.3 0.3,-0.6 0.1,-0.2 0.1,-0.4 0.1,-0.7 0,-0.2 0,-0.5 -0.1,-0.7 -0.1,-0.2 -0.2,-0.4 -0.3,-0.6 -0.1,-0.2 -0.3,-0.3 -0.5,-0.4 -0.2,-0.1 -0.4,-0.1 -0.6,-0.1 h -3.3 z m 5.2,5.8 c 0,-0.2 0,-0.5 -0.1,-0.7 -0.1,-0.2 -0.2,-0.4 -0.3,-0.6 -0.1,-0.2 -0.3,-0.3 -0.5,-0.4 C 80.9,323 80.7,323 80.5,323 h -3.6 v 3.6 h 3.5 c 0.2,0 0.5,0 0.7,-0.1 0.2,-0.1 0.4,-0.2 0.5,-0.4 0.2,-0.2 0.3,-0.4 0.4,-0.6 -0.1,-0.2 0,-0.5 0,-0.7 z" />
		<path
   style="fill:#b4b4b4;fill-opacity:1"
   inkscape:connector-curvature="0"
   id="path32"
   d="m 84.3,327.2 v -8.8 H 85 v 8.8 z" />
		<path
   style="fill:#b4b4b4;fill-opacity:1"
   inkscape:connector-curvature="0"
   id="path34"
   d="m 87.3,327.2 v -8.8 h 0.6 v 8.2 h 5.2 v 0.6 z" />
		<path
   style="fill:#b4b4b4;fill-opacity:1"
   inkscape:connector-curvature="0"
   id="path36"
   d="m 94.4,327.2 v -8.8 H 95 v 8.8 z" />
		<path
   style="fill:#b4b4b4;fill-opacity:1"
   inkscape:connector-curvature="0"
   id="path38"
   d="m 97.4,327.2 v -8.8 h 2.9 c 0.7,0 1.3,0.1 1.8,0.3 0.5,0.2 1,0.5 1.3,0.9 0.3,0.4 0.6,0.9 0.8,1.4 0.2,0.5 0.3,1.1 0.3,1.7 0,0.7 -0.1,1.3 -0.3,1.8 -0.2,0.5 -0.5,1 -0.8,1.4 -0.3,0.4 -0.8,0.7 -1.3,0.9 -0.5,0.2 -1.1,0.3 -1.7,0.3 h -3 z m 6.4,-4.4 c 0,-0.6 -0.1,-1.1 -0.2,-1.5 -0.2,-0.5 -0.4,-0.9 -0.7,-1.2 -0.3,-0.3 -0.7,-0.6 -1.1,-0.8 -0.4,-0.2 -0.9,-0.3 -1.5,-0.3 H 98 v 7.6 h 2.3 c 0.6,0 1.1,-0.1 1.5,-0.3 0.4,-0.2 0.8,-0.5 1.1,-0.8 0.3,-0.3 0.5,-0.8 0.7,-1.2 0.1,-0.5 0.2,-1 0.2,-1.5 z" />
		<path
   style="fill:#b4b4b4;fill-opacity:1"
   inkscape:connector-curvature="0"
   id="path40"
   d="m 108.6,318.4 h 0.5 l 3.7,8.8 h -0.7 l -1.2,-2.9 h -4.2 l -1.2,2.9 h -0.7 z m 2.2,5.4 -1.9,-4.6 -2,4.6 z" />
		<path
   style="fill:#b4b4b4;fill-opacity:1"
   inkscape:connector-curvature="0"
   id="path42"
   d="m 114.2,327.2 v -8.8 h 2.9 c 0.7,0 1.3,0.1 1.8,0.3 0.5,0.2 1,0.5 1.3,0.9 0.3,0.4 0.6,0.9 0.8,1.4 0.2,0.5 0.3,1.1 0.3,1.7 0,0.7 -0.1,1.3 -0.3,1.8 -0.2,0.5 -0.5,1 -0.8,1.4 -0.4,0.4 -0.8,0.7 -1.3,0.9 -0.5,0.2 -1.1,0.3 -1.7,0.3 h -3 z m 6.4,-4.4 c 0,-0.6 -0.1,-1.1 -0.2,-1.5 -0.2,-0.5 -0.4,-0.9 -0.7,-1.2 -0.3,-0.3 -0.7,-0.6 -1.1,-0.8 -0.4,-0.2 -0.9,-0.3 -1.5,-0.3 h -2.3 v 7.6 h 2.3 c 0.6,0 1.1,-0.1 1.5,-0.3 0.4,-0.2 0.8,-0.5 1.1,-0.8 0.3,-0.3 0.5,-0.8 0.7,-1.2 0.2,-0.5 0.2,-1 0.2,-1.5 z" />
		<path
   style="fill:#b4b4b4;fill-opacity:1"
   inkscape:connector-curvature="0"
   id="path44"
   d="m 128.8,326.6 v 0.6 H 123 v -8.8 h 5.7 v 0.6 h -5.1 v 3.4 h 4.5 v 0.5 h -4.5 v 3.6 h 5.2 z" />
		<path
   style="fill:#b4b4b4;fill-opacity:1"
   inkscape:connector-curvature="0"
   id="path46"
   d="m 135.5,319.9 c -0.6,-0.6 -1.4,-1 -2.4,-1 -0.9,0 -1.5,0.2 -1.9,0.5 -0.4,0.3 -0.6,0.8 -0.6,1.3 0,0.3 0,0.5 0.1,0.7 0.1,0.2 0.3,0.3 0.5,0.5 0.2,0.1 0.5,0.2 0.8,0.3 0.3,0.1 0.7,0.2 1.2,0.3 0.5,0.1 0.9,0.2 1.3,0.3 0.4,0.1 0.7,0.3 1,0.5 0.3,0.2 0.5,0.4 0.6,0.7 0.1,0.3 0.2,0.6 0.2,1 0,0.4 -0.1,0.7 -0.2,1 -0.2,0.3 -0.4,0.5 -0.6,0.7 -0.3,0.2 -0.6,0.3 -1,0.4 -0.4,0.1 -0.8,0.1 -1.3,0.1 -1.4,0 -2.5,-0.4 -3.5,-1.3 l 0.3,-0.5 c 0.4,0.4 0.8,0.7 1.4,0.9 0.5,0.2 1.1,0.3 1.8,0.3 0.8,0 1.4,-0.1 1.8,-0.4 0.4,-0.3 0.6,-0.7 0.6,-1.3 0,-0.3 -0.1,-0.5 -0.2,-0.7 -0.1,-0.2 -0.3,-0.4 -0.5,-0.5 -0.2,-0.1 -0.5,-0.3 -0.9,-0.4 -0.4,-0.1 -0.7,-0.2 -1.2,-0.3 -0.5,-0.1 -0.9,-0.2 -1.2,-0.3 -0.4,-0.1 -0.7,-0.3 -0.9,-0.4 -0.2,-0.2 -0.4,-0.4 -0.5,-0.6 -0.1,-0.2 -0.2,-0.5 -0.2,-0.9 0,-0.4 0.1,-0.7 0.2,-1 0.1,-0.3 0.4,-0.6 0.6,-0.8 0.2,-0.2 0.6,-0.4 1,-0.5 0.4,-0.1 0.8,-0.2 1.3,-0.2 0.6,0 1.1,0.1 1.5,0.3 0.4,0.2 0.8,0.4 1.2,0.8 z" />
	</g><g
   id="g70"
   style="fill:#e6e6e6;fill-opacity:1">
		<path
   style="fill:#e6e6e6;fill-opacity:1"
   inkscape:connector-curvature="0"
   id="path50"
   d="M 333.2,178.1 H 30.8 c -1.1,0 -2,-0.9 -2,-2 v -8 c 0,-1.1 0.9,-2 2,-2 h 302.4 c 1.1,0 2,0.9 2,2 v 8 c 0,1.1 -0.9,2 -2,2 z" />
		<path
   style="fill:#e6e6e6;fill-opacity:1"
   inkscape:connector-curvature="0"
   id="path52"
   d="M 333.2,201.7 H 30.8 c -1.1,0 -2,-0.9 -2,-2 v -8 c 0,-1.1 0.9,-2 2,-2 h 302.4 c 1.1,0 2,0.9 2,2 v 8 c 0,1.1 -0.9,2 -2,2 z" />
		<path
   style="fill:#e6e6e6;fill-opacity:1"
   inkscape:connector-curvature="0"
   id="path54"
   d="M 333.2,225.4 H 30.8 c -1.1,0 -2,-0.9 -2,-2 v -8 c 0,-1.1 0.9,-2 2,-2 h 302.4 c 1.1,0 2,0.9 2,2 v 8 c 0,1.1 -0.9,2 -2,2 z" />
		<path
   style="fill:#e6e6e6;fill-opacity:1"
   inkscape:connector-curvature="0"
   id="path56"
   d="M 333.2,249.1 H 30.8 c -1.1,0 -2,-0.9 -2,-2 v -8 c 0,-1.1 0.9,-2 2,-2 h 302.4 c 1.1,0 2,0.9 2,2 v 8 c 0,1.1 -0.9,2 -2,2 z" />
		<path
   style="fill:#e6e6e6;fill-opacity:1"
   inkscape:connector-curvature="0"
   id="path58"
   d="M 327,294.1 H 186.4 c -1.1,0 -2,-0.9 -2,-2 v -8 c 0,-1.1 0.9,-2 2,-2 H 327 c 1.1,0 2,0.9 2,2 v 8 c 0,1.1 -0.9,2 -2,2 z" />
		<path
   style="fill:#e6e6e6;fill-opacity:1"
   inkscape:connector-curvature="0"
   id="path60"
   d="M 327,317.7 H 186.4 c -1.1,0 -2,-0.9 -2,-2 v -8 c 0,-1.1 0.9,-2 2,-2 H 327 c 1.1,0 2,0.9 2,2 v 8 c 0,1.1 -0.9,2 -2,2 z" />
		<path
   style="fill:#e6e6e6;fill-opacity:1"
   inkscape:connector-curvature="0"
   id="path62"
   d="M 327,341.4 H 186.4 c -1.1,0 -2,-0.9 -2,-2 v -8 c 0,-1.1 0.9,-2 2,-2 H 327 c 1.1,0 2,0.9 2,2 v 8 c 0,1.1 -0.9,2 -2,2 z" />
		<path
   style="fill:#e6e6e6;fill-opacity:1"
   inkscape:connector-curvature="0"
   id="path64"
   d="M 327,365.1 H 186.4 c -1.1,0 -2,-0.9 -2,-2 v -8 c 0,-1.1 0.9,-2 2,-2 H 327 c 1.1,0 2,0.9 2,2 v 8 c 0,1.1 -0.9,2 -2,2 z" />
		<path
   style="fill:#e6e6e6;fill-opacity:1"
   inkscape:connector-curvature="0"
   id="path66"
   d="M 321.9,72.1 H 181.3 c -1.1,0 -2,-0.9 -2,-2 v -8 c 0,-1.1 0.9,-2 2,-2 h 140.6 c 1.1,0 2,0.9 2,2 v 8 c 0,1.1 -0.9,2 -2,2 z" />
		<path
   style="fill:#e6e6e6;fill-opacity:1"
   inkscape:connector-curvature="0"
   id="path68"
   d="M 321.9,94.6 H 181.3 c -1.1,0 -2,-0.9 -2,-2 v -8 c 0,-1.1 0.9,-2 2,-2 h 140.6 c 1.1,0 2,0.9 2,2 v 8 c 0,1.1 -0.9,2 -2,2 z" />
	</g><path
   style="fill:#e6e6e6"
   inkscape:connector-curvature="0"
   id="path72"
   d="M 34.1,52.8 H 52.8 V 47.5 H 34.1 c -2.9,0 -5.3,2.4 -5.3,5.3 v 18.7 h 5.3 z m 16,23.9 -10.7,13.4 h 32 l -8,-10.7 -5.4,7.2 z m 18.6,-12 c 0,-2.2 -1.8,-4 -4,-4 -2.2,0 -4,1.8 -4,4 0,2.2 1.8,4 4,4 2.2,0 4,-1.7 4,-4 z m 8,-17.3 H 58.1 v 5.3 H 76.8 V 71.4 H 82 V 52.8 c 0,-3 -2.4,-5.4 -5.3,-5.4 z m 0,48 H 58.1 v 5.3 h 18.7 c 2.9,0 5.3,-2.4 5.3,-5.3 V 76.7 H 76.8 V 95.4 Z M 34.1,76.7 h -5.3 v 18.7 c 0,2.9 2.4,5.3 5.3,5.3 H 52.8 V 95.4 H 34.1 Z" />
</svg>