<?xml version="1.0" encoding="utf-8"?>
<!-- Generator: Adobe Illustrator 18.0.0, SVG Export Plug-In . SVG Version: 6.00 Build 0)  -->
<!DOCTYPE svg PUBLIC "-//W3C//DTD SVG 1.1//EN" "http://www.w3.org/Graphics/SVG/1.1/DTD/svg11.dtd">
<svg version="1.1" id="Layer_1" xmlns="http://www.w3.org/2000/svg" xmlns:xlink="http://www.w3.org/1999/xlink" x="0px" y="0px"
	 viewBox="0 0 95.8 102.8" enable-background="new 0 0 95.8 102.8" xml:space="preserve">
<g>
	<path fill="#4956BD" d="M-130.5,41.9c0.2,2.1,2.5,5.1,2.5,5.1s-3.8,30.7-3.2,33.2c0.7,3.2,5.1,7.5,5.1,7.5s2.8-3.4,4-7.8
		c1.2-4.4-4.5-32.9-4.5-32.9s1.7-3.1,1.9-5.1c0.2-2-1.3-5.1-3-5.1C-129.8,36.9-130.6,40.5-130.5,41.9z"/>
	<path fill="#4956BD" d="M-136.6,1.2c0,0-8.7,12.8,0.9,24.3c0,0,4.7,5.6,12.5,2c0,0,6.6-3,8.2-11.9c0,0,10.7-0.2,16.1,3
		c0,0,11,5.4,7.8,17.1c0,0-1.3,6.7-10.2,16.3c0,0-0.9-6.6-10.8-15c0,0-14-11.6-30.3,0.9c0,0-11.5,7.6-11.1,26.5V87
		c0,0-0.3,4.9,3.6,5.2c0,0,0.9,4.1-3.9,4.2c0,0-3.8,0.1-4-4.6V78.4c0,0-8.5-1.9-11.1-9.8c0,0-5.8-14.2,14-33.6
		c0,0,6.7-6.5,13.6-10.4c0,0-1.3-1.9-2.1-6C-143.3,18.6-145.9,8.5-136.6,1.2z"/>
	<path fill="#4956BD" d="M-145.6,91.5c0,0,0.8-1.4,1.2-3.4c0,0,0.1-1.5,0.1-2.5V70.3c0,0-0.2-1.8,1.7-1.6c0,0,0.9-0.1,0.9,1.7V86
		c0,0-0.8,9.7,8.6,11c0,0,11.4,2.3,18.9-1.5c0,0-2.6,7.2-19.5,5.8c0,0-12.2-1.2-12.1-9.4"/>
	<path fill="#4956BD" d="M-109.9,92.2c0,0,1.2-1.3,1.2-3.2l0-19c0,0-0.2-1.1,1.1-1.2c0,0,1.3-0.1,1.5,1.3l0,18.4c0,0,0,3.7,3.5,4.2
		c0,0,0.1,4.4-4.4,3.9C-107.2,96.6-110.6,96.1-109.9,92.2z"/>
</g>
<path fill="#4956BD" stroke="#FFFFFF" stroke-width="7" stroke-miterlimit="10" d="M85.4,51.3c0-11.5-4.5-23-13.6-31.6
	C55.7,4.4,30,4,13.3,18.6C-5.8,35.4-6.5,64.4,11.2,82.1c12.4,12.4,30.2,15.7,45.6,10.1c3.6-1.3,4.6-6,1.8-8.7l-0.1-0.1
	c-1.5-1.5-3.7-1.9-5.7-1.2c-12.4,4.4-26.8,1.1-36-9.9C7,60.4,6.8,43.1,16.3,31.1C28.7,15.6,51.4,14.7,65,28.3
	c6.4,6.4,9.4,14.7,9.4,23.1l-14.4,0c-3.8,0-5.8,4.6-3.1,7.4l16.7,16.7c1.6,1.6,4.1,1.6,5.7,0l16.7-16.7c2.7-2.7,0.8-7.4-3.1-7.4
	H85.4z"/>
</svg>
