<?xml version="1.0" encoding="utf-8"?>
<!-- Generator: Adobe Illustrator 18.0.0, SVG Export Plug-In . SVG Version: 6.00 Build 0)  -->
<!DOCTYPE svg PUBLIC "-//W3C//DTD SVG 1.1//EN" "http://www.w3.org/Graphics/SVG/1.1/DTD/svg11.dtd">
<svg version="1.1" id="Layer_1" xmlns="http://www.w3.org/2000/svg" xmlns:xlink="http://www.w3.org/1999/xlink" x="0px" y="0px"
	 viewBox="0 0 353.2 268.5" enable-background="new 0 0 353.2 268.5" xml:space="preserve">
<g>
	
		<linearGradient id="SVGID_1_" gradientUnits="userSpaceOnUse" x1="-270.6373" y1="93.7236" x2="0.8841" y2="93.7236" gradientTransform="matrix(0.9073 0.4206 -0.4206 0.9073 335.0003 115.3644)">
		<stop  offset="0" style="stop-color:#5D72B7"/>
		<stop  offset="0.9951" style="stop-color:#F8A58E"/>
	</linearGradient>
	<path fill="url(#SVGID_1_)" d="M289.7,195.8c-30.6,66-88.8,42.8-154.8,12.2c-18.3-8.5-117.2,39.3-129.3,24.7
		c-17.7-21.3,35.1-55.9,33.2-83.5c-1.4-21.4,2.3-43.4,11.9-64.2c18.6-40.2,46.4-34,86.8-41.5c26-4.9,62.2-34.5,88-22.6
		c23.2,10.7,33,56.8,54.8,47.3C423.3,6.1,309.5,153.1,289.7,195.8z"/>
	<g>
		<polygon fill="#131313" points="90,232.1 93.2,233.6 93.3,232.1 124.3,236 128,244.2 124.3,244.2 121,239.8 104.7,238.8 
			116.2,244.2 119.8,249.8 115.9,251.7 113,247.6 87.8,236.2 		"/>
		<g>
			<path fill="#131313" d="M44.6,101.2c4.2-6.9,8.4-10.2,12.2-4c0.6,1,1.2,4.1,1.3,6.6c1,18.5,0.9,35.2-0.2,49.9
				c-0.1,1.7-0.7,3.6-1.4,4.3c-3.9,4.2-7.3,6.7-10.2,3.3c-0.5-0.6-1-2.8-1.2-4.6c-1.5-16.2-2.2-32.6-1.9-49.2
				C43.3,105.2,43.9,102.3,44.6,101.2z"/>
			<rect x="79" y="178" fill="#131313" width="18.9" height="9.3"/>
			<path fill="#131313" d="M121,177.5v4.1H53.6v-4.1c0-1.7,1.4-3.1,3.1-3.1h61.2C119.6,174.4,121,175.8,121,177.5z"/>
			<rect x="85.6" y="182.4" fill="#131313" width="4.4" height="36.4"/>
			<rect x="82.7" y="196.4" fill="#131313" width="10.2" height="35"/>
			<rect x="79" y="228" fill="#131313" width="17.2" height="8.2"/>
			<path fill="#131313" d="M83.5,233l2.8-2.1l3,3.6l-21.7,15.8l-2.5,5.2l-4.2-1.1l2.3-6.2C63.2,248.2,80.4,236.3,83.5,233L83.5,233z
				"/>
			<path fill="#131313" d="M56.6,236l30.9-3.9l0.1,1.4c-3.7,2.6-8,2.8-12.2,4.1l-15.6,2.2l-3.2,4.4h-3.8L56.6,236z"/>
			<circle fill="#131313" cx="125.6" cy="245.9" r="3.7"/>
			<ellipse fill="#131313" cx="117.6" cy="251.7" rx="4.8" ry="4.8"/>
			<ellipse fill="#131313" cx="63.4" cy="256.5" rx="4.8" ry="4.8"/>
			<circle fill="#131313" cx="56.1" cy="244.2" r="3.5"/>
		</g>
	</g>
	<g>
		<path fill="#131313" d="M336.7,87.9c-9.7-7.9-18.9-12.2-27.1-8.2c-1.2,0.6-2.5,3.1-2.9,5.2c-2.8,16.3-3.4,32.6-1.7,48.9
			c0.2,1.9,1.6,4.6,3,5.8c9.6,8.1,18.5,14.2,26.2,12.5c1.3-0.3,2.7-2.6,3.1-4.7c3.2-18.2,4.4-35.9,2.9-52.9
			C339.9,92.3,338.3,89.2,336.7,87.9z"/>
		<rect x="284.5" y="170.5" fill="#131313" width="18.9" height="9.3"/>
		<path fill="#131313" d="M261.4,170v4.1h67.4V170c0-1.7-1.4-3.1-3.1-3.1h-61.2C262.8,166.9,261.4,168.3,261.4,170z"/>
		<rect x="292.4" y="174.9" fill="#131313" width="4.4" height="36.4"/>
		<rect x="289.5" y="188.9" fill="#131313" width="10.2" height="35"/>
		<rect x="286.1" y="220.5" fill="#131313" width="17.2" height="8.2"/>
		<polygon fill="#131313" points="292.4,224.6 289.2,226.1 289.1,224.6 258.2,228.5 254.4,236.8 258.2,236.8 261.4,232.4 
			277.7,231.4 266.2,236.8 262.6,242.3 266.5,244.3 269.4,240.2 294.6,228.8 		"/>
		<path fill="#131313" d="M298.9,225.5l-2.8-2.1l-3,3.6l21.7,15.8l2.5,5.2l4.2-1.1l-2.3-6.2C319.2,240.8,302,228.8,298.9,225.5
			L298.9,225.5z"/>
		<path fill="#131313" d="M325.8,228.5l-30.9-3.9l-0.1,1.4c3.7,2.6,8,2.8,12.2,4.2l15.6,2.2l3.2,4.4h3.8L325.8,228.5z"/>
		<path fill="#131313" d="M260.5,238.5c0,2.1-1.7,3.7-3.7,3.7c-2.1,0-3.7-1.7-3.7-3.7c0-2.1,1.7-3.7,3.7-3.7
			C258.9,234.8,260.5,236.4,260.5,238.5z"/>
		<path fill="#131313" d="M269.6,244.3c0,2.6-2.1,4.8-4.8,4.8c-2.6,0-4.8-2.1-4.8-4.8c0-2.6,2.1-4.8,4.8-4.8
			C267.4,239.5,269.6,241.6,269.6,244.3z"/>
		<circle fill="#131313" cx="319" cy="249" r="4.8"/>
		<circle fill="#131313" cx="326.3" cy="236.8" r="3.5"/>
	</g>
	<path fill="#E6AE94" d="M242.4,158.2l1.9-1.6c-1.9-0.1-3.7-0.5-5.5-1.2c-0.9-0.3-1.9-0.7-2.7-0.3c-0.8,0.4-1,1.3-1.3,2.2
		c-1.4,5.4-11.6,51.7-12.6,55.4c-1.3,4.9-3.9,9-5.8,13.6c-1.9,4.3-3.9,9-6.4,12.9c-0.5,0.7-1.3,1.4-2.3,1.9
		c-0.6,0.4-1.2,0.8-1.7,1.1c0.3,0.4,0.7,0.9,1.1,1.2c0.4,0.4,0.9,0.6,1.4,0.8l4.1,0.2c0,0,0.1,0,0.1,0c1.9-0.5,3.2-1.8,4.2-3.4
		c1-1.6,1.3-3.7,2.5-5.2c1.4-1.7,3.5-2.8,5.2-4.2c1.1-0.9,2.1-1.7,3.3-2.4c0.9-0.5,1.9-0.8,2.8-1.3c1.4-0.8,1-1.4,0.9-2.9
		c-0.1-1.2-0.1-2.4,0.1-3.8c0.2-1.6,0.7-4.2,1.3-5.7c1.1-2.8,2.3-5.4,4.1-7.8c4.2-5.4,7.8-12.7,9.1-19.5c0.6-3,0.7-6,0.8-9
		c0.1-2.9-0.3-6.5,0.5-9.3c0.5-1.9,1.8-3.7,2.6-5.6c0.6-1.5,1.2-3,1.8-4.6L242.4,158.2z"/>
	<path fill="#923A77" d="M232.7,226.9c0-0.6-1.3-3.4-0.9-3.8c-4.9,6.3-13,10-16.4,17.4c-0.7,1.6-2.3,2.4-4.1,2.4
		c-0.4,0-3.9-1.6-3.6-1.8c-0.7,0.5-1.4,0.9-2,1.3c-1.1,0.8-3.5,1.4-4.1,2.8c-1,2.2,6,1.5,7,1.4c1.2-0.2,2.3-0.1,3.5-0.2
		c2-0.2,4-0.7,6-1.2c0.1,0,0.3-0.1,0.4-0.2c0.1-0.1,0.2-0.2,0.2-0.3c1-2.7,1.2-5.8,2.4-8.5c0.6-1.2,2.7-3.8,4.1-3.8
		c0.6,0,1,0.3,1.4,0.8c0.2,0.3,0.3,0.6,0.4,0.9c0.3,0.9,0.3,1.9,0.2,2.9c-0.1,1.9-0.3,3.8-0.5,5.7c-0.1,0.7-0.5,1.9-0.4,2.8l1.5,0.1
		c0.7-4.2,0.8-8.1,3.3-11.8C232.3,231.7,232.9,229.2,232.7,226.9z"/>
	<path fill="#EEBBA0" d="M244.8,161.9l1.8-1.7c-1.9,0-3.7-0.4-5.5-0.9c-0.9-0.3-1.9-0.6-2.7-0.1c-0.7,0.4-1,1.4-1.2,2.2
		c-1.1,5.4-9.4,52.1-10.2,55.9c-1.1,4.9-3.5,9.2-5.2,13.8c-1.7,4.4-3.5,9.1-5.8,13.2c-0.4,0.7-1.3,1.4-2.2,2
		c-0.6,0.4-1.2,0.8-1.7,1.2c0.3,0.4,0.7,0.8,1.1,1.2c0.4,0.3,0.9,0.6,1.5,0.8h4.1c0,0,0.1,0,0.1,0c1.9-0.5,3.1-1.9,4.1-3.6
		c1-1.7,1.1-3.7,2.3-5.3c1.3-1.8,3.3-2.9,5-4.4c1-0.9,2-1.8,3.2-2.5c0.9-0.5,1.9-0.9,2.7-1.4c1.4-0.8,0.9-1.4,0.8-2.9
		c-0.1-1.2-0.2-2.4-0.1-3.8c0.1-1.6,0.5-4.2,1-5.7c1-2.8,2-5.5,3.8-7.9c4-5.6,7.2-13,8.2-19.8c0.4-3,0.4-6,0.4-9
		c0-2.9-0.6-6.4,0.1-9.3c0.5-1.9,1.7-3.8,2.3-5.7c0.5-1.5,1.1-3.1,1.6-4.6L244.8,161.9z"/>
	<path fill="#923A77" d="M238.1,230.9c-0.1-0.6-1.4-3.3-1.1-3.8c-2.3,3.3-5.8,5.1-8.7,7.8c-1.6,1.5-3.2,3.8-4.5,5.6
		c-0.8,1.1-1.5,2.2-2.1,3.4c-0.4,0.7-0.9,2.5-1.5,2.9c-1.1,0.8-2.4,1.3-3.7,1c-1.1-0.2-1.9-1.1-3-1.4c-1.2-0.4-6.6,1.6-5.1,3.3
		c0.6,0.7,2.3,0.7,3.1,0.9c1.7,0.3,3.5,0.5,5.3,0.5c1.4,0,3.8,0.4,5-0.4c2.2-1.4,3.1-3.9,4-6.2c0.7-1.8,1.5-3.6,2.8-5
		c0.6-0.7,1.9-2.1,2.9-2c2.6,0.1-0.2,11.1-0.5,13.5c0.6,0.1,1.1,0.1,1.7,0.2c0.8-4.6,1.5-9.6,4-13.6
		C238,235.8,238.4,233.3,238.1,230.9z"/>
	<path fill="#C24F96" d="M326.9,145.2c-0.2-1.4-2.5-10.7-4-13.7c-0.3-0.6-0.6-1-0.8-1c-0.1,0-35.2,3.1-35.2,3.1l-45.9,10.9
		l-8.7,12.5c0.2,0.2,0.5,0.4,0.7,0.5c4.9,3.6,10,7,15,10.4c1.5,1,3.1,1.9,4.6,2.8c0.7,0.4,1.2,1,2,0.8c1.4-0.4,2.1-4.2,3.3-4.2
		c0,0,0.2,0,0.4,0c4.5-0.1,42.6-0.5,51.9-0.5c2.3,0,9.1,1.3,11.2,0c1.6-1,2.9-2.3,3.8-4.3C327.8,157.5,327.8,150.7,326.9,145.2z"/>
	<path fill="#131313" d="M138.5,237l2.1-5.8l16.2-1.9l-1.4,4.1l20.8,6c0,0,1.5,1,2.9,2.8c0.7,0.9,0.1,2.2-1,2.2l-20,0.4
		c-0.8-0.1-1.6-0.3-2.4-0.4v0l-0.2,0c-1.8-0.3-3.5-0.7-5.2-1.1l-0.7,1.2l-10.2,0.2c-0.2,0-0.3-0.1-0.5-0.2
		C138,244.4,138.5,237,138.5,237z"/>
	<path fill="#222222" d="M118.1,239l2.3-5.7l16.2-1.2l-1.5,4.1c1.7,1.6,5.2,4.4,10.4,6c4.2,1.2,8,1.7,10.3,1.4
		c1.6,0.3,2.3,1.2,3.1,2.2c0.7,0.9-0.5,2.3-1.7,2.3c0,0-20,2.4-27.5-2.2l-0.7,1.2l-11.7-3.6C117.1,243.4,118.1,239,118.1,239z"/>
	<path fill="#171746" d="M163.7,167.4c0-2.7-0.1-5.5-0.6-8.3c-1-5.8-7.3-7.1-12.2-8.3c-7.2-1.7-14.4-3.5-21.6-5.2
		c-9.4-2.3-18.7-4.5-28.1-6.8l-38.2,0.9c11.1-0.2,23.3,2.8,33.6,6.5c7.1,2.5,14.1,5.9,20,10.7c2.9,2.4,5.5,5.1,7.7,8.1
		c3.1,4.1,7,6.4,11.8,8.3c1.1,0.5,2.3,0.9,3.2,1.7c0.3,0.3,0.6,0.7,0.9,1c-1.5,20.6-0.9,60.3-0.9,60.3s2.5-0.1,21.5-0.2
		c0.1-13,0.8-26,1.6-39c0.4-5.7,0.9-11.4,0.9-17.2C163.3,175.6,163.7,171.5,163.7,167.4z"/>
	<g>
		<rect x="95.9" y="138.5" fill="#D1D4D4" width="190.8" height="12.2"/>
		<polygon fill="#A8ABAE" points="131.3,105.5 95.9,138.6 286.7,138.6 251.4,105.5 		"/>
	</g>
	<polygon fill="#FFFFFF" points="194.9,111.1 190.5,127.9 267.1,127.9 250,111.5 	"/>
	<polygon fill="#FFFFFF" points="177.1,121.3 178.1,136.1 111.1,136.1 126,121.8 	"/>
	<path fill="#EDB09E" d="M95.4,49.6c0,0-3.8,8.4-6.5,10.3c-2.7,2-17.3-3.1-17.3-3.1s5.3-13.6,4.6-15.7c-0.7-2.1,3.7-4,3.7-4
		L95.4,49.6z"/>
	<path fill="#EEBBA0" d="M79.9,40c1.4,1.3,2.3,3.4,4,4.4c0.9,0.5,0.8,0.9,4,3.3c0.9,0.7,2.1,0.9,3.2,1.3c2.4,0.7,4.7,1.4,7.1,2.1
		c0.6,0.2,1.2,0.4,1.9,0.3c1.3-0.1,2.3-1.2,3.1-2.3c0.1-0.2,0.3-0.4,0.3-0.6c0.2-0.9-1-1.8-0.6-2.7c0.2-0.4,0.7-0.7,0.9-1.1
		c0.4-0.6,0.1-1.3-0.1-2c0.6,0.1,1-0.5,1.1-1.1c0.1-0.6,0-1.2,0.3-1.7c0.4-0.8,1.5-0.9,2.3-1.3c0.3-0.1,0.5-0.5,0.4-0.9
		c-0.5-1.2-1.1-2.4-1.9-3.5c-0.7-1-1.6-2-1.5-3.1c0.1-0.7,0.5-1.4,0.7-2.1c0.4-1.5-0.5-3.1-0.8-4.6c-0.2-1.2-0.2-2.4-0.3-3.6
		c-0.1-1.2-0.4-2.4-1.3-3.2c-2.5-2.4-3.7-5.2-6.8-6.7C90.3,8.2,83.5,9.1,78.2,12c-1.7,0.9-3.2,2-4.4,3.5c-0.9,1.2-1.6,2.6-2.1,4
		c-1,3.1-1.3,6.6-0.5,9.8c0.8,3.2,2.6,6.2,5.3,8.2C77.6,38.3,78.8,39,79.9,40z"/>
	<path fill="#EEBBA0" d="M133.1,85.1c-0.1-0.4,0.7-1.4,0.9-1.7c0.6-1.1,1.2-2.3,1.8-3.4c1.2-2.2,3-3.9,4.2-6c0.4-0.7,1.2-2.9,2-3.1
		c0.2,0,0.4,0.1,0.5,0.2c2.2,2-0.4,4.7-1.4,6.5c-0.4,0.7-0.7,1.5-1,2.2c1.9-1.2,3.8-2.4,5.7-3.6c1.1-0.7,6.6-4.4,7.4-3
		c0.4,0.7-0.5,1.4-0.9,1.8c-2,1.7-4.1,3.3-6.3,4.7c1.9-1.1,3.8-2.3,5.7-3.4c0.9-0.5,4.4-2.4,5.1-1c0.2,0.4,0.1,0.9-0.3,1.2
		c-2.4,2-5.2,3.5-8.1,4.8c2.2-1,4.3-2.1,6.5-3.1c0.6-0.3,1.7-0.7,2.3-0.1c0.7,0.7-0.2,1.7-0.8,2.1c-2.3,1.6-4.5,2.9-7,4.2
		c2.1-0.4,8-3.5,7.4-1.6c-0.2,0.5-0.6,0.9-1.1,1.2c-2.6,1.9-4.1,3.1-6.8,5c-1.1,0.8-2.9,1.9-4.1,2.4c-1.5,0.7-2.6,1.3-4.1,2
		c-2,1.1-3.6,1.1-5.9,1.5L133.1,85.1z"/>
	<path fill="#EEBBA0" d="M151.2,106.7c0.2-0.3,1.5-0.7,1.8-0.8c1.2-0.5,2.3-1.1,3.5-1.6c2.3-1,4.8-1.1,7.1-2.1
		c0.7-0.3,2.8-1.5,3.5-1.2c0.2,0.1,0.2,0.3,0.3,0.5c0.5,3-3.2,3.5-5.2,4.1c-0.7,0.3-1.4,0.8-2.2,1.1c2.3,0.2,4.5,0.5,6.8,0.7
		c1.3,0.1,7.9,0.7,7.6,2.3c-0.1,0.8-1.3,0.8-1.9,0.8c-2.6,0.1-5.2,0-7.8-0.3c2.2,0.3,4.4,0.6,6.5,0.9c1,0.1,4.9,0.8,4.6,2.4
		c-0.1,0.4-0.5,0.7-0.9,0.7c-3.2,0.1-6.3-0.5-9.4-1.3c2.3,0.5,4.7,1.1,7,1.6c0.6,0.1,1.8,0.5,1.9,1.4c0.1,1-1.2,1.2-1.9,1.1
		c-2.8-0.2-5.3-0.5-8.1-1.2c1.9,1,8.4,2.3,6.8,3.4c-0.5,0.3-1,0.3-1.6,0.3c-3.2-0.2-5.2-0.2-8.4-0.3c-1.3-0.1-3.4-0.4-4.7-0.7
		c-1.6-0.4-2.8-0.7-4.5-1c-2.3-0.4-3.5-1.4-5.5-2.5L151.2,106.7z"/>
	<path fill="#443250" d="M74.9,43.7c-0.4-0.8-0.9-1.5-1.2-2.3c-1.1-2.9-2.1-5.9-2.9-9c-0.8-3.1-1.5-6.3-1.4-9.6
		c0.1-3.2,0.9-6.5,2.8-9.1c1.8-2.5,4.5-4.3,7.4-5.2c2.9-1,6.1-1.2,9.1-1.1c2.3,0.1,4.7,0.5,6.9,1.1c1,0.3,2.4,0.5,3.3,1.1
		c0.9,0.6,1.4,1.4,2.5,1.8c1.3,0.5,2.7,0.8,4,0.7c0.2,0,0.4,0,0.6,0.1c0.3,0.2,0.2,0.7,0,1c-2.5,6.2-10.8,5.6-13,12
		c-0.5,1.5-0.7,3-0.9,4.6c-0.2,1.5-0.8,3.1-0.9,4.6c-0.1,0.9,0.5,2.2-0.5,2.8c-0.5,0.3-2.3-0.4-2.3-0.7c0-1.4-0.1-2.7-0.4-4.1
		c-0.4-1.3-1.1-2.6-2.3-3.3c-1.2-0.7-2.8-0.7-3.8,0.3c-1.2,1.1-1.1,3-0.8,4.6c0.4,2.3,1.6,4.9,4.2,5.4c-1,0.3-1.6,1.3-1.9,2.3
		c-0.1,0.2-0.2,0.5-0.4,0.6c-0.2,0.1-0.4,0.1-0.6,0.1c-3.3-0.1-4.6,1-6.6,3.3C75.6,45,75.3,44.3,74.9,43.7z"/>
	<path fill="#FFFFFF" d="M92.8,55.5c0.6,1.7,1.4,4.2,2.2,7.3c3.3,11.6,4.3,20.6,4.5,23.1c0.3,2.9,0.6,6.9,0.7,11.8
		c-8.4-11.2-16-17.3-20.2-22.9c-5.5-7.3-9.1-13.4-9.5-15.4c-0.4-2,0.1-4.1,2.1-6c5.1-4.9,16.2,3.9,16.2,3.9L92.8,55.5z"/>
	<path fill="#171746" d="M73.2,65.8c11.3-8.3,20.5,4,25.5,12.8c3.1,5.4,6.2,10.8,10.8,15.1c1.9-0.4,24.7-9,23.6-11
		c2.4,4.7,5.6,7.8,7.2,12.3c-6.8,6.5-25.3,17.3-32.3,20.1c-6.8,2.7-22.8-20.7-29.6-26.7C72.1,82.6,64.6,72.1,73.2,65.8z"/>
	<polygon fill="#FFFFFF" points="74.9,47.4 92.8,55.5 89.2,63.3 71.6,54.4 	"/>
	<path fill="#24255E" d="M159.7,159.8c-2.1-4.7-7.9-4.8-13.8-6.4c-6.3-1.7-12.6-3.5-18.9-5.2c-8-2.2-16-4.4-24.1-6.6
		c0,0-0.9-0.1-2.5-0.1c-0.2-2-0.4-3.8-0.4-5.4c0-1.6,0-3.1,0-4.5c-0.8,0-1.7,0.1-2.5,0.2c0.8-0.1,1.7-0.1,2.5-0.2
		c0.4-30.4,3.4-40.4-2.7-52.5c-4.9-9.7-11.8-16.1-16.6-19.8l-9.3-4.7l-5,8.5c-2.2,3.7-3.8,7.7-4.8,11.8l-1.6,6.5
		c-2,8-2.7,16.3-2.2,24.5c0.4,6.4,0.6,13.1,0.5,20.1c-0.1,5-0.3,9.8-0.5,14.4c0.7-0.1,1.4-0.2,2.2-0.3h0c-0.7,0.1-1.4,0.2-2.2,0.3
		c-0.3,4.6-0.7,9.1-1.2,13.4c-0.7,3.5-1.5,7.3-1.4,10.5c-0.1,0.8-0.2,1.6-0.4,2.4h0.6c0.4,2.1,1.4,3.8,3.3,5.1
		c2.7,2,10.6,3.2,20.2,4h45.3c0,0,4.7,0.4,7,0.3c-5.7,21.6-13.7,58.9-13.7,58.9s2.1,3.3,25,3.7c2.5-11.5,5.5-22.8,8.5-34.2
		c2.4-8.8,5.3-17.6,6.8-26.6C160.9,172.4,162,164.7,159.7,159.8z M87,133.4c-7.6,1.8-15.1,4.3-22.8,5.8
		C72,137.7,79.5,135.2,87,133.4z M96.9,131.7c-0.6,0.1-1.1,0.1-1.7,0.2C95.8,131.8,96.4,131.7,96.9,131.7z M94.4,132
		c-0.5,0.1-1.1,0.2-1.6,0.3C93.3,132.1,93.8,132.1,94.4,132z M91.9,132.4c-0.6,0.1-1.2,0.2-1.8,0.3
		C90.7,132.6,91.3,132.5,91.9,132.4z M89.4,132.8c-0.8,0.2-1.6,0.3-2.3,0.5C87.9,133.2,88.7,133,89.4,132.8z"/>
	<path fill="#24255E" d="M73.7,49.8c0,0,18.8,17,25.8,32.8C87.1,70.3,82.2,70.3,82.2,70.3v-8.7L77,66l-5.4-11.7L73.7,49.8z"/>
	<path fill="#24255E" d="M146.1,102.9c1.5-0.1,4.2,0,6.7,0.2c0.1,0.6,0.2,1.2,0.3,1.8c0.6,4.5,0.4,10.1,0.5,14.6
		c-4.2,0.1-10-1.1-14.2-0.7c-10.5,1-38.7-4.6-41.2-6.5c-7.6-5.8-15.1-11.6-22.8-17.1C71,92.2,63,85.8,63.6,79.4c0-0.5,0.1-1,0.3-1.4
		c2.8-9.7,15.7-5.8,21.4-2.4C90,78.3,94,82.2,97.9,86c6.4,6.2,4.9,9.3,13.9,10.7C121.3,98.4,136.5,103.3,146.1,102.9z"/>
	<path fill="#D9A791" d="M298,39.5c-2.4,2.4-4.4,4.4-6.2,6c-6.5,6-9,7.3-9,7.3c-0.1,0.4,3.1,5.5,1.2,12.8
		C291.4,58.7,296.3,49.5,298,39.5z"/>
	<path fill="#E6AE94" d="M306.3,62.9c-0.8-0.9-1.7-1.7-2.5-2.7c-1.6-1.9-2.9-4.1-3.8-6.5c-1.6-4.6-2.2-9.5-2-14.3
		c0,0-0.1,0.1-0.1,0.1c-1.7,10-6.6,19.2-14.1,26.2c-0.1,0.3-0.2,0.6-0.3,0.9c-2.5,4.4-4.8,7.8-1.6,9.8c2.5,1.6,11.9-1.8,15.5-3.2
		c0.9-0.3,1.4-0.6,1.4-0.6c0.7-0.3,1.4-2.9,1.8-3.5c0.5-1,1-2.1,1.9-2.8c0.6-0.5,1.2-0.7,2-0.9c0.8-0.1,2.5,0.2,3-0.2
		C308.8,64.6,307,63.6,306.3,62.9z"/>
	<path fill="#7C3266" d="M284.2,64.6l-2.3,1.2c-2.8,1.4-4.9,3.8-6.1,6.7l-12.3,30.9l-32.4,5.5l1.3,8.9l32-0.1c3-0.3,5.7-2.1,7.2-4.7
		l10.7-12.2L284.2,64.6z"/>
	<path fill="#EEBBA0" d="M275.6,48.3c-0.6,0.1-0.8,1-0.5,1.6c0.2,0.6,0.7,1.1,0.9,1.7c0.2,0.6,0,1.3,0.1,2c0.2,1.4,1.6,2.5,3,2.7
		c1.4,0.2,2.9-0.2,4.2-0.6c5.2-1.7,10.3-4.4,13.4-8.9c2.8-4.1,3.7-9.1,4.2-14c0.4-3,0.6-6.1-0.1-9.1c-0.2-0.9-0.5-1.7-0.9-2.5
		c-3.7-7.3-12-8.1-18.9-5.6c-6.7,2.5-10.7,10.1-9.2,16.9c0.2,0.8,0.6,1.6,0.7,2.4c0.3,1.8-0.7,3.4-1.5,4.9c-0.5,1-2,3.8-0.5,4.5
		c0.8,0.4,1.7,0,2.4,0.7c0.6,0.6,0.9,1.6,1,2.5c0,0.1,0,0.3,0.1,0.4C273.9,48.1,275.3,48.3,275.6,48.3z"/>
	<path fill="#923A77" d="M317.8,79.8l-1.6-3.5l-15-8.5c0,0-9.4,6.9-14,8c-1.8,0.4-3.4-0.9-3.3-2.7c0.2-2.9,0.4-6.6,0.3-6.4
		c-0.2,0.4-7.1,17.2-8.6,21.3c-0.6,1.6-3.2,7.4-1.6,12.2c0.6,1.7,13,33.5,13,33.5s11.6-0.7,35.2-3.1
		C318.4,118.2,317.8,79.8,317.8,79.8z"/>
	<path fill="#443250" d="M310.5,39.9c0.3-2,0-4.1-0.3-6.1c-1-5.3-3.6-11.3-7.4-15.1c-4.2-4.2-10.4-6.3-16.3-5.7
		c-3.5,0.4-6.9,1.8-9.7,3.9c-5.3,4-6.7,9.2-6.1,15.6c1.8-0.1,3.5,0,5.3,0.2c-0.3-1.5-0.1-3.2,0.4-4.6c0.5,1.7,1,3.5,1.2,5.3
		c1.9,0.1,3.7,0.6,5.4,1.4c0.1,0,1-3.1,1.9-3c0.9,0.1,2.3,3.1,2.6,3.9c1.5,3,2.3,6.2,2.7,9.5c0.5,5,0.3,10.6-0.4,14.9
		C292.3,59.3,308.8,52.6,310.5,39.9z"/>
	<path fill="#E6AE94" d="M255.8,120.5l-8.5-1.8l-7.3-1.4c-0.7-0.1-1.4-0.1-2.1,0.2c-2.4,1-5,1.5-7.3,2.9c-1.5,0.9-2.3,1.4-0.4,2.6
		c1.3,0.8,2.6,0.7,3.8-0.1c-0.5,0.3-1.1,0.7-1.1,1.3c0,1.2,1.3,0.9,2,0.8c1.5-0.3,3.1-0.5,4.6-0.8c0.9-0.2,1.9,0,2.7,0.5l6,3.3
		c0.7,0.4,1.6,0.6,2.4,0.6l5.6-0.1L255.8,120.5z"/>
	<g>
		<path fill="#E6AE94" d="M216.9,112.9c-0.5,0.8-0.9,1.7-1.3,2.7c-0.4,0.9-1,1.7-1.1,2.7c-0.1,0.7,0.4,1.3,1.1,1.1
			c0.3-0.1,0.5-0.3,0.7-0.5c0.3,1,1,0.6,1.5,0c0.9-1.3,1.1-2.8,2.7-2.9c1.1-0.1,2.3,0,3.4,0c1.9,0,3.8,0,5.7,0
			c-0.1,0-0.6-2.3-0.6-2.4c-0.3-1.3-0.6-2.3-2.1-2.3c-1.8,0-3.7,0-5.5,0.1c-0.9,0-1.9,0-2.7,0.3
			C217.9,111.8,217.3,112.3,216.9,112.9z"/>
		<path fill="#EEBBA0" d="M223.1,112.3c0.4,0,0.7,0.2,1,0.3c0.3,0.1,0.7,0,1,0.1c-0.3-0.1-0.6,0-0.9,0.1c-0.7,0.2-1.4,0.1-2,0.2
			c-0.7,0.1-3,0.9-2.3,1.9c0.6,0.9,2,0.7,2.8,0.6c1.4-0.2,2.9,0.6,4.3,1c3.7,1.1,7.2-0.2,10.6-1.1l-2.5-4.7l-11.6-3.3
			c-1.1,0.4-2.2,0.7-3.3,1.1c-1.6,0.5-2.9,1.1-4.2,2.1c-0.5,0.4-0.7,1-1,1.6c-0.4,0.8-0.7,1.5-1.1,2.3c-0.3,0.6-1.6,2.2-0.8,3
			c0.5,0.4,1.3-0.2,1.5-0.5c0.8-1,1.4-3,2.5-3.7C218.6,112.3,221.1,112.1,223.1,112.3z"/>
	</g>
	<path fill="#923A77" d="M306.7,64c-3.9-1.7-8.8,4.5-9.8,8c-1.3,4.6-1.8,9.6-2.8,14.2c-1.2,5.5-3.3,10.8-4,16.5
		c-0.3,2.2-0.3,4.3-0.9,6.4c-1,3.2-3.4,3.6-6.4,4.9c-7.8,3.6-30,5.4-30.3,5.5l3.4,10.5c0.5-0.2,39.8,4.1,46.3-6
		c1.4-2.2,2.6-5,3.7-7.3c2.1-4.3,4.1-8.6,6.2-13c1-2.1,2-4.1,2.9-6.2C315.7,96.3,324.9,71.8,306.7,64z"/>
	<g id="_x34__2_">
		<path fill="#97A7B2" d="M184.3,123.8l0,0.8c0,0.3,0.2,0.6,0.6,0.6l0.8,0l0.1-1.4L184.3,123.8z"/>
		<path fill="#BDBEC0" d="M185,122.5c-0.3,0-0.6,0.2-0.6,0.5l0,0.7l1.4,0.1l0.1-1.3L185,122.5z"/>
		<polygon fill="#F26122" points="212.2,126.7 212.3,126.7 212.3,126.7 		"/>
		<polygon fill="#F4783B" points="212.3,124 212.4,124.1 212.5,124 		"/>
		<polygon fill="#F26122" points="189.1,124 187,123.9 186.9,125.3 188.4,125.4 212.2,126.7 212.3,125.3 		"/>
		<polygon fill="#F4783B" points="188.6,122.7 187.1,122.6 187,123.9 189.1,124 212.3,125.3 212.3,124 		"/>
		<polygon fill="#10B7EB" points="186.1,122.6 185.9,122.6 185.8,123.8 186,123.8 187,123.9 187.1,122.6 		"/>
		<polygon fill="#03A7DD" points="186,123.8 185.8,123.8 185.7,125.3 186,125.3 186.9,125.3 187,123.9 		"/>
		<polygon fill="#40444C" points="213.7,125.4 213.7,126.3 216.3,125.6 216,125.5 		"/>
		<polygon fill="#585A5C" points="213.7,125.4 216,125.5 213.8,124.6 		"/>
		<polygon fill="#F2CB1D" points="212.4,125.3 212.3,125.3 212.2,126.7 212.3,126.7 213.7,126.3 213.7,125.4 		"/>
		<polygon fill="#FFDC47" points="212.4,124.1 212.3,124 212.3,125.3 212.4,125.3 213.7,125.4 213.8,124.6 		"/>
	</g>
	<g id="_x35__1_">
		<path fill="#10B7EB" d="M217.5,117.3c-0.6,0-1.4,0.1-3,0.2c0-0.7,0.1-1.3,0.1-2c1.5,0.3,2.4,0.5,2.9,0.7L217.5,117.3z"/>
		<polygon fill="#10B7EB" points="189.3,112.9 186.2,112.7 187.5,116.5 189.7,116.6 		"/>
		<path fill="#403F41" d="M198.6,117.4l0.3-3.9c0.4,0,0.8,0.1,1.1,0.1l-0.3,3.8C199.3,117.4,199,117.4,198.6,117.4z"/>
		<path fill="#585A5C" d="M201.4,113.8c4,0.4,7.8,1,13.5,1.7c-0.1,0.7-0.1,1.5-0.2,2.2c-5.7-0.1-9.6-0.1-13.6-0.2L201.4,113.8z"/>
		<path fill="#585A5C" d="M189.8,113.3c0,0-0.1-0.7,0.7-1.2c0.8-0.5,2.3-0.7,4.4-0.5c4.2,0.4,9.6,0.7,9.6,0.7c0,0-1,1.7-3.1,0.7
			c-1.5-0.1-7.9-0.3-8-0.3c0,0-0.5,0-0.7,0.2c-0.1,0.1-0.3,0.3-0.1,0.7c0.2,0.4,0.1,0.6-0.1,0.6c-0.5,0.3-2.1-0.6-2.6-0.9
			L189.8,113.3L189.8,113.3z"/>
		<path fill="#10B7EB" d="M199.7,117.4l0.3-3.8c0.5,0,0.9,0.1,1.4,0.2l-0.3,3.7C200.7,117.4,200.2,117.4,199.7,117.4z"/>
		<path fill="#585A5C" d="M188.8,116.7c0.1-1.3,0.2-2.6,0.3-3.9c3.9,0.2,7,0.4,9.8,0.7l-0.3,3.9C195.7,117.2,192.7,117,188.8,116.7z
			"/>
		<path fill="#403F41" d="M217.6,116.2c0.2,0,0.4,0.1,0.7,0.2c0.4,0.1,0.7,0.3,0.9,0.5c-0.2,0.1-0.5,0.2-0.9,0.3
			c-0.3,0.1-0.6,0.1-0.8,0.1C217.6,116.9,217.6,116.6,217.6,116.2z"/>
	</g>
	<g id="_x36__1_">
		<path fill="#10B7EB" d="M164.8,131c0.5-0.1,1.4-0.3,2.9-0.6c0,0.7,0.1,1.3,0.1,2c-1.5-0.2-2.4-0.2-2.9-0.3L164.8,131z"/>
		<polygon fill="#10B7EB" points="193.2,131.9 196.3,131.8 194.6,128.2 192.4,128.3 		"/>
		<path fill="#403F41" d="M183.5,128.7l0.2,3.9c-0.4,0-0.8,0-1.1,0l-0.2-3.8C182.8,128.7,183.1,128.7,183.5,128.7z"/>
		<path fill="#585A5C" d="M181.2,132.5c-4,0-7.8,0-13.5,0c0-0.7-0.1-1.5-0.1-2.2c5.6-0.6,9.5-1.1,13.4-1.4L181.2,132.5z"/>
		<path fill="#585A5C" d="M192.7,131.6c0,0,0.2,0.6-0.5,1.2c-0.8,0.6-2.2,1-4.3,1c-4.2,0.1-9.5,0.5-9.6,0.5c0,0,0.8-1.8,3-1.1
			c1.5-0.1,7.9-0.6,7.9-0.6c0,0,0.5,0,0.7-0.3c0.1-0.1,0.3-0.3,0-0.7c-0.2-0.4-0.1-0.5,0-0.6c0.4-0.4,2.2,0.4,2.7,0.6L192.7,131.6
			L192.7,131.6z"/>
		<path fill="#10B7EB" d="M182.4,128.7l0.2,3.8c-0.5,0-0.9,0-1.4,0l-0.2-3.7C181.5,128.8,181.9,128.8,182.4,128.7z"/>
		<path fill="#585A5C" d="M193.3,128.1c0.1,1.3,0.1,2.6,0.2,3.9c-3.9,0.3-7,0.4-9.8,0.5l-0.2-3.9
			C186.3,128.4,189.4,128.3,193.3,128.1z"/>
		<path fill="#403F41" d="M164.9,132.1c-0.2,0-0.4,0-0.7-0.1c-0.4-0.1-0.7-0.2-0.9-0.4c0.2-0.1,0.5-0.3,0.8-0.4
			c0.3-0.1,0.5-0.2,0.8-0.2C164.8,131.4,164.8,131.7,164.9,132.1z"/>
	</g>
</g>
</svg>
