<?xml version="1.0" encoding="utf-8"?>
<!-- Generator: Adobe Illustrator 18.0.0, SVG Export Plug-In . SVG Version: 6.00 Build 0)  -->
<!DOCTYPE svg PUBLIC "-//W3C//DTD SVG 1.1//EN" "http://www.w3.org/Graphics/SVG/1.1/DTD/svg11.dtd">
<svg version="1.1" id="Layer_1" xmlns="http://www.w3.org/2000/svg" xmlns:xlink="http://www.w3.org/1999/xlink" x="0px" y="0px"
	 viewBox="0 0 353.2 268.5" enable-background="new 0 0 353.2 268.5" xml:space="preserve">
<g>
	
		<linearGradient id="SVGID_1_" gradientUnits="userSpaceOnUse" x1="-142.8022" y1="-41.8294" x2="122.2349" y2="-41.8294" gradientTransform="matrix(0.9131 0.5043 -0.5028 0.9104 163.7423 183.572)">
		<stop  offset="0" style="stop-color:#5D72B7"/>
		<stop  offset="0.9951" style="stop-color:#F8A58E"/>
	</linearGradient>
	<path fill="url(#SVGID_1_)" d="M293.8,193.1c5.6,73.5-92.9,36.8-157.5,1.1c-18-9.9-121.4,31.1-132.7,15.5
		c-16.4-22.9,39.5-54,39.5-82c0-21.7,5.4-43.7,16.6-64c21.7-39.2,49.4-30.9,90.8-35.7c26.7-3,65.4-30.4,90.7-16.4
		c22.7,12.5,28,50.4,52.1,51.8C429.1,71.4,288.6,124.1,293.8,193.1z"/>
	<g>
		<path fill="#131313" d="M156.8,241.6l-1.7,4.9v3.5c0,1.3-0.5,3.2,0.6,3.4l8.1,0.3l6.9,2.2c0.4,0.2,5.2,1.7,5.6,1.7h11.1
			c0.3,0,0.6-0.3,0.6-0.7v-1.4c0-1-0.5-1.9-1.3-2.4l-11.7-6.5l-2.4-4.4l0.7-4.6L156.8,241.6z"/>
		<path fill="#131313" d="M125.5,241.4l-1.3,5.6l-4.4,7.7c-0.5,1-0.4,2.3,0.4,3.1l1.8,2c0.5,0.6,1.3,1,2.1,1h7
			c0.7,0,1.3-0.2,1.8-0.6l4.1-3.4c0.7-0.6,1.1-1.5,1-2.4c-0.3-3.4-0.8-12.2,0.1-17.8C139.4,229.4,125.5,241.4,125.5,241.4z"/>
	</g>
	<path fill="#24255E" d="M124.7,131.3l0.4,58.9l-2.2,53.5h18.2l4.7-51.1l4.3-32.5v-32.3C141.8,129,133.5,130,124.7,131.3z"/>
	<path fill="#24255E" d="M175.2,143.4c-0.3-6.5-0.8-12.8-1.4-18.8c-1,0.1-2,0.3-3,0.4c-7.1,1-13.9,1.9-20.6,2.8v32.3l0.6-4.3
		c0,0,4.7,50,4.7,87.7c2.6,0.2,4.8,0.4,6.7,0.4c11.6,0.2,11.6-2.6,11.6-2.6l1.6-58.2C175.9,170.7,175.9,157.5,175.2,143.4z"/>
	<polygon fill="#D9A791" points="139,43.8 139,44.5 139,50.6 147.8,58 150.7,55.1 155.3,50.5 155.4,43.1 	"/>
	<path fill="#FDCFB3" d="M159.9,30.3c-0.2,0.1-0.3,0.2-0.5,0.2c-0.6,0.2-0.5-0.7-0.4-1c0-0.5,0.1-1,0.2-1.4c0.5-2.7,2.1-5.8,0.3-8.3
		c-1.1-1.5-2.9-2.4-4.7-2.6c-0.8-0.1-1.4,0-2.2-0.3c-0.9-0.4-1.8-0.6-2.8-0.4c-0.2,0-0.9,0.1-1.4,0.3c0.1-0.4,0-0.9-0.4-1.3
		c-0.5-0.5-1.1-0.7-1.8-0.8c-2-0.3-3.7,0.2-5.3,0.9c-1,0.5-2,1-3.1,1.5c-0.7,0.3-1.3,0.8-1.7,1.5c-0.5,0.8-0.8,1.8-0.7,2.7
		c0.1,0.9-0.1,1.7-0.1,2.6c0,2.1,0.7,4.2,0.4,6.3c-0.1,0.4-0.1,1.4-0.9,1c-0.3-0.2-0.1-0.7-0.5-1c-0.7-0.5-1,0.4-1,0.9
		c-0.1,1.8,0.1,3.8,1,5.5c0.5,1,1.2,1.2,1.9,1.9c0.8,0.8,0.6,2.3,0.9,3.2c0.2,0.7,0.5,1.2,0.9,1.8c0.8,1.1,2.3,1.6,3.3,2.7
		c0.9,1,1.8,1.9,3,2.5c0.8,0.4,1.8,0.4,2.8,0.4c0.1,0,0.3,0,0.4,0c0.9,0,1.8,0,2.4-0.3c1.3-0.6,2.1-1.5,3.1-2.5c1-1,2.5-1.5,3.4-2.6
		c0.4-0.5,0.7-1.1,0.9-1.8c0.3-1,0.2-2.5,1-3.2c0.7-0.7,1.4-1,1.9-1.9c0.9-1.6,1.2-3.6,1.1-5.4C161.4,30.6,160.8,30,159.9,30.3z"/>
	<path fill="#443250" d="M134.3,28.8c0.3,0.8,0.5,1.7,0.4,2.6c0,0.1,0,0.3,0,0.5l1.3,0c0-0.3,0-0.5,0-0.6c0-0.7,0-1.3,0-1.9
		c0.2-2.5-1-5.3,0-7.6c0.9-2.1,2.7-3.7,4.8-4.5c2.6-1,5.6-0.8,8.2,0.3c2.7,1.1,4.5,2.9,6.3,5.1c0.3-0.1,0.6-0.2,0.9-0.3
		c-0.2,0.1-0.4-1-0.3-1.1c0.5-0.8,1.4,0.5,1.6,0.9c0.6,1.1,0.8,2.5,1.2,3.6c0.4,1.3,0.1,2.8,0,4.1c0,0.2-0.2,1.5-0.2,2.3
		c0,0.2,0.9-0.1,1-0.2c0.3-0.2,0.3-1.6,0.4-1.9c0.5-2.7,1.8-5.6,1.6-8.3c-0.2-2.7-1.4-5.2-3.4-6.9c-0.7-0.6-1.7-0.9-2.5-1.4
		c-1-0.6-2.2-1.1-3.4-0.9c-0.1,0-1.3,0.1-1.1,0.2c-0.6-0.5-1.7-0.6-2.5-0.8c-4.1-1-9.3,1.4-12.3,3.9c-2.7,2.2-3.6,6.2-3.2,9.6
		C133.4,26.6,133.9,27.7,134.3,28.8z"/>
	<path fill="#B0D1DD" d="M160.6,117.6c-0.5-5.2-0.7-10.5-0.8-15.7c-0.3-10.5-0.3-21.1-2.4-31.4c-0.8-4-1.5-7.2-4.5-10
		c-1.3-1.2-3.8-5.2-5.5-4.8c-1.5,0-5.7,6-6.1,7.3c-0.2,0.5-0.2,0.9-0.2,1.3c0,1.2,0.4,2.1,0.6,3.8c0.4,3.6,0.6,7.3,0.9,11
		c1.4,17.4,3,35,4.7,52.3c0,0.1,1.2,0.1,2.9-0.1v-13.8v13.8c4.3-0.4,11.8-1.5,12.7-1.7C163.3,125.9,161,121.3,160.6,117.6z"/>
	<path fill="#1F1C55" d="M153,74.3l-3.4-12.6c-0.1-0.4-0.1-0.8,0.1-1.2l0.8-1.9c0-0.1,0-0.3-0.1-0.4c-0.4-0.4-0.8-0.9-1.2-1.3
		c-0.3-0.3-0.6-0.6-0.8-1c-0.1-0.3-0.5-0.9-0.8-0.7c-0.3,0.2-0.4,0.5-0.5,0.8c-0.2,0.3-0.5,0.5-0.7,0.7c-0.3,0.3-0.6,0.7-0.9,1
		c-0.1,0.1-0.1,0.2,0,0.3l1.1,2.1c0.2,0.4,0.3,0.8,0.2,1.2l-1.5,12c0,0.1,0,0.1,0,0.2l4.2,9.5c0.1,0.2,0.2,0.2,0.4,0.2
		c0.1,0.1,0.3,0,0.4-0.1l2.8-8.8C153,74.4,153,74.3,153,74.3z"/>
	<path fill="#24255E" d="M174.6,118.7c-1.4-17.2-0.5-29.1-1.6-31.1c0.2,0,0.3,0.1,0.5,0.1c1,0.3,2.2,0.1,3-0.6
		c2.8-2.5,2-8.3,1.8-11.5c-0.1-1.1-0.1-2.3-0.4-3.4c-0.2-0.8-0.6-1.6-0.7-2.5c0-0.3-0.1-0.6-0.1-0.9c-0.3-2.3-0.4-4.5-1.5-6.7
		c-0.6-1.3-1.2-2.6-1.9-3.9c-0.2-0.4-0.5-1.4-0.9-1.7c-0.1-0.1-0.8-0.2-2.1-0.5c-1-0.2-2.4-0.4-4.2-0.8c-1.5-0.3-3.1-0.6-5-1
		c-0.2,0-0.4-0.1-0.6-0.2c0,0,0,0,0,0c0,0-0.1,0-0.1,0c-0.2,0-0.4-0.1-0.6-0.1c0,0.1,0,0.2,0,0.3c-1.5-0.9-2.9-2.4-3.3-2.6
		c-0.2-0.1-0.3-0.1-0.3-0.1l-0.1,0.2c-0.2-0.1-0.3-0.2-0.4-0.3c-0.2-0.1-0.3-0.1-0.3-0.1L153,63.5l-4.1,17.6l0,0.2
		c0,0-0.3-0.7-0.4-1c2.1,6,0.6,14.5,1.5,20.9c1,6.7,0.6,17.1,0.8,26.6c0.1,5.6,0.5,10.9,1.4,14.8c0.2,0,0.5,0,0.7,0c0,0,0,0.1,0,0.1
		c19.7-0.8,24-2.8,24.4-2.8c-1-5.2-1.7-10.2-2.2-14.8C175,122.9,174.8,120.8,174.6,118.7z"/>
	<path fill="#DEF2FD" d="M155.4,47.5l-7.6,7.4c-0.1,0.1-0.3,0.1-0.4,0l-8.6-8.5l-3.5,6.4l6.8,11.6l5.3-8.8c0.1-0.2,0.4-0.2,0.5,0
		l6.9,10l2.8-12.1L155.4,47.5z"/>
	<path fill="#658D98" d="M151.9,99.6l-1.5-3c0,0.7-0.1,1.3-0.1,1.9L151.9,99.6z"/>
	<path fill="#1F1C55" d="M163.2,58.3c-0.3-0.8-0.3-2.9-1.6-4.1c-2.2-2-4.1-3.5-4.8-3.8L152.2,67l-3.1,12.1l0.9,16.8l0.4,0.7
		c0.3-4.5,1.2-10.2,3.3-16.5c2.6-7.7,6.2-13.5,9-17.3c-1.5-0.8-2.9-1.5-4.4-2.3L163.2,58.3z"/>
	<polygon fill="#905346" points="112.8,134.3 110,135 110,136.7 114.1,136.3 	"/>
	<path fill="#906258" d="M123,140.1c0-1.4-0.8-2.7-2-2.8l-0.8-0.1l0,0l-6.2-0.9l0-0.1c0-0.9-0.6-1.7-1.3-1.8
		c-0.7-0.1-1.3,0.6-1.4,1.5l0,0.1l-14.7-2l0-0.1c0-0.9-0.6-1.7-1.3-1.8c-0.7-0.1-1.3,0.5-1.3,1.4l0,0.1l-5.5-0.8l0,0l-0.7-0.1
		c-1-0.1-4.2,0.6-4.2,1.9l2.4,13.4L87,148l0,12.9c0,1.3,0.8,2.4,1.7,2.6l28.1,6.3c1,0.2,4.6-1.2,4.7-2.5l0.3-12.9l0.9-0.5L123,140.1
		z"/>
	<path fill="#904B3A" d="M95.5,131.9l-3,0.7c0,0,0.6,2.3,0.8,2.2c0.1-0.1,3.5-1,3.5-1L95.5,131.9z"/>
	<path fill="#693930" d="M119.3,140.6l-0.6,27.2c0,1.3-0.9,2.2-1.9,2.1L86.3,164c-0.9-0.2-1.7-1.3-1.7-2.6l-0.1-25.8
		c0-1.3,0.8-2.3,1.7-2.2l31.3,4.4C118.5,137.9,119.3,139.2,119.3,140.6z"/>
	<path fill="#BD865A" d="M110,135c-0.7-0.1-1.3,0.6-1.3,1.5l0,1.5c0,0.9,0.6,1.7,1.3,1.8c0.7,0.1,1.3-0.5,1.3-1.4l0-1.5
		C111.3,135.9,110.7,135.1,110,135z"/>
	<path fill="#BD865A" d="M92.9,132.6c-0.7-0.1-1.2,0.5-1.2,1.4l0,1.5c0,0.9,0.6,1.7,1.2,1.8c0.7,0.1,1.2-0.5,1.2-1.4l0-1.5
		C94.1,133.5,93.5,132.7,92.9,132.6z"/>
	<path fill="#774233" d="M120.1,140.7l-0.3,13.7l-36.1-6l-0.1-13c0-1.3,0.8-2.3,1.8-2.1l32.7,4.6C119.3,138,120.2,139.3,120.1,140.7
		z"/>
	<polygon fill="#D19A6A" points="104.8,148.6 97.8,147.4 97.8,150.8 104.8,152 	"/>
	<polygon fill="#BD865A" points="97.8,150.8 97.8,154.5 104.7,155.7 104.8,152 	"/>
	<polygon fill="#693329" points="119.8,154.4 122.6,153.9 121.8,154.4 121.7,154.9 119,155.5 119,154.3 	"/>
	<path fill="#90584B" d="M94.2,132.7c0,0,0.8-5.5,8.3-6.1c8.2-0.2,10.1,2.1,10.2,7.7c-1.4,1.6-2.8,0.7-2.8,0.7s3.7-7.2-6.8-6.7
		c-3.4,0.6-5.3,0.6-7.8,4.9C94.2,133.5,94.2,132.7,94.2,132.7z"/>
	<path fill="#EEBBA0" d="M109.5,123c0.4,0.7,0.9,1.7,1.1,3c0.2,1.3,0.1,2.4-0.1,3.1c-1.1,1.6-1.5,3-2.6,4.8
		c-0.1,0.1-0.6,0.3-1.2,0.2c-0.7-0.1-1-0.6-1-0.7c-0.2,0.1-0.7,0.2-1.3,0.2c-0.9-0.1-1.4-0.6-1.5-0.8c-0.3,0.1-0.9,0.2-1.6,0.1
		c-0.8-0.1-1.3-0.4-1.5-0.6c-0.1,0-0.5,0.2-1,0.2c-0.5-0.1-0.8-0.4-1-0.8c0-1.5,0.2-3.5,0.9-5.7c0.7-2.2,1.6-3.9,2.4-5.2L109.5,123z
		"/>
	<path fill="#24255E" d="M151.5,108.6c-0.6-6.5-0.7-13-2.2-19.5c-0.7-3.1,0.2-6.3-0.6-9.4c-1.2-4.9-6.6-16-7.3-16.7
		c-3-2.9-5.4-6.5-7.2-10.3c-1.7,0.5-3.3,0.9-5,1.3c-3.7,0.9-7.6,0.7-10.8,3.1c-2.1,1.5-9.9,30.9-11.7,37.9
		c-2.8,10.5-7.1,27.2-7.1,27.2l12.5,6c0,0,5.8-23.2,7.3-27.1c3.1-8,4.7-11,6.2-18.3c0.6,4.5,1.1,15.9,0.6,20.6
		c-0.6,6.6-0.5,13.2-1,19.9c-0.1,1.3-1.3,18.8-2.1,18.8l27,1.2v-25.8v25.8l2.9,0.1C153,143.3,153.2,125.7,151.5,108.6z"/>
	<path fill="#0F1132" d="M166.1,89.3l-2.5,10.3c0,0,1.7,0.2,1.8-0.5c0.2-0.7,1.6-9.3,1.6-9.3L166.1,89.3z"/>
	<polygon fill="#201F5D" points="167,89.8 165.4,73.9 166.1,90.1 	"/>
	<path fill="#24255E" d="M180.5,82.5c0-0.1,0-0.1,0-0.2c-1-5.1-1.9-10.3-3-15.4c-0.5-2.1-1-4.1-1.6-6.2c-0.4-1.4-0.9-3.4-2.5-3.9
		c-2.8-1-1.5,4.1-1.4,5.2c0.3,3.4,0.8,6.8,1.1,10.2c0.4,5.1,0.1,10.5-2,15.1c-1.6,3.4-4.1,6.3-4.8,10c-0.5,2.3-0.2,4.7,0.7,6.8
		c0.5,1.1,1.2,2.1,2.3,2.4c1,0.3,2-0.1,2.9-0.5c4-1.9,7.2-5.6,8.4-9.8C182,91.7,181.3,86.9,180.5,82.5z"/>
	<path fill="#1F1C55" d="M150.1,83.2c0-1.2-0.3-2.4-0.7-3.5l-4.9-12.5c0,0-6.8-13.3-7.9-16.8c-1.4,0.6-1,1.3-2.4,1.9
		c-1.1,1.5-2.3,3.8-2.7,5.5c1.2,0.4,6.3,1.1,6.5,0.9c0,0-5.3,4.8-5.3,4.8c4.8,5.8,9.7,10.7,13.8,21.2c1.5,3.9,3.6,12.5,4.5,16
		C150.9,96.5,150.2,88.3,150.1,83.2z"/>
	<g>
		<g>
			<g>
				<path fill="#939599" d="M157.3,98.1c3.2-1.9,6.5-3.2,15.3-3.7c8.4-0.5,16.8,0.9,20.2,2.3c0.1,0.4,0.8,4.5-2.1,7.5
					c-1.6,1.6-3.5,2.1-4.4,2.2c-5-1.1-11.5-2-19.2-1.7c-6.5,0.2-7.5-1-11.9,0.1C156.3,102.4,156.1,100.4,157.3,98.1z"/>
			</g>
		</g>
		<g>
			<g>
				<path fill="#F1F1F2" d="M157.8,97.7c4.1-1.1,9-3,14.8-3.4c8-0.5,15,1.2,20.2,2.3c-0.5,0.1-3.5,0.4-5.6,3
					c-2.2,2.7-1.8,5.9-1.8,6.4c-3.5-0.9-7.7-1.7-12.4-2.1c-8-0.6-12.7-0.2-17.8,0.8c-0.2-0.6-0.5-1.7-0.2-3.1
					C155.5,99.2,157.4,98,157.8,97.7z"/>
			</g>
		</g>
	</g>
	<path fill="#EEBBA0" d="M161.4,99.9c-1,2.2,0.1,5.9,2.7,6.5c1,0.2,2.2,0,3.2,0.1c1.6,0.1,3.1,0.3,4.7,0.1c0.9-0.1,4.6-1.2,3.3-2.2
		c-1-0.8-2.9,0.6-3.8-0.8c-0.8-1.2-0.3-3.1,0-4.4c0.1-0.6,1.4-4.9-0.1-4.6c-0.5,0.1-1.4,0.6-1.4,1.2c0-0.4,0-0.9-0.4-1.2
		c-0.3-0.2-0.8-0.2-1.2,0.1c-0.3,0.3-0.5,0.6-0.7,1c0.2-0.5-0.1-1.1-0.7-1.1c-0.3,0-0.5,0.2-0.8,0.3c-0.8,0.6-0.9,1.7-1.2,2.7
		c-0.3,1-0.6,2-1,3.1c0.2-1,0.4-2.1,0.5-3.1c0.1-0.5,0.2-1.1,0.2-1.6c0-0.3,0.1-0.3-0.3-0.3c-0.2,0-0.4,0.1-0.5,0.2
		c-0.2,0.2-0.4,0.4-0.6,0.7C162.7,97.5,161.9,98.7,161.4,99.9z"/>
	<g>
		<path fill="#EF4546" d="M136.6,50.5c0,0-0.5,28,10,44.3c6.9-5.6,16.2-34,14.2-41.8c3.9,1,3.7,1.3,3.7,1.3s-5.5,31.3-17.2,43.1
			c-5.2-3.3-14.4-33-12.8-46.1C135.4,51.3,136.6,50.5,136.6,50.5z"/>
		<g>
			<rect x="139.1" y="94.5" fill="#363D44" width="15.1" height="10.7"/>
			<rect x="139.9" y="95" fill="#FFFFFF" width="13.5" height="9.6"/>
			<rect x="144.8" y="92.8" fill="#363D44" width="4.2" height="2.7"/>
			<g>
				<rect x="141.7" y="97.5" fill="#BDBEC0" width="9.5" height="0.6"/>
				<rect x="141.7" y="99" fill="#BDBEC0" width="9.5" height="0.6"/>
				<rect x="141.7" y="100.5" fill="#BDBEC0" width="9.5" height="0.6"/>
				<rect x="141.7" y="102.1" fill="#BDBEC0" width="9.5" height="0.6"/>
			</g>
		</g>
	</g>
	<g>
		<path fill="#443250" d="M207,24.1c0.2-0.2,0.4-0.4,0.6-0.6C207.4,23.7,207.2,23.9,207,24.1z"/>
		<path fill="#443250" d="M233.8,35.4c-1.1-5.2-3.6-10.2-7.7-13.5c-3.2-2.6-7.1-4.6-11.3-3.7c-3.7,0.8-7.1,3.4-9.4,6.3
			c-2.5,3.2-2.8,7.5-3.1,11.5c-0.5,6.3,0.8,12.8,3.9,18.4c1,1.9,2.2,4.6,4.3,5.3c3.6,1.2,7.6,0.5,11.4,0.5c1.2,0,9.4-0.1,9.4,0.4
			c2.5-8.1,4.1-16.7,2.4-25C233.8,35.6,233.8,35.5,233.8,35.4z"/>
	</g>
	<path fill="#EDB09E" d="M225.9,57c0,0-1.8-4-1.2-8.7c0.5-3.6-14.4,1.3-14.4,1.3s0.6,3.4,0,6.4c-0.6,3,7.1,8.7,7.1,8.7l5.1-2.6
		l0.7,0.7L225.9,57z"/>
	<path fill="#FDCFB3" d="M222,36.7c-1.9-1-5.5-3.6-5.6-3.6c-1.2-0.6-2.4-1-3.4-1.8c-0.9-0.6-4.3-2.2-4.1-3.4
		c-0.3,2.5-1.5,4.1-2.7,6.1c0,0,0,0,0,0c-0.3,0.8-0.8,1.5-1.3,2.2c-0.3,0.6-0.7,1.3-0.9,1.8c-0.1,0.4-0.1,0.8,0,1.3
		c0.1,0.7,0.6,4.3,2.2,4.4c0.4,0,0.6,0.5,0.6,0.8c0.5,2.8,2.4,4.8,4.5,6.7c0.1,0.1,0.3,0.3,0.4,0.4c1.6,1.4,3.1,2.1,4.7,2
		c1.5,0,3.1-0.6,4.7-2c0.1-0.1,0.3-0.3,0.4-0.4c2.1-1.9,4.1-3.9,4.5-6.7c0.1-0.4,0.3-0.8,0.6-0.8c1.2-0.1,1.8-2.2,2-3.5
		C226.8,38.8,224.2,37.9,222,36.7z"/>
	<path fill="#E5E7E8" d="M224.7,68.9c-1.6-2.1-4-4.4-6.7-5.1c-2.7,0.7-5.1,3-6.7,5.1c-0.2,0.3-0.3,0.7-0.1,1l6.7,15.7
		c0.1,0.1,0.1,0.2,0.2,0.3c0.1-0.1,0.2-0.2,0.2-0.3l6.7-15.7C225,69.6,224.9,69.2,224.7,68.9z"/>
	<path fill="#EDB09E" d="M216.5,201.8c0,1.2-0.1,2.4-0.2,3.6c-0.4,5.2-2,10.2-2.5,15.4c-0.9,9.4-1.3,19-1.4,28.5c0,1.1,0,2.2,0,3.3
		c0,1.4-0.1,2.9-0.8,4.1c-1.2,2.2-5.2,2-6.9,0.4c-1.7-1.6-1.4-4.7-1.2-6.7c0.1-1.1,0.4-2.2,0.7-3.4c0.2-0.8,0.3-1.5,0.4-2.3
		c0.6-6.3-0.4-12.3-0.8-18.5c-0.5-7.1-1.7-14.1-2.4-21.2c-0.9-9.5,0.5-18.6,1.9-28c0.3-1.7,0.4-3.3,0.4-5c-0.2-4.9-1-9.9,1.5-14.4
		c2.4-4.3,7.7-5.2,11.2-1.5c5,5.3,0.1,13.2-0.8,19c-0.7,5,0.5,9.8,0.5,14.7C216.3,194,216.6,197.9,216.5,201.8z"/>
	<path fill="#24255E" d="M212.5,249.4c0,3.1,1,6.1-1.9,8.7c-2.4,2.1-6,0.2-7.3-2.2c-0.9-1.6,0-4,0.3-5.7c0.4-2,1-3.9,1.2-6
		c0,0.4,0.4,2.5,0.4,3c0.1,1,0.2,2.1,0.4,3.1c0.3,1.6,0.5,3.5,2.4,3.4C209.3,253.7,212.3,250.8,212.5,249.4z"/>
	<path fill="#F5C2B0" d="M218.5,201.8c0,1.2,0.1,2.4,0.2,3.6c0.4,5.2,2,10.2,2.5,15.4c0.9,9.4,1.3,19,1.4,28.5c0,1.1,0,2.2,0,3.3
		c0,1.4,0.1,2.9,0.8,4.1c1.2,2.2,5.2,2,6.9,0.4c1.7-1.6,1.4-4.7,1.2-6.7c-0.1-1.1-0.4-2.2-0.7-3.4c-0.2-0.8-0.3-1.5-0.4-2.3
		c-0.6-6.3,0.4-12.3,0.8-18.5c0.5-7.1,1.7-14.1,2.4-21.2c0.9-9.5-0.5-18.6-1.9-28c-0.3-1.7-0.4-3.3-0.4-5c0.1-4.9,1-9.9-1.5-14.4
		c-2.4-4.3-7.7-5.2-11.2-1.5c-5,5.3-0.1,13.2,0.8,19c0.7,5-0.5,9.8-0.5,14.7C218.7,194,218.4,197.9,218.5,201.8z"/>
	<path fill="#24255E" d="M222.5,249.4c0,3.1-1,6.1,1.9,8.7c2.4,2.1,6,0.2,7.3-2.2c0.9-1.6,0-4-0.3-5.7c-0.4-2-1-3.9-1.2-6
		c0,0.4-0.4,2.5-0.4,3c-0.1,1-0.2,2.1-0.4,3.1c-0.3,1.6-0.8,3.6-3.7,3.9C224.4,254.3,222.7,250.8,222.5,249.4z"/>
	<path fill="#EDB09E" d="M184.6,136.1l2.6-3.8l-1.1-0.3c-0.6-0.2-1.2,0.1-1.6,0.6l-0.4,0.2l0-0.1c0,1.1-0.1,2.1-0.3,3.2L184.6,136.1
		z"/>
	<g>
		<polygon fill="#576368" points="186.3,137.4 184.7,137.4 184.7,138.9 187,139.3 		"/>
		<path fill="#576368" d="M192.1,144.2c0-1.2-0.5-2.4-1.1-2.7l-0.4-0.2l0,0l-3.5-1.9l0-0.1c0-0.8-0.3-1.6-0.7-1.8
			c-0.4-0.2-0.8,0.2-0.8,1l0,0.1l-8.6-4.7l0-0.1c0-0.8-0.3-1.6-0.7-1.8c-0.4-0.2-0.8,0.2-0.8,1l0,0.1l-3.3-1.8l0,0l-0.4-0.2
			c-0.6-0.3-1.1,0.3-1.2,1.5l-0.4,11.6l0.5,0.3l-0.4,11.8c0,1.2,0.4,2.4,1,2.8l17.3,10.6c0.6,0.3,2.7-0.4,2.8-1.6l0.2-11.5l0.5-0.3
			L192.1,144.2z"/>
		<path fill="#576368" d="M176.2,131.8l-1.9-0.1c0,0,0.3,2.1,0.4,2.1c0.1,0,2.2-0.1,2.2-0.1L176.2,131.8z"/>
		<g>
			<path fill="#363D44" d="M190,143.9l-0.4,23.9c0,1.2-0.5,1.9-1.1,1.6l-18.9-10.6c-0.6-0.3-1.1-1.6-1-2.8l0.8-23.4
				c0-1.1,0.5-1.8,1.1-1.5l18.5,10.1C189.5,141.5,190,142.8,190,143.9z"/>
			<path fill="#99999A" d="M184.7,137.4c-0.4-0.2-0.8,0.2-0.8,1l0,1.3c0,0.8,0.3,1.6,0.7,1.8c0.4,0.2,0.8-0.2,0.8-1l0-1.3
				C185.4,138.4,185.1,137.6,184.7,137.4z"/>
			<path fill="#99999A" d="M174.6,131.8c-0.4-0.2-0.8,0.2-0.8,1l0,1.3c0,0.8,0.3,1.6,0.7,1.8c0.4,0.2,0.8-0.2,0.8-1l0-1.3
				C175.3,132.9,175,132.1,174.6,131.8z"/>
			<path fill="#414A51" d="M190.5,144.2l-0.2,11.8l-21.8-12.1l0.4-11.6c0-1.1,0.6-1.8,1.2-1.5l19.3,10.6
				C190,141.8,190.5,143,190.5,144.2z"/>
			<polygon fill="#B0B1B1" points="181.5,148.1 177.3,145.8 177.2,148.8 181.4,151.1 			"/>
			<polygon fill="#99999A" points="177.2,148.8 177.1,152.1 181.3,154.5 181.4,151.1 			"/>
		</g>
		<polygon fill="#363D44" points="190.2,156 191.9,156 191.4,156.3 191.4,156.8 189.7,156.8 189.8,155.7 		"/>
		<path fill="#576368" d="M175.4,132.2c0,0,0.6-4.5,5.1-3.3c4.7,1.5,5.8,3.9,5.8,8.5c-0.8,1.1-1.6,0-1.6,0s2.2-5.3-3.9-7
			c-2-0.3-3.1-0.6-4.7,2.5C175.4,132.9,175.4,132.2,175.4,132.2z"/>
	</g>
	<path fill="#EDB09E" d="M190.6,120.1l-6.7,2.2l-4.6,4.8l-0.3,5.3c0,0.4,0.3,0.7,0.6,0.8l4.2,2.6c0.3-1.1,0.3-2.1,0.3-3.2
		c-0.2-0.4-0.4-0.8-0.5-1.2c-0.2-0.5-0.1-0.6,0.2-0.9c0.5-0.6,1-1.2,1.7-1.6c0.2-0.1,0.4-0.3,0.6-0.3c0.2-0.1,0.5-0.1,0.7,0.1
		c0.5,0.3,0.3,1.3,0.3,1.8c0,0.5,0.3,1.3,0.2,1.8l-0.5,2.4c-0.2,0.3-0.1,0.7,0.1,1l0.9,0.5l2.1-3.9l-0.2-5.8L190.6,120.1z"/>
	<path fill="#24255E" d="M240.4,118.4c-1.4-4.8-3.4-8.8-5.6-13.2c-0.5-1-0.9-2-1.2-3c-0.6-2-1-4.1-1-6.2c-0.1-3.9,0.8-7.8,2.8-11.1
		c0.1,0.1,0.2,0.3,0.3,0.4c-0.1-7.8-1.1-15.7,0.2-23.2c-1.7-0.3-3.3-0.4-5.1-1.1c-0.5-0.2-4.5-2.7-4.5-3c-2,6.7-4.1,13.4-6.2,20.1
		c-0.6,2-1.2,3.9-1.8,5.9v-0.7c0,0.1-0.1,0.2-0.1,0.3c0-0.1-0.1-0.2-0.1-0.3v0.7c-0.6-2-1.2-3.9-1.8-5.9c-2.1-6.7-4.1-13.4-6.2-20.1
		c0.6,2-9.1,4.1-9.8,4.3c-4.5,1.4-7.2,2.6-8.5,7.2c-1.3,4.8-2.8,21.4-2,27c-2.7,4.7-10.4,24.7-9.9,25.5c3.1,1.1,6.4,3.7,9.9,4.4
		c0.7-0.8,8.8-17.8,10.9-26.7c1.2-5.1,0.2-11.6,0.7-13c-0.2,0.7,0.4,2.2,0.7,3.1c0.7,2,1.2,4.1,1.2,6.2c0.1,2.1-0.1,4.2-0.7,6.2
		c-0.3,1-0.7,2.1-1.2,3c-2.2,4.4-4.2,8.5-5.6,13.2c-6,20.4,6.1,38.5,6.4,58.7c5.4,0,10.5,0.2,15.9,0h0c5.3,0.2,10.5,0,15.9,0
		C234.3,156.9,246.4,138.8,240.4,118.4z"/>
	<path fill="#2A5775" d="M233.5,102.1c-0.6-2-1-4.1-1-6.2h-29.3c0.1,2.1-0.1,4.2-0.7,6.2H233.5z"/>
	<path fill="#1F1C55" d="M221.6,79.5l-2.3-10.6c-0.1-0.3,0-0.7,0.1-1l0.9-1.7c0-0.1,0-0.2-0.1-0.3c-0.3-0.3-0.7-0.7-1-1
		c-0.2-0.2-0.5-0.4-0.6-0.7c-0.1-0.2-0.4-0.7-0.7-0.5c-0.3,0.2-0.4,0.5-0.5,0.7c-0.2,0.2-0.4,0.4-0.7,0.7c-0.3,0.3-0.6,0.6-0.9,0.9
		c-0.1,0.1-0.1,0.2-0.1,0.3l0.9,1.7c0.2,0.3,0.2,0.7,0.1,1l-2.3,10.6c0,0.1,0,0.1,0,0.2l3.2,8.3c0.1,0.2,0.2,0.2,0.3,0.1
		c0.1,0,0.3,0,0.3-0.1l3.2-8.3C221.6,79.6,221.6,79.6,221.6,79.5z"/>
	<path fill="#FFFFFF" d="M227.4,61.2l-1.7-5l-1.4,2.5c-1.6,2.2-5,4.5-6.3,4.5c-1.2,0-4.5-2.2-6.3-4.5l-1.4-2.5l-1.7,5
		c0,0.1,0,0.2,0,0.2l3.2,10.3c0.1,0.3,0.5,1.8,0.7,0.1l1.8-3.1c0.2-0.4,0.5-0.7,0.7-1l3.1-3.8l3.1,3.8c0.3,0.3,0.5,0.7,0.7,1
		l1.8,3.1c0.2,1.7,0.6,0.2,0.7-0.1l3.2-10.3C227.4,61.3,227.4,61.3,227.4,61.2z"/>
	<g>
		<path fill="#1F1C55" d="M218,83.5l-3.4-11.3l-4.8-14.4l-2.3,1.8c-1.2,0.6-2.1,6.9-2.5,8.2l4-0.4c0,0-2.9,5.3-2.9,5.3
			c-0.2,0.4,10.9,15.7,11.9,19.2c0-0.1,0.1-0.2,0.1-0.3v-8.5L218,83.5z"/>
		<path fill="#1F1C55" d="M227,67.5l4,0.4c-0.4-1.3-1.3-7.5-2.5-8.2l-2.3-1.8l-4.8,14.4l-3.3,10.9v8.5c1.9-4.3,12.1-18.5,11.8-19
			C229.9,72.7,227,67.5,227,67.5z"/>
	</g>
	<g>
		<path fill="#EF4546" d="M209.2,58.3c0,0-11.2,14.7-1.4,35.3c4.7-1.7,25.4-27.8,22.2-33.2c4.4,0.7,4,1.3,4,1.3s-12,27.2-25.7,34.1
			c-6.1-7.1-11.4-19-2.4-35.1C206.9,60.1,209.2,58.3,209.2,58.3z"/>
		<g>
			
				<rect x="198.6" y="94.4" transform="matrix(0.9668 0.2555 -0.2555 0.9668 32.3367 -49.3686)" fill="#363D44" width="15.2" height="10.8"/>
			
				<rect x="199.5" y="95" transform="matrix(0.9668 0.2554 -0.2554 0.9668 32.3264 -49.3567)" fill="#FFFFFF" width="13.5" height="9.6"/>
			
				<rect x="205.8" y="93.1" transform="matrix(0.9669 0.2551 -0.2551 0.9669 30.9639 -49.9132)" fill="#363D44" width="4.2" height="2.7"/>
			<g>
				
					<rect x="201.8" y="97.5" transform="matrix(0.9669 0.2553 -0.2553 0.9669 31.8033 -49.49)" fill="#BDBEC0" width="9.5" height="0.6"/>
				
					<rect x="201.4" y="98.9" transform="matrix(0.9669 0.2553 -0.2553 0.9669 32.1568 -49.3311)" fill="#BDBEC0" width="9.5" height="0.6"/>
				
					<rect x="201" y="100.4" transform="matrix(0.9669 0.2553 -0.2553 0.9669 32.5195 -49.1831)" fill="#BDBEC0" width="9.5" height="0.6"/>
				
					<rect x="200.6" y="101.9" transform="matrix(0.9668 0.2555 -0.2555 0.9668 32.9236 -49.0818)" fill="#BDBEC0" width="9.5" height="0.6"/>
			</g>
		</g>
	</g>
	<g>
		<polygon fill="#0D76BD" points="214.1,80.5 218,109.5 235.7,106.3 232.6,77.5 		"/>
		<polygon fill="#FFFFFF" points="213.5,81.1 217.5,110 235.2,106.9 232.1,78 		"/>
		<polygon fill="#0D76BD" points="214.2,82.2 218,111 235.8,107.8 232.6,79.1 		"/>
	</g>
	<path fill="#EDB09E" d="M219.6,106.5c-1.1,0.2-2.3,0.5-3.3-0.4c-1-1-1.6-2.2-1.7-3.6c-0.1-0.8-0.4-1.6-0.2-2.4
		c0.1-0.5,0.3-1,0.4-1.4c0.5-1.4,0.8-2.9,2.7-2.4c0-0.7-0.7-1.4-0.9-2.1c-0.2-0.8-0.3-1.7,0.1-2.5c0.1-0.2,0.4-0.5,0.6-0.7
		c0.6,0.7,0.6,1.9,1.2,2.5c0.7,0.7,1.9,1,2.8,1.6c1.7,1.3,3.9,2.1,4.4,4.3c0.2,0.8,0.4,1.6,0.5,2.5c0,0.8-0.1,1.7-0.7,2.4
		C224.1,106.3,221.8,106.2,219.6,106.5z"/>
	<path fill="#24255E" d="M248.1,85.4c-0.5-3.7-1.1-7.4-2.2-11c-1.1-3.8-3.8-9.6-7.5-11.4c-0.9-0.4-3.4-1.1-4.2-1.2
		c-0.7,3.9-0.6,7.5-0.6,11.4c0.1,3.2,1,6.9,0.9,10c-0.1,1.3,0.3,2.4,0.9,3.5c0.7,1.3,1.5,3.7,1.6,5.2c0.2,1.8-1.3,2.4-2.9,2.9
		c-1.7,0.6-3.4,1.3-5.1,1.7c-1.4,0.3-2.9,0.3-4.4,0.6c0.1,1.5,0.9,10.2-1.4,10.1c4.9,0.1,10-0.3,14.7-1.9c3.6-1.2,7.6-3,10-6.1
		C250.8,95.7,248.7,89.5,248.1,85.4z"/>
</g>
</svg>
