<?xml version="1.0" encoding="utf-8"?>
<!-- Generator: Adobe Illustrator 18.0.0, SVG Export Plug-In . SVG Version: 6.00 Build 0)  -->
<!DOCTYPE svg PUBLIC "-//W3C//DTD SVG 1.1//EN" "http://www.w3.org/Graphics/SVG/1.1/DTD/svg11.dtd">
<svg version="1.1" id="Layer_1" xmlns="http://www.w3.org/2000/svg" xmlns:xlink="http://www.w3.org/1999/xlink" x="0px" y="0px"
	 viewBox="0 0 353.2 268.5" enable-background="new 0 0 353.2 268.5" xml:space="preserve">
<g>
	
		<linearGradient id="SVGID_1_" gradientUnits="userSpaceOnUse" x1="-276.6214" y1="90.0144" x2="9.8175" y2="90.0144" gradientTransform="matrix(0.9073 0.4206 -0.4206 0.9073 335.0003 115.3644)">
		<stop  offset="0" style="stop-color:#5D72B7"/>
		<stop  offset="0.9951" style="stop-color:#F8A58E"/>
	</linearGradient>
	<path fill="url(#SVGID_1_)" d="M289.7,181.5c-30.6,66-88.8,42.8-154.8,12.2C116.6,185.3,17.7,233,5.6,218.5
		c-17.7-21.3,57.1-50.5,55.3-78C59.4,119,41.1,91.6,50.8,70.8c18.6-40.2,46.4-34,86.8-41.5c26-4.9,62.2-34.5,88-22.6
		c23.2,10.7,18.3,66.9,42,67.7C427.9,80.2,309.5,138.7,289.7,181.5z"/>
	<path fill="#131313" d="M221.9,253.1l2.3-5.8l16.4-1.2l-1.5,4.1l19.7,6.6c0.7,0.2,1.3,0.7,1.6,1.4c0.7,1.5,1.9,4.1,1.1,4.1l-20-0.4
		l-7.8-1.8l-0.8,1.2l-10.3,0c-0.3,0-0.6-0.3-0.6-0.6V253.1z"/>
	<path fill="#222222" d="M201.6,255.5l2.3-5.8l16.4-1.2l-1.5,4.1l19.7,6.6c0.7,0.2,1.3,0.7,1.6,1.4c0.7,1.5,1.9,4.1,1.1,4.1l-20-0.4
		l-7.8-1.8l-0.8,1.2l-10.3,0c-0.3,0-0.6-0.3-0.6-0.6V255.5z"/>
	<path fill="#DEA890" d="M267.4,135.6c0.2,0.7,0.1,1.4,0.1,2.2c0,0.7,0.2,1.4,0,2.1c-0.1,0.5-0.6,0.8-1,0.4
		c-0.2-0.1-0.3-0.3-0.4-0.5c-0.5,0.6-0.9,0.1-1-0.4c-0.3-1.1,0-2.2-1-2.7c-0.7-0.4-1.5-0.6-2.3-0.9c-1.3-0.5-2.5-1-3.8-1.6
		c0,0,1-1.4,1.1-1.5c0.6-0.8,1-1.4,2-1c1.2,0.5,2.4,1,3.7,1.5c0.6,0.3,1.2,0.5,1.7,1C267.1,134.6,267.3,135,267.4,135.6z"/>
	<path fill="#E8B59B" d="M263.4,133.5c-0.3-0.1-0.5-0.1-0.8-0.1c-0.2,0-0.5-0.2-0.7-0.2c0.2,0,0.4,0.2,0.6,0.3
		c0.4,0.3,0.9,0.4,1.3,0.7c0.4,0.2,1.8,1.4,1,1.9c-0.7,0.5-1.6-0.1-2-0.4c-0.9-0.5-2.1-0.4-3.2-0.5c-2.8-0.3-4.8-2.1-6.8-3.6l3-2.4
		l6.3,0.7c1.5,0.2,3,0.8,4.2,1.8c0,0,0.1,0.1,0.1,0.1c0.9,0.8,1.7,1.5,2.3,2.5c0.3,0.4,0.2,0.9,0.3,1.3c0,0.6,0.1,1.2,0.1,1.8
		c0,0.5,0.5,1.9-0.3,2.2c-0.4,0.2-0.8-0.5-0.9-0.8c-0.3-0.9-0.2-2.4-0.7-3.2C266.5,134.7,264.8,133.9,263.4,133.5z"/>
	<path fill="#DEA890" d="M279.8,154.2l-1.8-1.6c1.8-0.1,3.7-0.5,5.4-1.2c0.9-0.3,1.9-0.7,2.7-0.3c0.8,0.4,1,1.3,1.2,2.1
		c1.3,5.3,11.4,50.7,12.4,54.4c1.3,4.8,3.8,8.8,5.7,13.3c1.8,4.2,3.8,8.8,6.3,12.7c0.4,0.7,1.3,1.3,2.2,1.9c0.6,0.4,1.2,0.8,1.7,1.1
		c-0.3,0.4-0.7,0.8-1.1,1.2c-0.4,0.4-0.9,0.6-1.4,0.8l-4.1,0.2c0,0-0.1,0-0.1,0c-1.8-0.5-3.2-1.8-4.2-3.3c-1-1.6-1.3-3.6-2.5-5.1
		c-1.4-1.7-3.4-2.7-5.1-4.1c-1.1-0.8-2-1.7-3.3-2.3c-0.9-0.5-1.9-0.8-2.7-1.3c-1.4-0.7-1-1.4-0.9-2.8c0.1-1.2,0.1-2.4-0.1-3.7
		c-0.1-1.6-0.7-4.1-1.3-5.6c-1.1-2.7-2.2-5.3-4-7.6c-4.1-5.3-7.7-12.4-8.9-19.1c-0.5-2.9-0.7-5.8-0.8-8.8c-0.1-2.9,0.3-6.3-0.5-9.1
		c-0.5-1.9-1.8-3.7-2.5-5.5c-0.6-1.5-1.2-3-1.8-4.5L279.8,154.2z"/>
	<path fill="#E8B59B" d="M286.1,151.3c0.2,0.1,0.4,0.2,0.5,0.3c0.6,0.4,1.1,0.9,1.5,1.5c3.1,3.8,0.1,9.8-1.3,13.9
		c-1.7,5.1-3,10.3-4.7,15.4c-3.4,9.9-7.2,19.8-10.3,29.9c-1.5,4.7-1.4,9.5-2.2,14.4c-0.7,4.6-1.4,9.5-1.4,14.1
		c0,0.8,0.4,1.8,0.9,2.8c0.3,0.7,0.6,1.3,0.9,1.8c-0.5,0.2-1,0.4-1.5,0.4c-0.5,0.1-1.1,0.1-1.6,0l-3.5-2c0,0,0,0-0.1-0.1
		c-1.3-1.4-1.8-3.2-1.8-5c0-1.9,0.8-3.7,0.6-5.6c-0.3-2.2-1.4-4.1-2.2-6.1c-0.5-1.3-0.8-2.5-1.5-3.7c-0.5-0.9-1.2-1.6-1.7-2.5
		c-0.8-1.4-0.1-1.7,0.7-2.8c0.7-1,1.3-2,1.9-3.2c0.7-1.4,1.6-3.8,1.9-5.4c0.5-2.9,0.9-5.7,0.6-8.6c-0.7-6.7,0-14.6,2.5-20.9
		c1.1-2.8,2.5-5.3,4-7.9c1.3-2.2,3.9-4.1,2-6.7c-0.6-0.9-1.5-1.6-2-2.6c-0.2-0.3-0.3-0.7-0.3-1.1c0-0.6,0.4-1.1,0.8-1.6
		c1.5-1.9,3.3-3.4,4.8-5.2c0.6-0.7,0.6-1.1,1.5-1.3c1-0.3,1.9,0.1,2.9-0.5c1.4-0.7,2.6-2.1,4.1-2.5
		C283.4,150.2,285,150.6,286.1,151.3z"/>
	<path fill="#2B3075" d="M287.6,144.6c-1.1-1.4-2.1-2.8-3.2-4.2c-0.4-0.6-0.9-1.2-1.6-1.5c-2.3-1.2-8.5-0.9-11.3-1.3
		c-5.1-0.8-10.2-1.5-15.3-2.3c-6.8-1-13.6-2-20.3-3c0,0-34.5-2.9-34.5-2.9c-0.2,0-0.5,0.3-0.8,0.9c-1.4,2.8-3.7,11.3-3.9,12.7
		c-0.8,5-0.9,11.3,1.4,16c0.9,1.8,2.2,3.1,3.7,4c0,0,0.1,0,0.1,0.1c0,0,10.6-0.1,10.9-0.1c2,0,44.1,0.4,44.1,0.4
		c3.4,0,5.9,0.1,6.9,0.1c0.3,0,0.4,0,0.4,0c1.2,0,1.9,3.5,3.3,3.9c0.7,0.2,1.2-0.4,1.9-0.7c1.5-0.8,3.1-1.6,4.6-2.6
		C281.2,159.5,295.4,154.9,287.6,144.6z"/>
	<path id="_x33__4_" fill="#D1D4D4" d="M146.2,149.3H90.3c-2.5-29.7-21.6-72.4-25.6-81c-0.3-0.6-1.1-0.6-1.3,0
		c-0.5,1.3-1.4,3.4-2.5,5.5c10.9,15.8,19.2,79,19.2,79v4.8v63.8h7.1v-63.8h54.3v63.8h7.1v-63.8h0.7v-4.8
		C149.4,150.9,148,149.3,146.2,149.3z"/>
	<path fill="#F1C6B6" d="M166.3,144.8l-1.7-1.5c1.7-0.1,3.4-0.5,5-1.1c0.8-0.3,1.7-0.6,2.5-0.2c0.7,0.4,1,1.2,1.2,2
		c1.2,4.9,10.7,47.5,11.6,50.9c1.2,4.5,3.6,8.3,5.4,12.5c1.7,4,3.6,8.2,5.9,11.9c0.4,0.7,1.2,1.3,2.1,1.8c0.6,0.4,1.1,0.7,1.6,1
		c-0.3,0.4-0.6,0.8-1,1.1c-0.4,0.3-0.8,0.6-1.3,0.8l-3.8,0.2c0,0-0.1,0-0.1,0c-1.7-0.4-3-1.6-3.9-3.1c-1-1.5-1.2-3.4-2.3-4.8
		c-1.3-1.6-3.2-2.6-4.7-3.8c-1-0.8-1.9-1.6-3-2.2c-0.8-0.4-1.7-0.7-2.6-1.2c-1.3-0.7-0.9-1.3-0.8-2.6c0.1-1.1,0.1-2.2-0.1-3.5
		c-0.1-1.5-0.6-3.8-1.2-5.2c-1-2.5-2.1-5-3.8-7.1c-3.9-5-7.2-11.6-8.3-17.9c-0.5-2.7-0.6-5.5-0.7-8.2c-0.1-2.7,0.3-5.9-0.4-8.5
		c-0.5-1.7-1.7-3.4-2.4-5.1c-0.6-1.4-1.1-2.8-1.7-4.2L166.3,144.8z"/>
	<path fill="#18A84A" d="M175.3,207.9c0-0.6,1.2-3.1,0.8-3.5c4.5,5.8,11.9,9.2,15,16c0.7,1.4,2.1,2.2,3.8,2.2c0.4,0,3.6-1.4,3.3-1.6
		c0.6,0.4,1.3,0.8,1.8,1.2c1,0.8,3.2,1.3,3.8,2.6c0.9,2-5.5,1.4-6.4,1.3c-1.1-0.1-2.2-0.1-3.2-0.2c-1.9-0.1-3.7-0.6-5.5-1.1
		c-0.1,0-0.2-0.1-0.3-0.1c-0.1-0.1-0.1-0.2-0.2-0.3c-0.9-2.5-1.1-5.4-2.2-7.8c-0.5-1.1-2.4-3.5-3.8-3.5c-0.5,0-1,0.3-1.3,0.8
		c-0.2,0.2-0.3,0.5-0.4,0.8c-0.3,0.8-0.3,1.7-0.2,2.6c0.1,1.8,0.2,3.5,0.5,5.2c0.1,0.6,0.5,1.8,0.4,2.5l-1.3,0.1
		c-0.6-3.8-0.7-7.4-3.1-10.8C175.6,212.3,175.1,210.1,175.3,207.9z"/>
	<path fill="#F5CFBE" d="M164.1,148.2l-1.6-1.6c1.7,0,3.4-0.3,5.1-0.9c0.8-0.3,1.8-0.6,2.5-0.1c0.7,0.4,0.9,1.3,1.1,2
		c1,5,8.6,47.9,9.3,51.3c1,4.5,3.2,8.4,4.8,12.7c1.5,4,3.2,8.4,5.3,12.1c0.4,0.7,1.2,1.3,2,1.9c0.5,0.4,1.1,0.8,1.6,1.1
		c-0.3,0.4-0.7,0.8-1.1,1.1c-0.4,0.3-0.9,0.5-1.3,0.7H188c0,0-0.1,0-0.1,0c-1.7-0.5-2.9-1.8-3.7-3.3c-0.9-1.5-1-3.4-2.1-4.9
		c-1.2-1.6-3.1-2.7-4.6-4c-1-0.8-1.8-1.7-3-2.3c-0.8-0.5-1.7-0.8-2.5-1.3c-1.2-0.8-0.9-1.3-0.7-2.7c0.1-1.1,0.2-2.2,0.1-3.5
		c-0.1-1.5-0.5-3.9-0.9-5.3c-0.9-2.6-1.9-5.1-3.5-7.3c-3.7-5.1-6.7-11.9-7.5-18.2c-0.4-2.7-0.4-5.5-0.4-8.3c0-2.7,0.6-5.9-0.1-8.5
		c-0.4-1.8-1.5-3.5-2.1-5.2c-0.5-1.4-1-2.8-1.5-4.3L164.1,148.2z"/>
	<path fill="#18A84A" d="M170.3,211.6c0.1-0.6,1.3-3,1-3.5c2.1,3,5.3,4.6,8,7.2c1.5,1.4,2.9,3.5,4.1,5.1c0.7,1,1.3,2,1.9,3.1
		c0.3,0.6,0.8,2.3,1.4,2.7c1,0.7,2.2,1.2,3.4,1c1-0.2,1.7-1,2.7-1.3c1.1-0.3,6.1,1.5,4.7,3c-0.5,0.6-2.1,0.6-2.8,0.8
		c-1.6,0.3-3.2,0.4-4.9,0.5c-1.3,0-3.5,0.4-4.6-0.3c-2-1.3-2.9-3.5-3.7-5.7c-0.6-1.6-1.4-3.3-2.6-4.6c-0.6-0.6-1.7-1.9-2.7-1.8
		c-2.4,0.1,0.2,10.2,0.5,12.4c-0.5,0.1-1,0.1-1.5,0.2c-0.7-4.2-1.4-8.8-3.7-12.5C170.4,216.1,170,213.8,170.3,211.6z"/>
	<path fill="#E2B5A6" d="M115.3,35.8c2.2,2.2,4,4,5.7,5.5c6,5.6,8.3,6.7,8.3,6.7c0.1,0.3-2.9,5-1.1,11.8
		C121.3,53.4,116.8,44.9,115.3,35.8z"/>
	<path fill="#F1C6B6" d="M107.6,57.2c0.8-0.8,1.5-1.6,2.3-2.4c1.5-1.8,2.7-3.8,3.5-6c1.5-4.2,2-8.7,1.8-13.2c0,0,0.1,0.1,0.1,0.1
		c1.6,9.2,6.1,17.7,12.9,24c0.1,0.3,0.2,0.6,0.3,0.9c2.3,4,4.4,7.1,1.5,9c-2.3,1.5-10.9-1.6-14.2-2.9c-0.8-0.3-1.3-0.5-1.3-0.5
		c-0.6-0.3-1.3-2.6-1.6-3.2c-0.5-0.9-1-1.9-1.7-2.6c-0.6-0.5-1.1-0.7-1.9-0.8c-0.7-0.1-2.3,0.2-2.8-0.2
		C105.4,58.8,107,57.9,107.6,57.2z"/>
	<g>
		<path fill="#F1C6B6" d="M161.9,129.7c0.2,0.8,0.2,1.7,0.2,2.5c0,0.8,0.3,1.6,0.1,2.5c-0.1,0.6-0.7,1-1.2,0.6
			c-0.2-0.2-0.3-0.4-0.5-0.6c-0.5,0.7-1,0.2-1.2-0.5c-0.3-1.3-0.1-2.5-1.3-3.1c-0.8-0.4-1.8-0.7-2.7-1c-1.5-0.6-3-1.1-4.6-1.7
			c0,0,1.1-1.7,1.2-1.8c0.7-1,1.2-1.7,2.3-1.2c1.5,0.5,2.9,1.1,4.4,1.7c0.7,0.3,1.5,0.6,2.1,1.1
			C161.4,128.6,161.7,129.1,161.9,129.7z"/>
		<path fill="#F5CFBE" d="M157.1,127.4c-0.3-0.1-0.6,0-0.9-0.1c-0.3,0-0.6-0.2-0.8-0.2c0.3,0,0.5,0.2,0.7,0.3
			c0.5,0.3,1.1,0.5,1.6,0.7c0.5,0.2,2.1,1.6,1.3,2.2c-0.8,0.6-1.9,0-2.4-0.3c-1.1-0.6-2.5-0.4-3.8-0.4c-3.3-0.2-5.7-2.3-8.2-3.9
			l3.4-3l10.3,0.7c0.8,0.6,1.6,1.2,2.4,1.8c1.1,0.9,2,1.7,2.8,2.9c0.3,0.5,0.3,1,0.4,1.6c0.1,0.7,0.2,1.4,0.3,2.1
			c0.1,0.6,0.6,2.2-0.3,2.6c-0.5,0.2-1-0.5-1.1-0.9c-0.3-1.1-0.3-2.8-1-3.7C160.7,128.7,158.7,127.8,157.1,127.4z"/>
	</g>
	<path fill="#2B3075" d="M127.9,58.8l2.1,1.1c0,0,0.1,0,0.1,0c3.6,1.9,5.5,6,5,10l-5.3,38.3l22.5,14.1l-3.3,7l-23.2-9.5
		c-2.8-0.3,3.8-28,3.8-28L127.9,58.8z"/>
	<path fill="#2C3480" d="M167.5,132.3l-42.2-10c0,0-0.1,0-0.3,0c-0.5-1.9,10.8-27.9,13.3-33.5c2.7-6-0.5-6.9-2.6-11.5
		c-1.2-2.7-8-15-7.6-14.2c0.2,0.4-13,4-13.3,3.4l-16.3,3L97,71c0,0-0.5,37-4,48.4c-0.2,0-4.1,12.1-4.3,13.4
		c-0.8,5-1.6,11.7,1.3,15.9c2.8,3.9,11.6,4,13.7,4c8.5,0,43.5,0.4,47.7,0.5c0.3,0,0.4,0,0.4,0c1.1,0,1.8,3.5,3.1,3.9
		c0.7,0.2,1.2-0.4,1.8-0.7c1.4-0.8,2.9-1.6,4.3-2.6c4.6-3.1,9.3-6.2,13.8-9.5c0.2-0.2,0.5-0.3,0.7-0.5L167.5,132.3z"/>
	<path fill="#F1C6B6" d="M143,126.7l7.3,1.4l6.2,1.3c0.6,0.1,1.1,0.4,1.6,0.9c1.6,1.6,3.4,2.9,4.8,4.7c0.9,1.2,1.3,1.9-0.6,2.2
		c-1.2,0.2-2.3-0.3-3-1.4c0.3,0.4,0.6,0.9,0.4,1.4c-0.4,1-1.3,0.3-1.8-0.1c-1.1-0.7-2.3-1.4-3.4-2.2c-0.7-0.4-1.5-0.6-2.3-0.5
		l-5.8,0.6c-0.7,0.1-1.4,0-2.1-0.3l-4.4-1.9L143,126.7z"/>
	<path fill="#2B3075" d="M106.1,58.8c5.9-0.9,9.3,3.7,10.2,6.8c1.2,4.2,0.6,9,0.4,13.4c-0.1,5.8-5.1,29-3,31.1
		c6.3,6.3,30.8,15.9,31.1,16l-0.5,8.5c-0.5-0.2-39.2-4.9-45.4-18.7c-1-2.2-2.5-32.8-2.5-33C94.1,67.9,102.2,59.4,106.1,58.8z"/>
	<path id="_x31__1_" fill="#D1D4D4" d="M188.4,162.2c0.2,1.4,0.3,2.2,0.3,2.2v68.6h7.1v-63.8h54.3v63.8h7.1v-63.8h0.7v-4.7
		c0-0.8-0.3-1.6-0.7-2.2H188.4z"/>
	<path fill="#C24F95" d="M289.3,221.6c0-0.6,1.2-3.3,0.9-3.7c0.9,1.2,2,2.5,3.2,3.5c3.7,2.9,6.9,6,10,9.4c1.2,1.3,2.6,2.5,4.2,3.2
		c0.8,0.4,1.6,0.6,2.5,0.6c0.3,0,0.6,0.1,0.9,0c0.4-0.1,0.6-0.7,1-0.6c0.2,0,0.3,0.1,0.4,0.3c0.7,0.8,1.9,1.2,2.8,1.8
		c1,0.7,5.7,3.2,4.1,4.8c-0.5,0.5-1.6,0.5-2.2,0.5c-1.3,0-2.6-0.1-3.9-0.2c-2.8-0.3-5.7-0.7-8.5-1.3c-3.1-0.6-2.2-5.9-4.2-7.8
		c-1.1-1.1-5-2.9-6-1c-0.8,1.5,0.4,4.5,0.7,6c0.1,0.6,0.5,1.9,0.4,2.7l-1.4,0.1c-0.7-4.1-0.8-7.9-3.3-11.6
		C289.7,226.4,289.1,223.9,289.3,221.6z"/>
	<path fill="#C24F95" d="M255.8,218.7c0.4-0.5,2.8-2.2,2.7-2.7c0.4,3.9,2.5,7.1,3.7,10.8c1.4,4.3-0.7,12,5.1,13.1
		c0.4,0.1,0.8,0.1,1.1,0.3c0.5,0.3,0.7,0.8,0.9,1.3c0.6,1.6,1.3,3,2.2,4.3c0.5,0.7,2.2,2.6,0.6,3.2c-0.8,0.3-2.3-0.5-3.1-0.7
		c-1.7-0.6-3.2-1.3-4.8-2.1c-1.2-0.6-3.4-1.4-4.1-2.7c-1.6-3.1-0.4-6.2,0.1-9.4c0.3-1.9-1.1-5.2-3.6-4.7c-3.1,0.7-3.6,7.4-4.5,9.9
		c-0.5-0.2-1-0.4-1.5-0.6c1.5-4.3,3.3-9,3.1-13.5C253.6,222.9,254.4,220.6,255.8,218.7z"/>
	<path fill="#2B3075" d="M238.7,65.7l2.3,1.2c0.3,0.1,0.5,0.3,0.8,0.4c0.9,0.5,1.7,1.2,2.4,2c2.4,2.6,3.3,6.2,2.7,9.6l-4.3,25.6
		c5.3,9.1,10.6,17.4,15.5,21.8c0.9,0.8,1.2,2.1,0.6,3.2l-3.4,6l-16.1-8.7c-3-0.3,1.4-25.6,1.4-25.6L238.7,65.7z"/>
	<path fill="#D3A28F" d="M225.2,41.2c2.3,2.4,4.3,4.3,6,5.9c6.4,5.9,8.9,7.2,8.9,7.2c0.1,0.4-3,5.4-1.1,12.6
		C231.6,60,226.9,51,225.2,41.2z"/>
	<path fill="#DEA890" d="M217,64.1c0.8-0.8,1.7-1.7,2.4-2.6c1.6-1.9,2.9-4,3.7-6.4c1.6-4.5,2.1-9.3,1.9-14.1c0,0,0.1,0.1,0.1,0.1
		c1.7,9.8,6.5,18.9,13.8,25.7c0.1,0.3,0.2,0.6,0.3,0.9c2.5,4.3,4.7,7.6,1.6,9.6c-2.5,1.6-8.5,3.8-12,2.4c-0.9-0.3-4.6-6.1-4.6-6.1
		c-0.6-0.3-1.4-2.8-1.8-3.4c-0.5-0.9-1-2.1-1.8-2.8c-0.6-0.5-1.2-0.7-2-0.8c-0.7-0.1-2.4,0.2-3-0.2C214.6,65.8,216.3,64.8,217,64.1z
		"/>
	<path fill="#2C3480" d="M253.1,98.4c-1.9,10.2-12.3,10.3-10,33.2c0.1,0.5-6.7,1.2-6.9,1.5c-0.2,0.4-0.2,0.6-0.2,0.6s0,0-0.1,0
		c-0.9-0.1-34.3-3.7-34.2-4.1c0.3-1.1,0.8-2.4,0.8-3.8c-0.8-20.7,3-45.2,3-45.2l1.8-3.3l16.4-4.1c0,0,11.6,8.9,17.8,3.3
		c1.1-1-0.5-3-0.8-4.5c-0.1-0.7-0.2-1.4-0.5-2.1c-0.1-0.4-0.3-0.7-0.5-1.1c-0.1-0.3,2,1.2,2.4,2.1c0.6,1.5,0.7,4.3,1.2,5.8
		c1,3,1.9,6,2.9,9C247,88.3,254,93.6,253.1,98.4z"/>
	<path fill="#923A77" d="M236.7,131.9c-0.2,0.5-0.4,0.9-0.5,1.2l-34.5-3.5c0.3-1.1,0.5-2.4,0.8-3.8
		C208.9,126.7,230,130.9,236.7,131.9z"/>
	<path fill="#E8B59B" d="M246.2,132.1l7.1,1.5l6,1.4c0.6,0.1,1.1,0.4,1.5,0.9c1.5,1.6,3.3,2.9,4.6,4.7c0.9,1.2,1.2,1.9-0.6,2.1
		c-1.2,0.2-2.2-0.4-2.9-1.4c0.2,0.4,0.6,0.9,0.4,1.4c-0.4,0.9-1.3,0.2-1.8-0.1c-1.1-0.7-2.2-1.5-3.3-2.2c-0.7-0.4-1.5-0.6-2.3-0.6
		l-5.7,0.5c-0.7,0.1-1.4-0.1-2-0.4l-4.2-2L246.2,132.1z"/>
	<path fill="#2B3075" d="M251.7,131.1c-9.7-3.1-23.8-15.2-28.2-17.7c-2.6-1.5,2.9-34.5,2-39.1c-0.7-3.5-2-7.9-8.4-9.4
		c-18.8-4.4-12.4,57.4-10.7,59.2c1.6,1.7,27,15,41.5,18.4C249.5,138.8,250.7,135,251.7,131.1z"/>
	<path id="_x33__2_" fill="#D1D4D4" d="M188.5,190.1h-55.8c-2.5-29.7-21.6-72.4-25.6-81c-0.3-0.6-1.1-0.6-1.3,0
		c-0.5,1.3-1.4,3.4-2.5,5.5c10.9,15.8,19.2,79,19.2,79v4.7v63.8h7.1v-63.8h54.3v63.8h7.1v-63.8h0.7v-4.7
		C191.7,191.7,190.2,190.1,188.5,190.1z"/>
	<path fill="#2B3075" d="M248.7,182.4c0-2.7-0.1-5.5-0.6-8.4c-1-5.8-7.4-7.2-12.4-8.4c-7.3-1.8-14.5-3.5-21.8-5.3
		c-9.4-2.3-18.9-4.6-28.4-6.9c0,0-38.5,0.9-38.6,0.9c11.2-0.3,23.5,2.8,33.9,6.5c7.2,2.6,14.2,6,20.2,10.8c3,2.4,5.5,5.1,7.8,8.1
		c3.1,4.2,7.1,6.4,11.9,8.4c1.1,0.5,2.3,0.9,3.2,1.7c0.3,0.3,0.6,0.7,0.9,1c-1.5,20.8-0.9,60.9-0.9,60.9s2.6-0.1,21.7-0.2
		c0.1-13.1,0.8-26.3,1.7-39.4c0.4-5.8,1-11.6,0.9-17.3C248.3,190.8,248.7,186.6,248.7,182.4z"/>
	<path fill="#2D3383" d="M244.7,174.7c-2.2-4.7-7.9-4.9-13.9-6.5c-6.3-1.8-12.7-3.5-19-5.3c-8.1-2.2-16.2-4.5-24.3-6.7
		c0,0-42.4-2.4-42.4-2.4c-1.5-0.1-3.4,9.3-3.6,10.3c-1,7.8-1.7,14.7,3.2,20.7c5,6.2,18.5,5.5,26.4,5.5c7,0,13.9,0,20.9,0
		c4.8,0,9.7,0,14.5,0c3.1,0,9.5-1.5,10.2,2.6c0.5,3.1-6.3,21.6-7.2,25.6c-1.2,5.3-2.4,10.6-3.6,15.9c-0.5,2.2-4.9,14-3.6,16
		c0,0,2.2,3.3,25.3,3.7c2.6-11.6,5.6-23.1,8.6-34.5c2.4-8.9,5.4-17.7,6.9-26.8C245.9,187.5,247,179.7,244.7,174.7z"/>
	<g>
		<path fill="#DEA890" d="M232.1,160.6c0.2,0.9,0.2,1.9,0.2,2.9c0,1,0.2,1.9,0.1,2.9c-0.1,0.6-0.8,1.1-1.4,0.6
			c-0.2-0.2-0.4-0.5-0.5-0.7c-0.7,0.8-1.2,0.2-1.3-0.6c-0.3-1.5,0-2.9-1.4-3.6c-1-0.5-2.1-0.8-3.1-1.3c-1.7-0.7-3.4-1.4-5.1-2.1
			c0,0,1.4-1.8,1.5-2c0.8-1.1,1.4-1.9,2.7-1.3c1.7,0.7,3.3,1.4,5,2.1c0.8,0.3,1.7,0.7,2.3,1.3C231.6,159.2,231.9,159.9,232.1,160.6z
			"/>
		<path fill="#E8B59B" d="M226.7,157.8c-0.3-0.1-0.7-0.1-1-0.1c-0.3,0-0.7-0.3-1-0.3c0.3,0,0.6,0.2,0.8,0.4c0.5,0.4,1.2,0.6,1.8,0.9
			c0.6,0.3,2.4,1.9,1.4,2.6c-0.9,0.6-2.1-0.1-2.8-0.5c-1.2-0.7-2.9-0.5-4.3-0.6c-3.7-0.4-6.4-2.8-9.2-4.8l4-3.3l11.8,1.3
			c0.9,0.7,1.8,1.5,2.7,2.2c1.2,1,2.2,2.1,3.1,3.4c0.3,0.5,0.3,1.2,0.4,1.8c0.1,0.8,0.1,1.6,0.2,2.5c0.1,0.6,0.6,2.6-0.4,3
			c-0.6,0.2-1.1-0.6-1.2-1c-0.3-1.3-0.2-3.3-1-4.3C230.8,159.4,228.5,158.3,226.7,157.8z"/>
		<path fill="#D3A28F" d="M226.7,157.8c-0.3-0.1-0.7-0.1-1-0.1c-0.3,0-0.7-0.3-1-0.3c0.3,0,0.6,0.2,0.8,0.4c0.5,0.4,1.2,0.6,1.8,0.9
			c0.6,0.3,2.4,1.9,1.4,2.6c-0.9,0.6-2.1-0.1-2.8-0.5c-1.2-0.7-2.9-0.5-4.3-0.6c-3.7-0.4-6.4-2.8-9.2-4.8l4-3.3l11.8,1.3
			c0.9,0.7,1.8,1.5,2.7,2.2c1.2,1,2.2,2.1,3.1,3.4c0.3,0.5,0.3,1.2,0.4,1.8c0.1,0.8,0.1,1.6,0.2,2.5c0.1,0.6,0.6,2.6-0.4,3
			c-0.6,0.2-1.1-0.6-1.2-1c-0.3-1.3-0.2-3.3-1-4.3C230.8,159.4,228.5,158.3,226.7,157.8z"/>
	</g>
	<path fill="#2C3480" d="M218.6,151.4c-1.2,4.4-3.6,8.3-5.4,12.6c-9.2-3.7-18.4-7.7-27.4-11.8c-4.6-2.1-9.5-4-13.8-6.7
		c-4.9-3-4.9-9.9-5.6-15.2c-1-8.4-10.5-45.5,5.9-46.8c5.5-0.5,9.6,3.1,11.5,8.1c2.5,6.8-2,38.9,4.6,43.3
		C196.6,140.2,218.8,150.8,218.6,151.4z"/>
	<path fill="#E5AB99" d="M179.7,63.5c0,0-3.8,8.5-6.5,10.5c-2.7,2-17.5-3.1-17.5-3.1s5.3-13.7,4.6-15.9c-0.7-2.2,3.7-4.1,3.7-4.1
		L179.7,63.5z"/>
	<path fill="#FFFFFF" d="M177.1,69.5c0.6,1.7,1.4,4.2,2.3,7.4c3.3,11.7,4.3,20.8,4.6,23.3c0.3,2.9,0.6,7,0.7,11.9
		c-8.5-11.3-16.2-17.4-20.4-23.1c-5.5-7.4-9.2-13.5-9.6-15.5c-0.4-2,0.1-4.1,2.1-6.1c5.1-4.9,16.4,3.9,16.4,3.9L177.1,69.5z"/>
	<polygon fill="#FFFFFF" points="159.1,61.3 177.1,69.5 173.5,77.3 155.7,68.3 	"/>
	<path fill="#2C3480" d="M142,155c-0.6,9.5-1.7,18.4-3,26.5l52.4-6.7c-3.9-15.2-6.8-17.2-6.8-24.1c0-1.6,0-3.1,0-4.6
		c0.4-30.7,3.5-40.7-2.8-53c-5-9.8-11.9-16.2-16.8-20l-9.4-4.7L148,86.4c-4.5,10.6-6.7,22-6,33.5c0,0.1,0,0.2,0,0.2
		c0.4,6.4,0.6,13.2,0.5,20.3C142.5,145.4,142.2,150.3,142,155z"/>
	<path fill="#2B3075" d="M157.8,63.7c0,0,19,17.2,26,33.1c-12.4-12.4-17.4-12.4-17.4-12.4v-8.7l-5.2,4.4l-5.5-11.8L157.8,63.7z"/>
	<path fill="#DEA890" d="M204.5,151.9l8,2l6.8,1.9c0.7,0.2,1.2,0.6,1.7,1.2c1.7,2.1,3.6,3.8,5,6.2c1,1.6,1.3,2.5-0.8,2.8
		c-1.4,0.2-2.5-0.5-3.2-1.9c0.3,0.5,0.6,1.2,0.3,1.8c-0.5,1.3-1.5,0.3-2-0.1c-1.2-1-2.4-1.9-3.6-2.9c-0.7-0.6-1.6-0.9-2.5-0.8
		l-6.5,0.7c-0.8,0.1-1.6-0.1-2.3-0.5l-4.7-2.7L204.5,151.9z"/>
	<path fill="#2B3075" d="M207.6,150.6c-0.5,4.6-2.2,8.7-3.3,13.2c-4.2-1-44.4-10.6-46.4-13.1c-2.3-3-2.7-7.9-3.2-11.5
		c-0.8-6.2-1.2-12.4-1.5-18.6c-0.2-6.1-0.4-12.1-0.3-18.2c0-3-0.7-7.2,0.2-10.1c0.4-1.4,1.6-3,2.8-3.9c1.4-1.1,3.1-1.7,4.8-2.3
		c5.7-1.9,10.4,1.2,13.2,6c3.6,6.3,1.4,10.5,0.5,17.1c-0.8,5.5-6.3,26.5,0.9,29.7C184.1,143,207.6,150,207.6,150.6z"/>
	<path fill="#F6D0BE" d="M136,44.4c0.6,0.1,0.7,0.9,0.5,1.4c-0.2,0.5-0.6,1-0.8,1.5c-0.2,0.6,0,1.2-0.1,1.8
		c-0.2,1.3-1.4,2.3-2.7,2.5c-1.3,0.2-2.6-0.1-3.9-0.5c-4.8-1.6-9.4-4.1-12.3-8.2c-2.6-3.7-3.4-8.4-3.9-12.9
		c-0.3-2.8-0.6-5.6,0.1-8.3c0.2-0.8,0.5-1.6,0.9-2.3c3.4-6.7,11-7.5,17.3-5.1c6.1,2.3,9.9,9.3,8.4,15.6c-0.2,0.7-0.5,1.4-0.7,2.2
		c-0.3,1.6,0.7,3.1,1.4,4.5c0.5,0.9,1.9,3.5,0.5,4.2c-0.7,0.4-1.5,0-2.2,0.6c-0.6,0.6-0.9,1.5-0.9,2.3c0,0.1,0,0.3-0.1,0.4
		C137.5,44.2,136.3,44.4,136,44.4z"/>
	<path fill="#E9B69C" d="M247.4,50.4c0.6,0.1,0.7,1,0.5,1.5c-0.2,0.6-0.7,1-0.8,1.6c-0.2,0.6,0,1.3-0.1,1.9
		c-0.2,1.4-1.5,2.4-2.9,2.6c-1.4,0.2-2.8-0.1-4.1-0.6c-5.1-1.7-10.1-4.3-13.1-8.7c-2.7-4-3.6-9-4.2-13.8c-0.4-3-0.6-6,0.1-8.9
		c0.2-0.8,0.5-1.7,0.9-2.4c3.6-7.1,11.8-8,18.5-5.5c6.5,2.4,10.5,9.9,9,16.6c-0.2,0.8-0.6,1.5-0.7,2.3c-0.3,1.7,0.7,3.3,1.5,4.8
		c0.5,1,2,3.7,0.5,4.4c-0.8,0.4-1.6,0-2.4,0.7c-0.6,0.6-0.9,1.6-1,2.4c0,0.1,0,0.3-0.1,0.4C249,50.2,247.7,50.4,247.4,50.4z"/>
	<path fill="#E9B69C" d="M164.2,54.3c1.4,1.3,2.3,3.4,4,4.4c0.9,0.5,0.8,0.9,4,3.3c0.9,0.7,2.1,0.9,3.2,1.3c2.4,0.7,4.8,1.4,7.2,2.1
		c0.6,0.2,1.3,0.4,1.9,0.3c1.3-0.1,2.4-1.2,3.1-2.3c0.1-0.2,0.3-0.4,0.3-0.6c0.2-0.9-1-1.8-0.7-2.7c0.2-0.4,0.7-0.7,0.9-1.1
		c0.4-0.6,0.1-1.3-0.1-2c0.6,0.1,1-0.5,1.1-1.1c0.1-0.6,0-1.2,0.3-1.7c0.4-0.8,1.5-1,2.4-1.3c0.3-0.1,0.5-0.5,0.4-0.9
		c-0.5-1.3-1.1-2.4-1.9-3.5c-0.7-1-1.6-2-1.5-3.2c0.1-0.7,0.5-1.4,0.7-2.1c0.4-1.5-0.5-3.1-0.8-4.6c-0.2-1.2-0.2-2.4-0.3-3.6
		c-0.1-1.2-0.4-2.5-1.3-3.3c-2.6-2.4-3.7-5.3-6.9-6.8c-5.6-2.7-12.4-1.8-17.9,1.2c-1.7,0.9-3.3,2-4.5,3.5c-0.9,1.2-1.6,2.6-2.1,4
		c-1.1,3.2-1.3,6.6-0.5,9.9c0.8,3.2,2.7,6.2,5.3,8.3C161.9,52.7,163.2,53.4,164.2,54.3z"/>
	<path fill="#443250" d="M159.1,57.5c-0.4-0.8-0.9-1.5-1.2-2.4c-1.1-3-2.1-6-2.9-9.1c-0.8-3.2-1.5-6.4-1.4-9.6
		c0.1-3.3,0.9-6.6,2.8-9.2c1.8-2.5,4.6-4.3,7.5-5.3c2.9-1,6.1-1.2,9.2-1.1c2.3,0.1,4.7,0.5,7,1.1c1,0.3,2.4,0.5,3.3,1.1
		c0.9,0.6,1.4,1.4,2.5,1.8c1.3,0.5,2.7,0.8,4.1,0.7c0.2,0,0.5,0,0.6,0.1c0.3,0.2,0.2,0.7,0,1c-2.5,6.2-10.9,5.7-13.2,12.2
		c-0.5,1.5-0.7,3.1-0.9,4.6c-0.2,1.5-0.8,3.1-0.9,4.6c-0.1,1,0.5,2.2-0.5,2.8c-0.5,0.3-2.4-0.5-2.4-0.7c0-1.4-0.1-2.8-0.4-4.1
		c-0.4-1.3-1.1-2.6-2.3-3.3c-1.2-0.7-2.9-0.7-3.9,0.3c-1.2,1.1-1.1,3-0.8,4.7c0.4,2.4,1.6,5,4.2,5.5c-1,0.3-1.6,1.3-1.9,2.3
		c-0.1,0.2-0.2,0.5-0.4,0.7c-0.2,0.1-0.4,0.1-0.6,0.1c-3.3-0.1-4.6,1-6.7,3.4C159.8,58.9,159.4,58.2,159.1,57.5z"/>
	<path fill="#443250" d="M233.7,37.7c-0.1-0.4-0.3-0.8-0.4-1.2c-0.6-1.2-1.7-2.2-3.1-2.2c-1.9,0-3.3,1.9-3.4,3.7
		c-0.1,1.9,0.7,3.6,1.5,5.3c-1,2.2-2,4.3-2.9,6.5c-0.9,0-3-3.1-3.5-3.8c-2.4-3.2-5.2-8.4-5.6-12.5c0-0.3-0.1-0.7-0.4-0.8
		c-0.1,0-0.3,0-0.5,0c-1,0.1-1.9-0.7-2.6-1.5c-0.2-0.3-0.5-0.5-0.7-0.8c-1.6-2.8,0.6-8.3,2.7-10.3c1.9-1.8,4.7-2.7,7.3-2.5
		c1.2,0.1,2.2,0.8,3.3,0.9c1.3,0.1,2.7-0.9,3.8-1.3c5.5-2.1,11.9-0.7,16.4,3c2.4,2,4.2,3.8,5.1,6.9c0.6-0.2,1.3,0.1,1.8,0.6
		c0.4,0.5,0.7,1.1,0.8,1.8c0.6,2.1,0.6,4.4,0.1,6.5c-0.1,0.3-5.6,1-6.2,1.2c0.6-1.7-0.5-4.4-2-5.3c-2.5-1.6-4.4,1.3-6.1,2.7
		c-1.1,0.9-5.1,4.2-4.9,5.9C234,39.5,233.9,38.5,233.7,37.7z"/>
	<path fill="#443250" d="M103.8,36.1c-0.3-1.9,0-3.8,0.3-5.6c0.9-4.9,3.3-10.4,6.8-13.9c3.9-3.8,9.5-5.8,14.9-5.2
		c3.2,0.4,6.3,1.7,8.9,3.6c4.9,3.7,6.2,8.5,5.6,14.3c-1.6-0.1-3.3,0-4.9,0.2c0.2-1.4,0.1-2.9-0.4-4.3c-0.5,1.6-0.9,3.2-1.1,4.9
		c-1.7,0.1-3.4,0.6-5,1.3c-0.1,0-0.9-2.9-1.7-2.8c-0.9,0.1-2.1,2.9-2.4,3.6c-1.4,2.7-2.1,5.7-2.5,8.7c-0.5,4.6-0.3,9.8,0.3,13.7
		C120.5,54,105.3,47.8,103.8,36.1z"/>
</g>
</svg>
