<?xml version="1.0" encoding="utf-8"?>
<!-- Generator: Adobe Illustrator 18.0.0, SVG Export Plug-In . SVG Version: 6.00 Build 0)  -->
<!DOCTYPE svg PUBLIC "-//W3C//DTD SVG 1.1//EN" "http://www.w3.org/Graphics/SVG/1.1/DTD/svg11.dtd">
<svg version="1.1" id="Layer_1" xmlns="http://www.w3.org/2000/svg" xmlns:xlink="http://www.w3.org/1999/xlink" x="0px" y="0px"
	 viewBox="0 0 165.5 41" enable-background="new 0 0 165.5 41" xml:space="preserve">
<g>
	<g>
		<g>
			<path fill="#FFFFFF" d="M99.9,33.7c-0.3,0-0.4-0.1-0.4-0.3l-7.8-17.4l0.2-0.1c0.1-0.1,2.2-1.6,2.4-1.7l0.2-0.2l5.3,11.7
				l10.1-20.5c1-2.1,3.5-2.4,5.2-2.4c0.8,0,1.5,0.1,2.2,0.1l0.4,0c0.5,0,0.5,0.3,0.5,0.4l-0.2,1c-0.1,0.5-0.3,0.5-0.5,0.5l-0.1,0
				l-3.6,0.3c-0.4,0.1-1.1,0.3-1.4,1.2l-10.7,27c-0.1,0.2-0.2,0.3-0.4,0.3H99.9z"/>
		</g>
		<g>
			<polygon fill="#FFFFFF" points="80.9,33.6 80.9,19.2 84.5,18.2 84.5,33.6 			"/>
		</g>
		<g>
			<path fill="#FFFFFF" d="M69.7,34.1c-0.7,0-1.4-0.1-2.1-0.3c-0.8-0.3-1.4-0.7-2-1.3C64.9,31.9,64.4,31,64,30
				c-0.4-1.1-0.6-2.4-0.6-3.9l0-13.5l3.5,2.9v10c0,1.2,0.1,2.1,0.4,2.9c0.2,0.8,0.7,1.4,1.2,1.9c0.6,0.5,1.3,0.7,2.3,0.7
				c0.7,0,1.3-0.2,1.9-0.4c0.6-0.3,1-0.7,1.4-1.1c0.4-0.4,0.7-0.9,0.9-1.4c0.1-0.3,0.2-0.5,0.2-0.8c0.1-0.3,0.1-0.6,0.1-0.9v-7.8
				l3.5,0.3v9.5c0,0.9,0,1.8,0,2.6c0,0.8,0.1,1.5,0.1,2.3l0,0.2h-3.2l-0.2-2.7c-0.2,0.3-0.4,0.6-0.7,0.9c-0.4,0.4-0.8,0.8-1.3,1.1
				c-0.5,0.3-1.1,0.6-1.7,0.8C71.3,33.9,70.6,34.1,69.7,34.1L69.7,34.1z"/>
		</g>
		<path fill="#FFFFFF" d="M121.9,40l1-2.3l0.1,0c0.6,0,1,0,1.3,0c0.8,0,1.2,0,2.5-0.1c2.7-0.1,4.2-1,5.2-5.3l0.4-1.9
			c-1.3,2-3.1,3-5.3,3c-3.4,0-4.9-2.9-4.9-5.6c0-3,1.1-5.8,3.2-7.9c1.9-1.9,4.3-2.9,6.9-2.9c2,0,4,0.6,5.1,1.1l0.1,0l0,0.1l-2.4,13
			c-1.2,7.5-5.5,8.6-8,8.6L121.9,40z M131.7,19.6c-3.9,0-6.5,4.1-6.5,7.9c0,1.1,0.3,3.6,2.9,3.6c2.2,0,4.5-2.7,5.1-5.9l1-5.1
			C133.7,19.8,132.7,19.6,131.7,19.6z"/>
		<path fill="#FFFFFF" d="M142.1,33.9c-2.7,0-4.6-2.2-4.6-5.3c0-5.6,4.1-11.4,11-11.4c1.5,0,3.1,0.2,4.3,0.6l0.1,0l0,0.1l-1.6,8.2
			c-0.5,2.5-0.7,5.4-0.7,7.2l0,0.1l-0.1,0h-2.7v-0.1c0-0.9,0.1-2.2,0.3-3.6C146.5,32.5,144.5,33.9,142.1,33.9z M147.8,19.6
			c-3.8,0-7.2,4-7.3,8.5c0,1.2,0.3,3.3,2.6,3.3c2,0,4.7-2.7,5.5-7l0.9-4.6C149.1,19.7,148.5,19.6,147.8,19.6z"/>
		<path fill="#FFFFFF" d="M157,33.6c-1.8,0-3.3-0.6-4-1.1l-0.1,0l0-0.1l0.8-2.2l0.1,0.1c0.8,0.5,2.1,1,3.3,1c1.7,0,2.9-1,2.9-2.4
			c0-1.2-0.6-1.9-2.1-2.8c-1.9-1-2.9-2.5-2.9-4.1c0-2.9,2.5-5,5.8-5c1.5,0,2.8,0.4,3.4,0.8l0.1,0l0,0.1l-0.8,2.2l-0.1-0.1
			c-0.3-0.2-1.3-0.7-2.7-0.7c-1.5,0-2.7,0.9-2.7,2.2c0,1.1,0.8,1.8,2.1,2.5c2,1.2,3,2.6,3,4.2C163.2,31.5,160.7,33.6,157,33.6z"/>
		<g>
			<path fill="#FFFFFF" d="M57.3,40c-2.4,0-2.9-0.4-4.3-1.7c-0.7-0.6-1-1-1.2-1.2c-0.4-0.4-0.4-0.4-1.4-1.4L49.7,35c0,0-0.3,0-0.8,0
				c-0.1,0-0.2,0-0.3,0c-0.1,0-0.2,0-0.4,0c-0.5,0-1,0-1.6-0.1c-3.8-0.6-6.7-2.6-8.8-6c-2.1-3.4-2.9-7.3-2.3-11.8
				c0.5-4.5,2.2-8.2,4.9-10.7c2.2-2.1,4.8-3.2,7.8-3.2c0.7,0,1.4,0.1,2.1,0.2c3.8,0.6,6.7,2.6,8.7,6c1.8,3.1,2.5,6.7,2.4,11.7
				c-0.3,8.2-6.8,12.2-8.3,13c0.4,0.5,2.1,2.4,2.8,2.9c0.6,0.5,1.3,0.5,2,0.5l0.4,0c0.3,0,0.4,0,0.5,0l0.2,0c0.2,0,0.5,0,1.5,0
				c0,0,0,0,0,0c0.3,0,0.6,0.1,1.2,0.9l0.2,0.2c1,1.2,1,1.3,1,1.4l0,0.1l-0.1,0c-0.1,0-0.3,0-0.7,0L57.3,40z M49.2,5.7
				c-2.3,0-4.4,1.3-5.4,2.6c-1.7,2.1-2.7,4.9-3.1,8.3c-0.3,2.5-0.2,4.8,0.3,7c0.5,2.4,1.4,4.5,2.8,6.1c1.3,1.6,2.1,2.3,4,2.6
				c0.5,0.1,1,0.1,1.4,0.1c2,0,3.6-0.9,5-2.8c1.5-2.1,2.5-4.9,2.9-8.4c0.5-4.2,0.1-7.6-1.3-10.4C53.7,6.6,51,5.7,49.2,5.7z"/>
		</g>
		<path fill="#FFFFFF" d="M111.2,33.9c-2.7,0-4.6-2.2-4.6-5.3c0-5.6,4.1-11.4,11-11.4c1.5,0,3.1,0.2,4.3,0.6l0.1,0l0,0.1l-1.6,8.2
			c-0.5,2.5-0.7,5.4-0.7,7.2l0,0.1l-0.1,0h-2.7v-0.1c0-0.8,0.1-2.1,0.3-3.6C115.6,32.6,113.6,33.9,111.2,33.9z M116.9,19.6
			c-3.8,0-7.2,4-7.3,8.5c0,1.2,0.3,3.3,2.6,3.3c2,0,4.7-2.7,5.5-7l0.9-4.6C118.3,19.8,117.7,19.6,116.9,19.6z"/>
	</g>
	<g>
		<path fill="#FFFFFF" d="M15.1,17.2c0.1,0.8,1,2,1,2S14.6,31,14.8,32c0.3,1.2,2,2.9,2,2.9s1.1-1.3,1.5-3c0.5-1.7-1.7-12.7-1.7-12.7
			s0.7-1.2,0.7-2c0.1-0.8-0.5-2-1.2-2C15.4,15.3,15.1,16.7,15.1,17.2z"/>
		<path fill="#FFFFFF" d="M12.8,1.5c0,0-3.4,4.9,0.3,9.4c0,0,1.8,2.2,4.8,0.8c0,0,2.5-1.1,3.2-4.6c0,0,4.1-0.1,6.2,1.2
			c0,0,4.2,2.1,3,6.6c0,0-0.5,2.6-4,6.3c0,0-0.4-2.5-4.2-5.8c0,0-5.4-4.5-11.7,0.4c0,0-4.5,2.9-4.3,10.2v8.7c0,0-0.1,1.9,1.4,2
			c0,0,0.4,1.6-1.5,1.6c0,0-1.5,0-1.5-1.8v-5.2c0,0-3.3-0.7-4.3-3.8c0,0-2.2-5.5,5.4-13c0,0,2.6-2.5,5.3-4c0,0-0.5-0.7-0.8-2.3
			C10.2,8.2,9.2,4.3,12.8,1.5z"/>
		<path fill="#FFFFFF" d="M9.3,36.4c0,0,0.3-0.6,0.5-1.3c0,0,0.1-0.6,0.1-1v-5.9c0,0-0.1-0.7,0.7-0.6c0,0,0.4,0,0.4,0.7v6
			c0,0-0.3,3.8,3.3,4.3c0,0,4.4,0.9,7.3-0.6c0,0-1,2.8-7.6,2.3c0,0-4.7-0.5-4.7-3.7"/>
		<path fill="#FFFFFF" d="M23.1,36.7c0,0,0.5-0.5,0.5-1.2l0-7.3c0,0-0.1-0.4,0.4-0.5c0,0,0.5-0.1,0.6,0.5l0,7.1c0,0,0,1.4,1.3,1.6
			c0,0,0.1,1.7-1.7,1.5C24.2,38.4,22.8,38.2,23.1,36.7z"/>
	</g>
</g>
</svg>
