<?xml version="1.0" encoding="utf-8"?>
<!-- Generator: Adobe Illustrator 18.0.0, SVG Export Plug-In . SVG Version: 6.00 Build 0)  -->
<!DOCTYPE svg PUBLIC "-//W3C//DTD SVG 1.1//EN" "http://www.w3.org/Graphics/SVG/1.1/DTD/svg11.dtd">
<svg version="1.1" id="Layer_1" xmlns="http://www.w3.org/2000/svg" xmlns:xlink="http://www.w3.org/1999/xlink" x="0px" y="0px"
	 viewBox="0 0 385 450" enable-background="new 0 0 385 450" xml:space="preserve">
<g>
	<path fill="#4956BD" d="M18,29.3h327c6.6,0,12,5.4,12,12v391.5c0,6.6-5.4,12-12,12H18c-6.6,0-12-5.4-12-12L6,41.3
		C6,34.7,11.4,29.3,18,29.3z"/>
	<path fill="#F2F2F2" d="M40,5.2h327c6.6,0,12,5.4,12,12v391.5c0,6.6-5.4,12-12,12H40c-6.6,0-12-5.4-12-12V17.2
		C28,10.6,33.4,5.2,40,5.2z"/>
	<g>
		<path fill="#F2F2F2" d="M108.8,263.2h7.7V261h-7.7c-1.2,0-2.2,1-2.2,2.2v7.7h2.2V263.2z"/>
		<path fill="#F2F2F2" d="M126.3,261h-7.7v2.2h7.7v7.7h2.2v-7.7C128.5,262,127.5,261,126.3,261z"/>
		<path fill="#F2F2F2" d="M126.3,280.9h-7.7v2.2h7.7c1.2,0,2.2-1,2.2-2.2v-7.7h-2.2V280.9z"/>
		<path fill="#F2F2F2" d="M108.8,273.2h-2.2v7.7c0,1.2,1,2.2,2.2,2.2h7.7v-2.2h-7.7V273.2z"/>
	</g>
	<g>
		<path fill="#F2F2F2" d="M108.8,298.7h7.7v-2.2h-7.7c-1.2,0-2.2,1-2.2,2.2v7.7h2.2V298.7z"/>
		<path fill="#F2F2F2" d="M126.3,296.5h-7.7v2.2h7.7v7.7h2.2v-7.7C128.5,297.5,127.5,296.5,126.3,296.5z"/>
		<path fill="#F2F2F2" d="M126.3,316.4h-7.7v2.2h7.7c1.2,0,2.2-1,2.2-2.2v-7.7h-2.2V316.4z"/>
		<path fill="#F2F2F2" d="M108.8,308.7h-2.2v7.7c0,1.2,1,2.2,2.2,2.2h7.7v-2.2h-7.7V308.7z"/>
	</g>
	<g>
		<g>
			<g>
				<path fill="#4956BD" d="M108.7,156.7h7.7v-2.2h-7.7c-1.2,0-2.2,1-2.2,2.2v7.7h2.2V156.7z"/>
				<path fill="#4956BD" d="M126.2,154.5h-7.7v2.2h7.7v7.7h2.2v-7.7C128.4,155.5,127.4,154.5,126.2,154.5z"/>
				<path fill="#4956BD" d="M126.2,174.4h-7.7v2.2h7.7c1.2,0,2.2-1,2.2-2.2v-7.7h-2.2V174.4z"/>
				<path fill="#4956BD" d="M108.7,166.7h-2.2v7.7c0,1.2,1,2.2,2.2,2.2h7.7v-2.2h-7.7V166.7z"/>
			</g>
			<g>
				<polygon fill="#4956BD" points="110.8,163.1 113.7,160.2 119.7,166.3 131.9,154 134.6,156.8 119.6,171.9 				"/>
			</g>
		</g>
	</g>
	<g>
		<g>
			<g>
				<path fill="#4956BD" d="M108.7,192.2h7.7V190h-7.7c-1.2,0-2.2,1-2.2,2.2v7.7h2.2V192.2z"/>
				<path fill="#4956BD" d="M126.2,190h-7.7v2.2h7.7v7.7h2.2v-7.7C128.4,191,127.4,190,126.2,190z"/>
				<path fill="#4956BD" d="M126.2,209.9h-7.7v2.2h7.7c1.2,0,2.2-1,2.2-2.2v-7.7h-2.2V209.9z"/>
				<path fill="#4956BD" d="M108.7,202.2h-2.2v7.7c0,1.2,1,2.2,2.2,2.2h7.7v-2.2h-7.7V202.2z"/>
			</g>
			<g>
				<polygon fill="#4956BD" points="110.8,198.6 113.7,195.7 119.7,201.8 131.9,189.5 134.6,192.3 119.6,207.4 				"/>
			</g>
		</g>
	</g>
	<g>
		<g>
			<g>
				<path fill="#4956BD" d="M108.7,227.7h7.7v-2.2h-7.7c-1.2,0-2.2,1-2.2,2.2v7.7h2.2V227.7z"/>
				<path fill="#4956BD" d="M126.2,225.5h-7.7v2.2h7.7v7.7h2.2v-7.7C128.4,226.5,127.4,225.5,126.2,225.5z"/>
				<path fill="#4956BD" d="M126.2,245.4h-7.7v2.2h7.7c1.2,0,2.2-1,2.2-2.2v-7.7h-2.2V245.4z"/>
				<path fill="#4956BD" d="M108.7,237.7h-2.2v7.7c0,1.2,1,2.2,2.2,2.2h7.7v-2.2h-7.7V237.7z"/>
			</g>
			<g>
				<polygon fill="#4956BD" points="110.8,234.1 113.7,231.2 119.7,237.3 131.9,225 134.6,227.8 119.6,242.9 				"/>
			</g>
		</g>
	</g>
	<g>
		<path fill="#E6E6E6" d="M298.5,177.5H142.9c-1.1,0-2-0.9-2-2v-5.8c0-1.1,0.9-2,2-2h155.6c1.1,0,2,0.9,2,2v5.8
			C300.5,176.6,299.6,177.5,298.5,177.5z"/>
		<path fill="#E6E6E6" d="M298.5,164.3H142.9c-1.1,0-2-0.9-2-2v-5.8c0-1.1,0.9-2,2-2h155.6c1.1,0,2,0.9,2,2v5.8
			C300.5,163.4,299.6,164.3,298.5,164.3z"/>
		<path fill="#E6E6E6" d="M298.5,213H142.9c-1.1,0-2-0.9-2-2v-5.8c0-1.1,0.9-2,2-2h155.6c1.1,0,2,0.9,2,2v5.8
			C300.5,212.1,299.6,213,298.5,213z"/>
		<path fill="#E6E6E6" d="M298.5,199.8H142.9c-1.1,0-2-0.9-2-2V192c0-1.1,0.9-2,2-2h155.6c1.1,0,2,0.9,2,2v5.8
			C300.5,198.9,299.6,199.8,298.5,199.8z"/>
		<path fill="#E6E6E6" d="M298.5,248.5H142.9c-1.1,0-2-0.9-2-2v-5.8c0-1.1,0.9-2,2-2h155.6c1.1,0,2,0.9,2,2v5.8
			C300.5,247.6,299.6,248.5,298.5,248.5z"/>
		<path fill="#E6E6E6" d="M298.5,235.3H142.9c-1.1,0-2-0.9-2-2v-5.8c0-1.1,0.9-2,2-2h155.6c1.1,0,2,0.9,2,2v5.8
			C300.5,234.4,299.6,235.3,298.5,235.3z"/>
		<path fill="#E6E6E6" d="M298.5,284H142.9c-1.1,0-2-0.9-2-2v-5.8c0-1.1,0.9-2,2-2h155.6c1.1,0,2,0.9,2,2v5.8
			C300.5,283.1,299.6,284,298.5,284z"/>
		<path fill="#E6E6E6" d="M298.5,270.8H142.9c-1.1,0-2-0.9-2-2V263c0-1.1,0.9-2,2-2h155.6c1.1,0,2,0.9,2,2v5.8
			C300.5,269.9,299.6,270.8,298.5,270.8z"/>
		<path fill="#E6E6E6" d="M298.5,319.5H142.9c-1.1,0-2-0.9-2-2v-5.8c0-1.1,0.9-2,2-2h155.6c1.1,0,2,0.9,2,2v5.8
			C300.5,318.6,299.6,319.5,298.5,319.5z"/>
		<path fill="#E6E6E6" d="M298.5,306.3H142.9c-1.1,0-2-0.9-2-2v-5.8c0-1.1,0.9-2,2-2h155.6c1.1,0,2,0.9,2,2v5.8
			C300.5,305.4,299.6,306.3,298.5,306.3z"/>
	</g>
	<path fill="#4956BD" d="M261.2,80.2h15.3v-4.4h-15.3c-2.4,0-4.4,2-4.4,4.4v15.3h4.4V80.2z M274.3,99.8l-8.7,10.9h26.1l-6.5-8.7
		l-4.4,5.9L274.3,99.8z M289.6,90c0-1.8-1.5-3.3-3.3-3.3c-1.8,0-3.3,1.5-3.3,3.3c0,1.8,1.5,3.3,3.3,3.3
		C288.1,93.3,289.6,91.9,289.6,90z M296.1,75.9h-15.3v4.4h15.3v15.3h4.4V80.2C300.5,77.8,298.5,75.9,296.1,75.9z M296.1,115.1h-15.3
		v4.4h15.3c2.4,0,4.4-2,4.4-4.4V99.8h-4.4V115.1z M261.2,99.8h-4.4v15.3c0,2.4,2,4.4,4.4,4.4h15.3v-4.4h-15.3V99.8z"/>
</g>
</svg>
