<?xml version="1.0" encoding="utf-8"?>
<!-- Generator: Adobe Illustrator 18.0.0, SVG Export Plug-In . SVG Version: 6.00 Build 0)  -->
<!DOCTYPE svg PUBLIC "-//W3C//DTD SVG 1.1//EN" "http://www.w3.org/Graphics/SVG/1.1/DTD/svg11.dtd">
<svg version="1.1" id="Layer_1" xmlns="http://www.w3.org/2000/svg" xmlns:xlink="http://www.w3.org/1999/xlink" x="0px" y="0px"
	 viewBox="0 0 385 450" enable-background="new 0 0 385 450" xml:space="preserve">
<g>
	<path fill="#4956BD" d="M367.7,29.3h-327c-6.6,0-12,5.4-12,12v391.5c0,6.6,5.4,12,12,12h327c6.6,0,12-5.4,12-12V41.3
		C379.7,34.7,374.3,29.3,367.7,29.3z"/>
	<path fill="#FFFFFF" d="M344.3,5.2h-327c-6.6,0-12,5.4-12,12v391.5c0,6.6,5.4,12,12,12h327c6.6,0,12-5.4,12-12V17.2
		C356.3,10.6,350.9,5.2,344.3,5.2z"/>
	<g>
		<path fill="#CCCCCC" d="M235,38.9c0-0.7,0.1-1.3,0.4-2c0.2-0.7,0.6-1.3,1-1.8c0.5-0.5,1-1,1.7-1.3c0.7-0.3,1.4-0.5,2.2-0.5
			c1,0,1.8,0.2,2.6,0.7c0.7,0.5,1.2,1,1.6,1.8l-0.7,0.4c-0.2-0.4-0.4-0.7-0.7-1c-0.3-0.3-0.6-0.5-0.9-0.6s-0.6-0.3-1-0.4
			c-0.3-0.1-0.7-0.1-1-0.1c-0.7,0-1.3,0.1-1.9,0.4c-0.5,0.3-1,0.7-1.4,1.1c-0.4,0.5-0.7,1-0.9,1.6c-0.2,0.6-0.3,1.2-0.3,1.8
			c0,0.7,0.1,1.3,0.3,1.9c0.2,0.6,0.5,1.1,0.9,1.6c0.4,0.5,0.9,0.8,1.4,1.1s1.1,0.4,1.8,0.4c0.3,0,0.7,0,1-0.1
			c0.4-0.1,0.7-0.2,1-0.4c0.3-0.2,0.6-0.4,0.9-0.7c0.3-0.3,0.5-0.6,0.7-1l0.7,0.3c-0.2,0.4-0.4,0.8-0.8,1.1
			c-0.3,0.3-0.7,0.6-1.1,0.8c-0.4,0.2-0.8,0.4-1.3,0.5s-0.9,0.2-1.3,0.2c-0.8,0-1.5-0.2-2.1-0.5c-0.6-0.3-1.2-0.8-1.6-1.3
			c-0.5-0.5-0.8-1.2-1.1-1.8C235.1,40.4,235,39.7,235,38.9z"/>
		<path fill="#CCCCCC" d="M251.1,44c0.8,0,1.4-0.1,1.9-0.4c0.5-0.3,0.9-0.7,1.2-1.1c0.3-0.5,0.5-1,0.6-1.6c0.1-0.6,0.2-1.2,0.2-1.8
			v-5.6h0.8v5.6c0,0.7-0.1,1.5-0.2,2.1c-0.2,0.7-0.4,1.3-0.8,1.8c-0.4,0.5-0.8,0.9-1.4,1.2s-1.3,0.5-2.2,0.5c-0.9,0-1.6-0.2-2.2-0.5
			c-0.6-0.3-1.1-0.7-1.4-1.3s-0.6-1.1-0.8-1.8c-0.2-0.7-0.2-1.4-0.2-2.1v-5.6h0.8v5.6c0,0.6,0.1,1.2,0.2,1.8
			c0.1,0.6,0.3,1.1,0.6,1.6c0.3,0.5,0.7,0.8,1.2,1.1C249.7,43.8,250.3,44,251.1,44z"/>
		<path fill="#CCCCCC" d="M258.5,44.6V33.4h4.6c0.5,0,0.9,0.1,1.3,0.3c0.4,0.2,0.7,0.5,1,0.8c0.3,0.3,0.5,0.7,0.7,1.1
			c0.2,0.4,0.2,0.8,0.2,1.3c0,0.4-0.1,0.8-0.2,1.2s-0.3,0.7-0.5,1c-0.2,0.3-0.5,0.6-0.8,0.8c-0.3,0.2-0.7,0.3-1.1,0.4l2.8,4.3h-0.9
			l-2.7-4.2h-3.6v4.2H258.5z M259.3,39.7h3.9c0.4,0,0.7-0.1,1-0.2c0.3-0.2,0.5-0.4,0.8-0.6c0.2-0.3,0.4-0.6,0.5-0.9s0.2-0.7,0.2-1
			c0-0.4-0.1-0.7-0.2-1c-0.1-0.3-0.3-0.6-0.5-0.9c-0.2-0.3-0.5-0.5-0.8-0.6c-0.3-0.2-0.6-0.2-1-0.2h-3.8V39.7z"/>
		<path fill="#CCCCCC" d="M268.7,44.6V33.4h4.6c0.5,0,0.9,0.1,1.3,0.3c0.4,0.2,0.7,0.5,1,0.8c0.3,0.3,0.5,0.7,0.7,1.1
			c0.2,0.4,0.2,0.8,0.2,1.3c0,0.4-0.1,0.8-0.2,1.2s-0.3,0.7-0.5,1c-0.2,0.3-0.5,0.6-0.8,0.8c-0.3,0.2-0.7,0.3-1.1,0.4l2.8,4.3h-0.9
			l-2.7-4.2h-3.6v4.2H268.7z M269.5,39.7h3.9c0.4,0,0.7-0.1,1-0.2c0.3-0.2,0.5-0.4,0.8-0.6c0.2-0.3,0.4-0.6,0.5-0.9s0.2-0.7,0.2-1
			c0-0.4-0.1-0.7-0.2-1c-0.1-0.3-0.3-0.6-0.5-0.9c-0.2-0.3-0.5-0.5-0.8-0.6c-0.3-0.2-0.6-0.2-1-0.2h-3.8V39.7z"/>
		<path fill="#CCCCCC" d="M279.3,31.8l-0.6-0.3l1-1.3h0.9L279.3,31.8z M278.9,44.6V33.4h0.8v11.2H278.9z"/>
		<path fill="#CCCCCC" d="M281.9,38.9c0-0.7,0.1-1.3,0.4-2c0.2-0.7,0.6-1.3,1-1.8c0.5-0.5,1-1,1.7-1.3c0.7-0.3,1.4-0.5,2.2-0.5
			c1,0,1.8,0.2,2.6,0.7c0.7,0.5,1.2,1,1.6,1.8l-0.7,0.4c-0.2-0.4-0.4-0.7-0.7-1c-0.3-0.3-0.6-0.5-0.9-0.6s-0.6-0.3-1-0.4
			c-0.3-0.1-0.7-0.1-1-0.1c-0.7,0-1.3,0.1-1.9,0.4c-0.5,0.3-1,0.7-1.4,1.1c-0.4,0.5-0.7,1-0.9,1.6c-0.2,0.6-0.3,1.2-0.3,1.8
			c0,0.7,0.1,1.3,0.3,1.9c0.2,0.6,0.5,1.1,0.9,1.6c0.4,0.5,0.9,0.8,1.4,1.1s1.1,0.4,1.8,0.4c0.3,0,0.7,0,1-0.1
			c0.4-0.1,0.7-0.2,1-0.4c0.3-0.2,0.6-0.4,0.9-0.7c0.3-0.3,0.5-0.6,0.7-1l0.7,0.3c-0.2,0.4-0.4,0.8-0.8,1.1
			c-0.3,0.3-0.7,0.6-1.1,0.8c-0.4,0.2-0.8,0.4-1.3,0.5s-0.9,0.2-1.3,0.2c-0.8,0-1.5-0.2-2.1-0.5c-0.6-0.3-1.2-0.8-1.6-1.3
			c-0.5-0.5-0.8-1.2-1.1-1.8C282,40.4,281.9,39.7,281.9,38.9z"/>
		<path fill="#CCCCCC" d="M298,44c0.8,0,1.4-0.1,1.9-0.4c0.5-0.3,0.9-0.7,1.2-1.1c0.3-0.5,0.5-1,0.6-1.6c0.1-0.6,0.2-1.2,0.2-1.8
			v-5.6h0.8v5.6c0,0.7-0.1,1.5-0.2,2.1c-0.2,0.7-0.4,1.3-0.8,1.8c-0.4,0.5-0.8,0.9-1.4,1.2s-1.3,0.5-2.2,0.5c-0.9,0-1.6-0.2-2.2-0.5
			c-0.6-0.3-1.1-0.7-1.4-1.3s-0.6-1.1-0.8-1.8c-0.2-0.7-0.2-1.4-0.2-2.1v-5.6h0.8v5.6c0,0.6,0.1,1.2,0.2,1.8
			c0.1,0.6,0.3,1.1,0.6,1.6c0.3,0.5,0.7,0.8,1.2,1.1C296.7,43.8,297.3,44,298,44z"/>
		<path fill="#CCCCCC" d="M305.4,44.6V33.4h0.8v10.5h6.7v0.7H305.4z"/>
		<path fill="#CCCCCC" d="M318.3,44.7c-0.8,0-1.5-0.2-2.1-0.5c-0.6-0.3-1.2-0.8-1.7-1.3s-0.8-1.1-1.1-1.8c-0.3-0.7-0.4-1.4-0.4-2.1
			c0-0.7,0.1-1.5,0.4-2.1c0.3-0.7,0.6-1.3,1.1-1.8c0.5-0.5,1-0.9,1.7-1.3c0.6-0.3,1.3-0.5,2.1-0.5c0.8,0,1.5,0.2,2.1,0.5
			c0.6,0.3,1.2,0.8,1.7,1.3s0.8,1.1,1.1,1.8s0.4,1.4,0.4,2.1c0,0.8-0.1,1.5-0.4,2.2c-0.3,0.7-0.6,1.3-1.1,1.8
			c-0.5,0.5-1,0.9-1.7,1.2S319.1,44.7,318.3,44.7z M313.9,39c0,0.6,0.1,1.3,0.3,1.9c0.2,0.6,0.5,1.1,0.9,1.6
			c0.4,0.5,0.9,0.8,1.4,1.1c0.5,0.3,1.1,0.4,1.8,0.4c0.7,0,1.3-0.1,1.8-0.4c0.5-0.3,1-0.7,1.4-1.1c0.4-0.5,0.7-1,0.9-1.6
			c0.2-0.6,0.3-1.2,0.3-1.8c0-0.6-0.1-1.3-0.3-1.9c-0.2-0.6-0.5-1.1-0.9-1.6c-0.4-0.5-0.9-0.8-1.4-1.1c-0.5-0.3-1.1-0.4-1.8-0.4
			c-0.7,0-1.3,0.1-1.8,0.4s-1,0.7-1.4,1.1c-0.4,0.5-0.7,1-0.9,1.6S313.9,38.4,313.9,39z"/>
	</g>
	<g>
		<path fill="#CCCCCC" d="M65.5,318.4v8.8h-0.6V323h-5.5v4.2h-0.6v-8.8h0.6v4h5.5v-4H65.5z"/>
		<path fill="#CCCCCC" d="M70.6,318.4h0.5l3.7,8.8h-0.7l-1.2-2.9h-4.2l-1.2,2.9h-0.7L70.6,318.4z M72.8,323.8l-1.9-4.6l-2,4.6H72.8z
			"/>
		<path fill="#CCCCCC" d="M82.6,324.9c0,0.3-0.1,0.6-0.2,0.9c-0.1,0.3-0.3,0.5-0.5,0.7c-0.2,0.2-0.5,0.4-0.8,0.5s-0.6,0.2-0.9,0.2
			h-4.1v-8.8h4.1c0.3,0,0.6,0.1,0.8,0.2c0.2,0.1,0.5,0.3,0.6,0.5c0.2,0.2,0.3,0.4,0.4,0.7c0.1,0.3,0.1,0.5,0.1,0.8
			c0,0.4-0.1,0.9-0.3,1.2c-0.2,0.4-0.5,0.6-0.9,0.8c0.5,0.1,0.9,0.4,1.2,0.8C82.5,323.9,82.6,324.4,82.6,324.9z M76.8,319v3.5H80
			c0.2,0,0.5,0,0.7-0.1c0.2-0.1,0.4-0.2,0.5-0.4c0.1-0.2,0.3-0.3,0.3-0.6c0.1-0.2,0.1-0.4,0.1-0.7c0-0.2,0-0.5-0.1-0.7
			c-0.1-0.2-0.2-0.4-0.3-0.6c-0.1-0.2-0.3-0.3-0.5-0.4s-0.4-0.1-0.6-0.1H76.8z M82,324.8c0-0.2,0-0.5-0.1-0.7
			c-0.1-0.2-0.2-0.4-0.3-0.6s-0.3-0.3-0.5-0.4c-0.2-0.1-0.4-0.1-0.6-0.1h-3.6v3.6h3.5c0.2,0,0.5,0,0.7-0.1c0.2-0.1,0.4-0.2,0.5-0.4
			c0.2-0.2,0.3-0.4,0.4-0.6C81.9,325.3,82,325,82,324.8z"/>
		<path fill="#CCCCCC" d="M84.3,327.2v-8.8H85v8.8H84.3z"/>
		<path fill="#CCCCCC" d="M87.3,327.2v-8.8h0.6v8.2h5.2v0.6H87.3z"/>
		<path fill="#CCCCCC" d="M94.4,327.2v-8.8h0.6v8.8H94.4z"/>
		<path fill="#CCCCCC" d="M97.4,327.2v-8.8h2.9c0.7,0,1.3,0.1,1.8,0.3c0.5,0.2,1,0.5,1.3,0.9c0.3,0.4,0.6,0.9,0.8,1.4
			c0.2,0.5,0.3,1.1,0.3,1.7c0,0.7-0.1,1.3-0.3,1.8s-0.5,1-0.8,1.4s-0.8,0.7-1.3,0.9s-1.1,0.3-1.7,0.3H97.4z M103.8,322.8
			c0-0.6-0.1-1.1-0.2-1.5c-0.2-0.5-0.4-0.9-0.7-1.2c-0.3-0.3-0.7-0.6-1.1-0.8c-0.4-0.2-0.9-0.3-1.5-0.3H98v7.6h2.3
			c0.6,0,1.1-0.1,1.5-0.3c0.4-0.2,0.8-0.5,1.1-0.8c0.3-0.3,0.5-0.8,0.7-1.2C103.7,323.8,103.8,323.3,103.8,322.8z"/>
		<path fill="#CCCCCC" d="M108.6,318.4h0.5l3.7,8.8h-0.7l-1.2-2.9h-4.2l-1.2,2.9h-0.7L108.6,318.4z M110.8,323.8l-1.9-4.6l-2,4.6
			H110.8z"/>
		<path fill="#CCCCCC" d="M114.2,327.2v-8.8h2.9c0.7,0,1.3,0.1,1.8,0.3c0.5,0.2,1,0.5,1.3,0.9c0.3,0.4,0.6,0.9,0.8,1.4
			c0.2,0.5,0.3,1.1,0.3,1.7c0,0.7-0.1,1.3-0.3,1.8s-0.5,1-0.8,1.4c-0.4,0.4-0.8,0.7-1.3,0.9s-1.1,0.3-1.7,0.3H114.2z M120.6,322.8
			c0-0.6-0.1-1.1-0.2-1.5c-0.2-0.5-0.4-0.9-0.7-1.2c-0.3-0.3-0.7-0.6-1.1-0.8c-0.4-0.2-0.9-0.3-1.5-0.3h-2.3v7.6h2.3
			c0.6,0,1.1-0.1,1.5-0.3c0.4-0.2,0.8-0.5,1.1-0.8c0.3-0.3,0.5-0.8,0.7-1.2C120.6,323.8,120.6,323.3,120.6,322.8z"/>
		<path fill="#CCCCCC" d="M128.8,326.6v0.6H123v-8.8h5.7v0.6h-5.1v3.4h4.5v0.5h-4.5v3.6H128.8z"/>
		<path fill="#CCCCCC" d="M135.5,319.9c-0.6-0.6-1.4-1-2.4-1c-0.9,0-1.5,0.2-1.9,0.5c-0.4,0.3-0.6,0.8-0.6,1.3c0,0.3,0,0.5,0.1,0.7
			c0.1,0.2,0.3,0.3,0.5,0.5c0.2,0.1,0.5,0.2,0.8,0.3c0.3,0.1,0.7,0.2,1.2,0.3c0.5,0.1,0.9,0.2,1.3,0.3c0.4,0.1,0.7,0.3,1,0.5
			s0.5,0.4,0.6,0.7c0.1,0.3,0.2,0.6,0.2,1c0,0.4-0.1,0.7-0.2,1c-0.2,0.3-0.4,0.5-0.6,0.7c-0.3,0.2-0.6,0.3-1,0.4
			c-0.4,0.1-0.8,0.1-1.3,0.1c-1.4,0-2.5-0.4-3.5-1.3l0.3-0.5c0.4,0.4,0.8,0.7,1.4,0.9c0.5,0.2,1.1,0.3,1.8,0.3
			c0.8,0,1.4-0.1,1.8-0.4c0.4-0.3,0.6-0.7,0.6-1.3c0-0.3-0.1-0.5-0.2-0.7c-0.1-0.2-0.3-0.4-0.5-0.5c-0.2-0.1-0.5-0.3-0.9-0.4
			s-0.7-0.2-1.2-0.3c-0.5-0.1-0.9-0.2-1.2-0.3c-0.4-0.1-0.7-0.3-0.9-0.4c-0.2-0.2-0.4-0.4-0.5-0.6c-0.1-0.2-0.2-0.5-0.2-0.9
			c0-0.4,0.1-0.7,0.2-1s0.4-0.6,0.6-0.8s0.6-0.4,1-0.5c0.4-0.1,0.8-0.2,1.3-0.2c0.6,0,1.1,0.1,1.5,0.3c0.4,0.2,0.8,0.4,1.2,0.8
			L135.5,319.9z"/>
	</g>
	<g>
		<path fill="#F2F2F2" d="M333.2,178.1H30.8c-1.1,0-2-0.9-2-2v-8c0-1.1,0.9-2,2-2h302.4c1.1,0,2,0.9,2,2v8
			C335.2,177.2,334.3,178.1,333.2,178.1z"/>
		<path fill="#F2F2F2" d="M333.2,201.7H30.8c-1.1,0-2-0.9-2-2v-8c0-1.1,0.9-2,2-2h302.4c1.1,0,2,0.9,2,2v8
			C335.2,200.8,334.3,201.7,333.2,201.7z"/>
		<path fill="#F2F2F2" d="M333.2,225.4H30.8c-1.1,0-2-0.9-2-2v-8c0-1.1,0.9-2,2-2h302.4c1.1,0,2,0.9,2,2v8
			C335.2,224.5,334.3,225.4,333.2,225.4z"/>
		<path fill="#F2F2F2" d="M333.2,249.1H30.8c-1.1,0-2-0.9-2-2v-8c0-1.1,0.9-2,2-2h302.4c1.1,0,2,0.9,2,2v8
			C335.2,248.2,334.3,249.1,333.2,249.1z"/>
		<path fill="#F2F2F2" d="M327,294.1H186.4c-1.1,0-2-0.9-2-2v-8c0-1.1,0.9-2,2-2H327c1.1,0,2,0.9,2,2v8
			C329,293.2,328.1,294.1,327,294.1z"/>
		<path fill="#F2F2F2" d="M327,317.7H186.4c-1.1,0-2-0.9-2-2v-8c0-1.1,0.9-2,2-2H327c1.1,0,2,0.9,2,2v8
			C329,316.8,328.1,317.7,327,317.7z"/>
		<path fill="#F2F2F2" d="M327,341.4H186.4c-1.1,0-2-0.9-2-2v-8c0-1.1,0.9-2,2-2H327c1.1,0,2,0.9,2,2v8
			C329,340.5,328.1,341.4,327,341.4z"/>
		<path fill="#F2F2F2" d="M327,365.1H186.4c-1.1,0-2-0.9-2-2v-8c0-1.1,0.9-2,2-2H327c1.1,0,2,0.9,2,2v8
			C329,364.2,328.1,365.1,327,365.1z"/>
		<path fill="#F2F2F2" d="M321.9,72.1H181.3c-1.1,0-2-0.9-2-2v-8c0-1.1,0.9-2,2-2h140.6c1.1,0,2,0.9,2,2v8
			C323.9,71.2,323,72.1,321.9,72.1z"/>
		<path fill="#F2F2F2" d="M321.9,94.6H181.3c-1.1,0-2-0.9-2-2v-8c0-1.1,0.9-2,2-2h140.6c1.1,0,2,0.9,2,2v8
			C323.9,93.7,323,94.6,321.9,94.6z"/>
	</g>
	<path fill="#E6E6E6" d="M34.1,52.8h18.7v-5.3H34.1c-2.9,0-5.3,2.4-5.3,5.3v18.7h5.3V52.8z M50.1,76.7L39.4,90.1h32l-8-10.7L58,86.6
		L50.1,76.7z M68.7,64.7c0-2.2-1.8-4-4-4c-2.2,0-4,1.8-4,4c0,2.2,1.8,4,4,4C66.9,68.7,68.7,67,68.7,64.7z M76.7,47.4H58.1v5.3h18.7
		v18.7H82V52.8C82,49.8,79.6,47.4,76.7,47.4z M76.7,95.4H58.1v5.3h18.7c2.9,0,5.3-2.4,5.3-5.3V76.7h-5.3V95.4z M34.1,76.7h-5.3v18.7
		c0,2.9,2.4,5.3,5.3,5.3h18.7v-5.3H34.1V76.7z"/>
</g>
</svg>
