<?xml version="1.0" encoding="utf-8"?>
<!-- Generator: Adobe Illustrator 18.0.0, SVG Export Plug-In . SVG Version: 6.00 Build 0)  -->
<!DOCTYPE svg PUBLIC "-//W3C//DTD SVG 1.1//EN" "http://www.w3.org/Graphics/SVG/1.1/DTD/svg11.dtd">
<svg version="1.1"
	 id="Layer_1" xmlns:svg="http://www.w3.org/2000/svg" xmlns:rdf="http://www.w3.org/1999/02/22-rdf-syntax-ns#" xmlns:inkscape="http://www.inkscape.org/namespaces/inkscape" xmlns:dc="http://purl.org/dc/elements/1.1/" xmlns:cc="http://creativecommons.org/ns#" xmlns:sodipodi="http://sodipodi.sourceforge.net/DTD/sodipodi-0.dtd" inkscape:version="0.92.3 (2405546, 2018-03-11)" sodipodi:docname="banner-img.svg"
	 xmlns="http://www.w3.org/2000/svg" xmlns:xlink="http://www.w3.org/1999/xlink" x="0px" y="0px" viewBox="173.3 6.9 495.3 581.5"
	 enable-background="new 173.3 6.9 495.3 581.5" xml:space="preserve">
<sodipodi:namedview  inkscape:cy="502.21813" inkscape:cx="-276.93585" inkscape:zoom="1.0488889" showgrid="false" bordercolor="#666666" id="namedview77" pagecolor="#ffffff" objecttolerance="10" borderopacity="1" guidetolerance="10" gridtolerance="10" inkscape:current-layer="Layer_1" inkscape:window-maximized="1" inkscape:window-y="-8" inkscape:window-x="-8" inkscape:window-height="837" inkscape:window-width="1600" inkscape:pageshadow="2" inkscape:pageopacity="0">
	</sodipodi:namedview>
<path id="path2" inkscape:connector-curvature="0" fill="#4956BD" d="M652.7,38.8H220.1c-8.7,0-15.9,7.1-15.9,15.9v517.9
	c0,8.7,7.1,15.9,15.9,15.9h432.6c8.7,0,15.9-7.1,15.9-15.9V54.6C668.6,45.9,661.4,38.8,652.7,38.8z"/>
<path id="path4" inkscape:connector-curvature="0" fill="#FFFFFF" d="M621.8,6.9H189.2c-8.7,0-15.9,7.1-15.9,15.9v517.9
	c0,8.7,7.1,15.9,15.9,15.9h432.6c8.7,0,15.9-7.1,15.9-15.9V22.8C637.6,14,630.5,6.9,621.8,6.9z"/>
<g id="g24">
	<path id="path6" inkscape:connector-curvature="0" fill="#AAAAAA" d="M477.2,51.5c0-0.9,0.1-1.7,0.5-2.6c0.3-0.9,0.8-1.7,1.3-2.4
		c0.7-0.7,1.3-1.3,2.2-1.7c0.9-0.4,1.9-0.7,2.9-0.7c1.3,0,2.4,0.3,3.4,0.9c0.9,0.7,1.6,1.3,2.1,2.4l-0.9,0.5
		c-0.3-0.5-0.5-0.9-0.9-1.3s-0.8-0.7-1.2-0.8c-0.4-0.1-0.8-0.4-1.3-0.5c-0.4-0.1-0.9-0.1-1.3-0.1c-0.9,0-1.7,0.1-2.5,0.5
		c-0.7,0.4-1.3,0.9-1.9,1.5c-0.5,0.7-0.9,1.3-1.2,2.1c-0.3,0.8-0.4,1.6-0.4,2.4c0,0.9,0.1,1.7,0.4,2.5c0.3,0.8,0.7,1.5,1.2,2.1
		c0.5,0.7,1.2,1.1,1.9,1.5c0.7,0.4,1.5,0.5,2.4,0.5c0.4,0,0.9,0,1.3-0.1c0.5-0.1,0.9-0.3,1.3-0.5c0.4-0.3,0.8-0.5,1.2-0.9
		c0.4-0.4,0.7-0.8,0.9-1.3l0.9,0.4c-0.3,0.5-0.5,1.1-1.1,1.5c-0.4,0.4-0.9,0.8-1.5,1.1c-0.5,0.3-1.1,0.5-1.7,0.7
		c-0.7,0.1-1.2,0.3-1.7,0.3c-1.1,0-2-0.3-2.8-0.7c-0.8-0.4-1.6-1.1-2.1-1.7c-0.7-0.7-1.1-1.6-1.5-2.4
		C477.3,53.4,477.2,52.5,477.2,51.5L477.2,51.5z"/>
	<path id="path8" inkscape:connector-curvature="0" fill="#AAAAAA" d="M498.5,58.2c1.1,0,1.9-0.1,2.5-0.5c0.7-0.4,1.2-0.9,1.6-1.5
		c0.4-0.7,0.7-1.3,0.8-2.1s0.3-1.6,0.3-2.4v-7.4h1.1v7.4c0,0.9-0.1,2-0.3,2.8c-0.3,0.9-0.5,1.7-1.1,2.4c-0.5,0.7-1.1,1.2-1.9,1.6
		c-0.8,0.4-1.7,0.7-2.9,0.7s-2.1-0.3-2.9-0.7c-0.8-0.4-1.5-0.9-1.9-1.7s-0.8-1.5-1.1-2.4c-0.3-0.9-0.3-1.9-0.3-2.8v-7.4h1.1v7.4
		c0,0.8,0.1,1.6,0.3,2.4c0.1,0.8,0.4,1.5,0.8,2.1c0.4,0.7,0.9,1.1,1.6,1.5C496.6,57.9,497.4,58.2,498.5,58.2L498.5,58.2z"/>
	<path id="path10" inkscape:connector-curvature="0" fill="#AAAAAA" d="M508.3,59V44.2h6.1c0.7,0,1.2,0.1,1.7,0.4
		c0.5,0.3,0.9,0.7,1.3,1.1c0.4,0.4,0.7,0.9,0.9,1.5c0.3,0.5,0.3,1.1,0.3,1.7c0,0.5-0.1,1.1-0.3,1.6c-0.1,0.5-0.4,0.9-0.7,1.3
		c-0.3,0.4-0.7,0.8-1.1,1.1c-0.4,0.3-0.9,0.4-1.5,0.5l3.7,5.7h-1.2l-3.6-5.6h-4.8V59H508.3z M509.3,52.5h5.2c0.5,0,0.9-0.1,1.3-0.3
		c0.4-0.3,0.7-0.5,1.1-0.8c0.3-0.4,0.5-0.8,0.7-1.2c0.1-0.4,0.3-0.9,0.3-1.3c0-0.5-0.1-0.9-0.3-1.3c-0.1-0.4-0.4-0.8-0.7-1.2
		c-0.3-0.4-0.7-0.7-1.1-0.8c-0.4-0.3-0.8-0.3-1.3-0.3h-5v7.1H509.3z"/>
	<path id="path12" inkscape:connector-curvature="0" fill="#AAAAAA" d="M521.7,59V44.2h6.1c0.7,0,1.2,0.1,1.7,0.4s0.9,0.7,1.3,1.1
		c0.4,0.4,0.7,0.9,0.9,1.5c0.3,0.5,0.3,1.1,0.3,1.7c0,0.5-0.1,1.1-0.3,1.6c-0.1,0.5-0.4,0.9-0.7,1.3c-0.3,0.4-0.7,0.8-1.1,1.1
		c-0.4,0.3-0.9,0.4-1.5,0.5l3.7,5.7h-1.2l-3.6-5.6h-4.8V59H521.7z M522.8,52.5h5.2c0.5,0,0.9-0.1,1.3-0.3c0.4-0.3,0.7-0.5,1.1-0.8
		c0.3-0.4,0.5-0.8,0.7-1.2c0.1-0.4,0.3-0.9,0.3-1.3c0-0.5-0.1-0.9-0.3-1.3c-0.1-0.4-0.4-0.8-0.7-1.2c-0.3-0.4-0.7-0.7-1.1-0.8
		c-0.4-0.3-0.8-0.3-1.3-0.3h-5v7.1H522.8z"/>
	<path id="path14" inkscape:connector-curvature="0" fill="#AAAAAA" d="M535.8,42.1l-0.8-0.4l1.3-1.7h1.2L535.8,42.1z M535.2,59
		V44.2h1.1V59L535.2,59z"/>
	<path id="path16" inkscape:connector-curvature="0" fill="#AAAAAA" d="M539.2,51.5c0-0.9,0.1-1.7,0.5-2.6c0.3-0.9,0.8-1.7,1.3-2.4
		c0.7-0.7,1.3-1.3,2.2-1.7c0.9-0.4,1.9-0.7,2.9-0.7c1.3,0,2.4,0.3,3.4,0.9c0.9,0.7,1.6,1.3,2.1,2.4l-0.9,0.5
		c-0.3-0.5-0.5-0.9-0.9-1.3s-0.8-0.7-1.2-0.8s-0.8-0.4-1.3-0.5c-0.4-0.1-0.9-0.1-1.3-0.1c-0.9,0-1.7,0.1-2.5,0.5
		c-0.7,0.4-1.3,0.9-1.9,1.5c-0.5,0.7-0.9,1.3-1.2,2.1c-0.3,0.8-0.4,1.6-0.4,2.4c0,0.9,0.1,1.7,0.4,2.5c0.3,0.8,0.7,1.5,1.2,2.1
		c0.5,0.7,1.2,1.1,1.9,1.5c0.7,0.4,1.5,0.5,2.4,0.5c0.4,0,0.9,0,1.3-0.1c0.5-0.1,0.9-0.3,1.3-0.5c0.4-0.3,0.8-0.5,1.2-0.9
		c0.4-0.4,0.7-0.8,0.9-1.3l0.9,0.4c-0.3,0.5-0.5,1.1-1.1,1.5c-0.4,0.4-0.9,0.8-1.5,1.1s-1.1,0.5-1.7,0.7s-1.2,0.3-1.7,0.3
		c-1.1,0-2-0.3-2.8-0.7c-0.8-0.4-1.6-1.1-2.1-1.7c-0.7-0.7-1.1-1.6-1.5-2.4C539.3,53.4,539.2,52.5,539.2,51.5L539.2,51.5z"/>
	<path id="path18" inkscape:connector-curvature="0" fill="#AAAAAA" d="M560.5,58.2c1.1,0,1.9-0.1,2.5-0.5c0.7-0.4,1.2-0.9,1.6-1.5
		c0.4-0.7,0.7-1.3,0.8-2.1c0.1-0.8,0.3-1.6,0.3-2.4v-7.4h1.1v7.4c0,0.9-0.1,2-0.3,2.8c-0.3,0.9-0.5,1.7-1.1,2.4s-1.1,1.2-1.9,1.6
		c-0.8,0.4-1.7,0.7-2.9,0.7c-1.2,0-2.1-0.3-2.9-0.7c-0.8-0.4-1.5-0.9-1.9-1.7c-0.4-0.8-0.8-1.5-1.1-2.4c-0.3-0.9-0.3-1.9-0.3-2.8
		v-7.4h1.1v7.4c0,0.8,0.1,1.6,0.3,2.4c0.1,0.8,0.4,1.5,0.8,2.1c0.4,0.7,0.9,1.1,1.6,1.5C558.8,57.9,559.6,58.2,560.5,58.2
		L560.5,58.2z"/>
	<path id="path20" inkscape:connector-curvature="0" fill="#AAAAAA" d="M570.3,59V44.2h1.1v13.9h8.9V59L570.3,59z"/>
	<path id="path22" inkscape:connector-curvature="0" fill="#AAAAAA" d="M587.4,59.1c-1.1,0-2-0.3-2.8-0.7c-0.8-0.4-1.6-1.1-2.2-1.7
		c-0.7-0.7-1.1-1.5-1.5-2.4c-0.4-0.9-0.5-1.9-0.5-2.8c0-0.9,0.1-2,0.5-2.8c0.4-0.9,0.8-1.7,1.5-2.4c0.7-0.7,1.3-1.2,2.2-1.7
		c0.8-0.4,1.7-0.7,2.8-0.7s2,0.3,2.8,0.7c0.8,0.4,1.6,1.1,2.2,1.7c0.7,0.7,1.1,1.5,1.5,2.4c0.4,0.9,0.5,1.9,0.5,2.8
		c0,1.1-0.1,2-0.5,2.9c-0.4,0.9-0.8,1.7-1.5,2.4c-0.7,0.7-1.3,1.2-2.2,1.6C589.2,58.9,588.4,59.1,587.4,59.1z M581.5,51.6
		c0,0.8,0.1,1.7,0.4,2.5c0.3,0.8,0.7,1.5,1.2,2.1c0.5,0.7,1.2,1.1,1.9,1.5c0.7,0.4,1.5,0.5,2.4,0.5c0.9,0,1.7-0.1,2.4-0.5
		c0.7-0.4,1.3-0.9,1.9-1.5c0.5-0.7,0.9-1.3,1.2-2.1c0.3-0.8,0.4-1.6,0.4-2.4s-0.1-1.7-0.4-2.5c-0.3-0.8-0.7-1.5-1.2-2.1
		c-0.5-0.7-1.2-1.1-1.9-1.5c-0.7-0.4-1.5-0.5-2.4-0.5s-1.7,0.1-2.4,0.5c-0.7,0.4-1.3,0.9-1.9,1.5c-0.5,0.7-0.9,1.3-1.2,2.1
		C581.7,50,581.5,50.8,581.5,51.6z"/>
</g>
<g id="g48">
	<path id="path26" inkscape:connector-curvature="0" fill="#AAAAAA" d="M252.9,421.2v11.6h-0.8v-5.6h-7.3v5.6h-0.8v-11.6h0.8v5.3
		h7.3v-5.3L252.9,421.2z"/>
	<path id="path28" inkscape:connector-curvature="0" fill="#AAAAAA" d="M259.7,421.2h0.7l4.9,11.6h-0.9l-1.6-3.8h-5.6l-1.6,3.8h-0.9
		L259.7,421.2z M262.6,428.3l-2.5-6.1l-2.6,6.1H262.6z"/>
	<path id="path30" inkscape:connector-curvature="0" fill="#AAAAAA" d="M275.6,429.8c0,0.4-0.1,0.8-0.3,1.2
		c-0.1,0.4-0.4,0.7-0.7,0.9c-0.3,0.3-0.7,0.5-1.1,0.7c-0.4,0.1-0.8,0.3-1.2,0.3H267v-11.6h5.4c0.4,0,0.8,0.1,1.1,0.3
		c0.3,0.1,0.7,0.4,0.8,0.7c0.3,0.3,0.4,0.5,0.5,0.9c0.1,0.4,0.1,0.7,0.1,1.1c0,0.5-0.1,1.2-0.4,1.6c-0.3,0.5-0.7,0.8-1.2,1.1
		c0.7,0.1,1.2,0.5,1.6,1.1C275.4,428.5,275.6,429.1,275.6,429.8L275.6,429.8z M267.9,422v4.6h4.2c0.3,0,0.7,0,0.9-0.1
		c0.3-0.1,0.5-0.3,0.7-0.5c0.1-0.3,0.4-0.4,0.4-0.8c0.1-0.3,0.1-0.5,0.1-0.9c0-0.3,0-0.7-0.1-0.9c-0.1-0.3-0.3-0.5-0.4-0.8
		c-0.1-0.3-0.4-0.4-0.7-0.5s-0.5-0.1-0.8-0.1h-4.4V422z M274.8,429.7c0-0.3,0-0.7-0.1-0.9c-0.1-0.3-0.3-0.5-0.4-0.8
		c-0.1-0.3-0.4-0.4-0.7-0.5c-0.3-0.1-0.5-0.1-0.8-0.1H268v4.8h4.6c0.3,0,0.7,0,0.9-0.1c0.3-0.1,0.5-0.3,0.7-0.5
		c0.3-0.3,0.4-0.5,0.5-0.8C274.6,430.3,274.8,429.9,274.8,429.7z"/>
	<path id="path32" inkscape:connector-curvature="0" fill="#AAAAAA" d="M277.8,432.8v-11.6h0.9v11.6H277.8z"/>
	<path id="path34" inkscape:connector-curvature="0" fill="#AAAAAA" d="M281.8,432.8v-11.6h0.8V432h6.9v0.8L281.8,432.8z"/>
	<path id="path36" inkscape:connector-curvature="0" fill="#AAAAAA" d="M291.2,432.8v-11.6h0.8v11.6H291.2z"/>
	<path id="path38" inkscape:connector-curvature="0" fill="#AAAAAA" d="M295.1,432.8v-11.6h3.8c0.9,0,1.7,0.1,2.4,0.4
		c0.7,0.3,1.3,0.7,1.7,1.2c0.4,0.5,0.8,1.2,1.1,1.9c0.3,0.7,0.4,1.5,0.4,2.2c0,0.9-0.1,1.7-0.4,2.4c-0.3,0.7-0.7,1.3-1.1,1.9
		c-0.4,0.5-1.1,0.9-1.7,1.2c-0.7,0.3-1.5,0.4-2.2,0.4h-4L295.1,432.8z M303.6,427c0-0.8-0.1-1.5-0.3-2c-0.3-0.7-0.5-1.2-0.9-1.6
		c-0.4-0.4-0.9-0.8-1.5-1.1c-0.5-0.3-1.2-0.4-2-0.4h-3V432h3c0.8,0,1.5-0.1,2-0.4c0.5-0.3,1.1-0.7,1.5-1.1s0.7-1.1,0.9-1.6
		C303.5,428.3,303.6,427.7,303.6,427L303.6,427z"/>
	<path id="path40" inkscape:connector-curvature="0" fill="#AAAAAA" d="M310,421.2h0.7l4.9,11.6h-0.9L313,429h-5.6l-1.6,3.8h-0.9
		L310,421.2z M312.9,428.3l-2.5-6.1l-2.6,6.1H312.9z"/>
	<path id="path42" inkscape:connector-curvature="0" fill="#AAAAAA" d="M317.4,432.8v-11.6h3.8c0.9,0,1.7,0.1,2.4,0.4
		c0.7,0.3,1.3,0.7,1.7,1.2c0.4,0.5,0.8,1.2,1.1,1.9c0.3,0.7,0.4,1.5,0.4,2.2c0,0.9-0.1,1.7-0.4,2.4c-0.3,0.7-0.7,1.3-1.1,1.9
		c-0.5,0.5-1.1,0.9-1.7,1.2c-0.7,0.3-1.5,0.4-2.2,0.4h-4L317.4,432.8z M325.8,427c0-0.8-0.1-1.5-0.3-2c-0.3-0.7-0.5-1.2-0.9-1.6
		c-0.4-0.4-0.9-0.8-1.5-1.1c-0.5-0.3-1.2-0.4-2-0.4h-3V432h3c0.8,0,1.5-0.1,2-0.4c0.5-0.3,1.1-0.7,1.5-1.1s0.7-1.1,0.9-1.6
		C325.8,428.3,325.8,427.7,325.8,427L325.8,427z"/>
	<path id="path44" inkscape:connector-curvature="0" fill="#AAAAAA" d="M336.7,432v0.8H329v-11.6h7.5v0.8h-6.7v4.5h6v0.7h-6v4.8h6.9
		V432z"/>
	<path id="path46" inkscape:connector-curvature="0" fill="#AAAAAA" d="M345.5,423.2c-0.8-0.8-1.9-1.3-3.2-1.3c-1.2,0-2,0.3-2.5,0.7
		c-0.5,0.4-0.8,1.1-0.8,1.7c0,0.4,0,0.7,0.1,0.9c0.1,0.3,0.4,0.4,0.7,0.7c0.3,0.1,0.7,0.3,1.1,0.4c0.4,0.1,0.9,0.3,1.6,0.4
		c0.7,0.1,1.2,0.3,1.7,0.4c0.5,0.1,0.9,0.4,1.3,0.7c0.4,0.3,0.7,0.5,0.8,0.9c0.1,0.4,0.3,0.8,0.3,1.3c0,0.5-0.1,0.9-0.3,1.3
		c-0.3,0.4-0.5,0.7-0.8,0.9c-0.4,0.3-0.8,0.4-1.3,0.5c-0.5,0.1-1.1,0.1-1.7,0.1c-1.9,0-3.3-0.5-4.6-1.7l0.4-0.7
		c0.5,0.5,1.1,0.9,1.9,1.2c0.7,0.3,1.5,0.4,2.4,0.4c1.1,0,1.9-0.1,2.4-0.5c0.5-0.4,0.8-0.9,0.8-1.7c0-0.4-0.1-0.7-0.3-0.9
		c-0.1-0.3-0.4-0.5-0.7-0.7c-0.3-0.1-0.7-0.4-1.2-0.5c-0.5-0.1-0.9-0.3-1.6-0.4c-0.7-0.1-1.2-0.3-1.6-0.4c-0.5-0.1-0.9-0.4-1.2-0.5
		c-0.3-0.3-0.5-0.5-0.7-0.8s-0.3-0.7-0.3-1.2c0-0.5,0.1-0.9,0.3-1.3c0.1-0.4,0.5-0.8,0.8-1.1c0.3-0.3,0.8-0.5,1.3-0.7
		c0.5-0.1,1.1-0.3,1.7-0.3c0.8,0,1.5,0.1,2,0.4c0.5,0.3,1.1,0.5,1.6,1.1L345.5,423.2z"/>
</g>
<g id="g70">
	<path id="path50" inkscape:connector-curvature="0" fill="#CCCCCC" d="M607.1,235.6H207c-1.5,0-2.6-1.2-2.6-2.6v-10.6
		c0-1.5,1.2-2.6,2.6-2.6h400c1.5,0,2.6,1.2,2.6,2.6V233C609.7,234.4,608.5,235.6,607.1,235.6L607.1,235.6z"/>
	<path id="path52" inkscape:connector-curvature="0" fill="#CCCCCC" d="M607.1,266.8H207c-1.5,0-2.6-1.2-2.6-2.6v-10.6
		c0-1.5,1.2-2.6,2.6-2.6h400c1.5,0,2.6,1.2,2.6,2.6v10.6C609.7,265.6,608.5,266.8,607.1,266.8L607.1,266.8z"/>
	<path id="path54" inkscape:connector-curvature="0" fill="#CCCCCC" d="M607.1,298.2H207c-1.5,0-2.6-1.2-2.6-2.6v-10.6
		c0-1.5,1.2-2.6,2.6-2.6h400c1.5,0,2.6,1.2,2.6,2.6v10.6C609.7,297,608.5,298.2,607.1,298.2L607.1,298.2z"/>
	<path id="path56" inkscape:connector-curvature="0" fill="#CCCCCC" d="M607.1,329.5H207c-1.5,0-2.6-1.2-2.6-2.6v-10.6
		c0-1.5,1.2-2.6,2.6-2.6h400c1.5,0,2.6,1.2,2.6,2.6v10.6C609.7,328.3,608.5,329.5,607.1,329.5L607.1,329.5z"/>
	<path id="path58" inkscape:connector-curvature="0" fill="#CCCCCC" d="M598.9,389h-186c-1.5,0-2.6-1.2-2.6-2.6v-10.6
		c0-1.5,1.2-2.6,2.6-2.6h186c1.5,0,2.6,1.2,2.6,2.6v10.6C601.5,387.9,600.3,389,598.9,389z"/>
	<path id="path60" inkscape:connector-curvature="0" fill="#CCCCCC" d="M598.9,420.3h-186c-1.5,0-2.6-1.2-2.6-2.6V407
		c0-1.5,1.2-2.6,2.6-2.6h186c1.5,0,2.6,1.2,2.6,2.6v10.6C601.5,419.1,600.3,420.3,598.9,420.3z"/>
	<path id="path62" inkscape:connector-curvature="0" fill="#CCCCCC" d="M598.9,451.6h-186c-1.5,0-2.6-1.2-2.6-2.6v-10.6
		c0-1.5,1.2-2.6,2.6-2.6h186c1.5,0,2.6,1.2,2.6,2.6V449C601.5,450.4,600.3,451.6,598.9,451.6z"/>
	<path id="path64" inkscape:connector-curvature="0" fill="#CCCCCC" d="M598.9,483h-186c-1.5,0-2.6-1.2-2.6-2.6v-10.6
		c0-1.5,1.2-2.6,2.6-2.6h186c1.5,0,2.6,1.2,2.6,2.6v10.6C601.5,481.8,600.3,483,598.9,483z"/>
	<path id="path66" inkscape:connector-curvature="0" fill="#CCCCCC" d="M592.1,95.4h-186c-1.5,0-2.6-1.2-2.6-2.6V82.1
		c0-1.5,1.2-2.6,2.6-2.6h186c1.5,0,2.6,1.2,2.6,2.6v10.6C594.8,94.2,593.6,95.4,592.1,95.4L592.1,95.4z"/>
	<path id="path68" inkscape:connector-curvature="0" fill="#CCCCCC" d="M592.1,125.1h-186c-1.5,0-2.6-1.2-2.6-2.6v-10.6
		c0-1.5,1.2-2.6,2.6-2.6h186c1.5,0,2.6,1.2,2.6,2.6v10.6C594.8,124,593.6,125.1,592.1,125.1L592.1,125.1z"/>
</g>
<g>
	<path id="path90" inkscape:connector-curvature="0" fill="#002653" d="M238.2,80.7c0.5,0.1,1,0.2,1.5,0.3c0.2,0,0.5,0.1,0.7,0.1
		l-0.9-0.6C239,80.6,238.7,80.6,238.2,80.7L238.2,80.7z"/>
	<path id="path105" inkscape:connector-curvature="0" fill="#4956BD" d="M279.2,125h-69.8c-2.9,0-5.2-2.4-5.2-5.2V68.1
		c0-2.9,2.4-5.2,5.2-5.2h69.8c2.9,0,5.2,2.4,5.2,5.2v51.7C284.4,122.6,282.1,125,279.2,125z"/>
	<g id="g118" transform="translate(-339.22967,117.98252)">
		<path id="path107" inkscape:connector-curvature="0" fill="#002653" d="M582.2-49.8l4.7-5.8c-1,0.1-1.9-0.6-2.4-1.4
			c-0.5-0.9-0.3-2,0.3-2.7c0.7-0.7,3.5-1.6,3.5,1.7c0,0,1.9-1.8,2.7-4.4c1.8-5.8,10-4.3,10-4.3c1.2,0.7,1.6,2.1,1.5,3.5
			c0.9-0.3,1.9-0.5,2.8-0.8c1.5-0.6,2.6-1.7,3.3-3.2c0.8-1.8,0.9-4,0.1-5.9c-1.5-3.3-5.2-5.2-8.8-5c0.6,0.7,0.1,1.7-0.6,2.3
			c-0.7,0.5-1.6,0.6-2.5,0.6c-2.6,0-5.1-0.7-7.6-0.7c-2.6-0.1-5.3,0.6-7,2.5c-1.6,1.8-1.6,4.9,0.2,6.3c0.1,0.1,0.3,0.2,0.5,0.3
			C583.6-61.2,583.4-55.4,582.2-49.8L582.2-49.8z"/>
		
			<linearGradient id="path114_1_" gradientUnits="userSpaceOnUse" x1="617.0823" y1="362.316" x2="669.8772" y2="362.316" gradientTransform="matrix(1.3228 0 0 -1.3228 -240.0925 427.2179)">
			<stop  offset="0" style="stop-color:#F1DBD9"/>
			<stop  offset="1" style="stop-color:#E4B6B3"/>
		</linearGradient>
		<path id="path114" inkscape:connector-curvature="0" fill="url(#path114_1_)" d="M602.5-55.6c-1-0.9-1.2-2.5-1-3.7
			c0.2-1.4,0.9-2.6,1-4l0,0c0.1-1.4-0.2-2.9-1.5-3.5c0,0-8.2-1.4-10,4.3c-0.8,2.6-2.7,4.4-2.7,4.4c0-3.3-2.8-2.4-3.5-1.7
			c-0.7,0.7-0.8,1.9-0.3,2.7c0.5,0.9,1.5,1.5,2.4,1.4l-4.7,5.8l-1.9,2.3l-4.1,4.7c0.1,4.2,5.1,5.3,7.9,5.6c0.7-1.1,3-5.5,4.5-7.5
			c0.3-0.5,0.6-0.7,0.8-0.9c1.2-1,2.9-1.7,4.5-1.2c1.7,0.5,3.3,2,4.9,1.2c1.2-0.6,1.5-2.1,1.6-3.5s0.2-2.9,1.5-3.6
			c0.8-0.5,2-0.6,2-1.5C603.7-54.8,603-55.1,602.5-55.6L602.5-55.6z"/>
		<path id="path116" inkscape:connector-curvature="0" fill="#112664" d="M606.6,7h-47.2v-35.6c0-8.1,6.7-14.8,14.8-14.8h17.7
			c8.1,0,14.8,6.7,14.8,14.8V7H606.6z"/>
	</g>
</g>
</svg>
