<?xml version="1.0" encoding="utf-8"?>
<!-- Generator: Adobe Illustrator 18.0.0, SVG Export Plug-In . SVG Version: 6.00 Build 0)  -->
<!DOCTYPE svg PUBLIC "-//W3C//DTD SVG 1.1//EN" "http://www.w3.org/Graphics/SVG/1.1/DTD/svg11.dtd">
<svg version="1.1" id="Layer_1" xmlns="http://www.w3.org/2000/svg" xmlns:xlink="http://www.w3.org/1999/xlink" x="0px" y="0px"
	 viewBox="0 0 841.9 362.2" enable-background="new 0 0 841.9 362.2" xml:space="preserve">
<path fill="#BF2C5D" d="M240,363.2H12c-6.6,0-12-5.4-12-12v-228c0-6.6,5.4-12,12-12h228c6.6,0,12,5.4,12,12v228
	C252,357.8,246.6,363.2,240,363.2z"/>
<path fill="#704085" d="M829.9,363.2h-228c-6.6,0-12-5.4-12-12v-228c0-6.6,5.4-12,12-12h228c6.6,0,12,5.4,12,12v228
	C841.9,357.8,836.5,363.2,829.9,363.2z"/>
<path fill="#DDDDDD" d="M535.9,363.2h-228c-6.6,0-12-5.4-12-12v-228c0-6.6,5.4-12,12-12h228c6.6,0,12,5.4,12,12v228
	C547.9,357.8,542.5,363.2,535.9,363.2z"/>
<polygon fill="#232D62" points="720.8,116.1 752.1,207.9 692.9,159.2 "/>
<path fill="#1A2253" d="M786.2,331.1l-72.2,6.7l-2.1,91.2c0,0-11.4,22.8-3.1,137.4l-0.9,3.5l10.9,1.7l34.8-208.9
	c-0.2-0.5-0.2-0.9-0.3-1.4c0.2,0.3,0.2,0.7,0.3,1v0.5c6.9,33.9,16.4,92.4,16.4,92.4c-6.2,47.4,20.2,106.3,23.5,114.7l11.2-0.9
	C789.8,502.6,786.2,331.1,786.2,331.1z"/>
<g>
	<polygon fill="#E2B0A9" points="810.3,315 812.3,349.1 808.5,351.5 797.1,331.4 803.2,321.6 	"/>
	<polygon fill="#E2B0A9" points="803.3,342.5 797.3,349.9 788.1,352.2 788.5,350.6 795.5,347.2 801.8,339.4 	"/>
	<polygon fill="#E2B0A9" points="805.9,344.9 801.8,353.6 793.3,357.7 793.5,356 799.4,351.3 803.7,342.1 	"/>
	<polygon fill="#E2B0A9" points="809,347.3 806.5,356.9 798.7,362.6 798.1,360.8 803.5,354.9 805.8,345.3 	"/>
	<polygon fill="#E2B0A9" points="812.3,349.1 809.6,358.6 802.1,364.3 801.6,362.7 806.6,356.5 809.2,347.2 	"/>
</g>
<path fill="#232D62" d="M791.9,140.7c0,0,2.1,0.9,7.4,5c8.8,6.9,18.9,29.8,18.9,85.3c0.5,0.5-6.6,90.7-6.6,90.7l-11.2,2.2
	C800.4,324,789.3,177.9,791.9,140.7z"/>
<g>
	<polygon fill="#E2B0A9" points="673.6,320 680.1,329.5 669.9,350.1 665.9,347.9 666.1,313.8 	"/>
	<polygon fill="#E2B0A9" points="676,337.6 682.5,345.1 689.8,348.2 690.2,349.8 681,348 674.4,340.8 	"/>
	<polygon fill="#E2B0A9" points="674.2,340.4 678.9,349.4 685.1,353.7 685.5,355.5 676.7,351.8 672,343.4 	"/>
	<polygon fill="#E2B0A9" points="672.3,343.7 675.1,353.2 680.6,358.9 680.3,360.5 672.3,355.3 669.1,346 	"/>
	<polygon fill="#E2B0A9" points="668.9,345.8 672,354.9 677.4,360.8 676.8,362.6 669.2,357.2 665.9,347.9 	"/>
</g>
<path fill="#232D62" d="M786.4,337.8l10.2-193.5c0-0.5-0.2-1-0.7-1.4l-42.2-25.3c5.2,13.3,28.9,37.4,28.9,37.4l-30.6,8.1l12.3,79.9
	l0.7,25.1c0.9,13-49.3,56.1-50.7,68.9L786.4,337.8z"/>
<linearGradient id="SVGID_1_" gradientUnits="userSpaceOnUse" x1="83.8718" y1="-133.2383" x2="128.1346" y2="-133.2383" gradientTransform="matrix(4.684 0 0 4.684 330.1831 700.6831)">
	<stop  offset="0" style="stop-color:#F1DBD9"/>
	<stop  offset="1" style="stop-color:#E4B7B3"/>
</linearGradient>
<path fill="url(#SVGID_1_)" d="M784.8,67.9c-3.3-2.6-4-7.8-2.9-11.9c0.9-4.2,2.9-8.1,3.5-12.3c0.5-4.2-0.7-9.3-4.2-11.2
	c0,0-26-4.8-31.7,13.3c-2.6,8.1-8.7,13.8-8.7,13.8c0.3-10.2-8.7-7.4-10.9-5.5c-2.2,2.2-2.6,5.9-0.9,8.7c1.6,2.6,4.5,4.8,7.4,4.5
	l-9.3,32l-0.9,4l-2.9,7.8c6.1,3.5,11.9,6.9,18.2,10.2c0.7-0.7,3.5-6.9,4.2-8.3c0.3-0.7,0.7-1.6,0.9-2.6c0.7-2.2,1.6-4.2,2.6-6.1
	c2.9-5.9,6.7-9.7,8.7-9.3c5.2,1.4,10.2,6.6,15.2,4.2c4-1.6,4.8-6.7,5.2-10.9c0.3-4.2,0.9-9.3,4.5-11.2c2.6-1.4,6.6-1.6,6.6-4.5
	C789,70.1,786.4,69.1,784.8,67.9z"/>
<path fill="#162952" d="M730.7,87.4l6.4-21.3c-2.9,0.3-5.5-1.6-6.7-4c-1.4-2.6-0.9-5.9,0.9-7.8c1.9-1.9,9.3-1.2,9.3,8.1
	c0,0,6.2-8.7,8.5-15.9c4.2-13.3,20.6-13.2,26.5-12.5c1.6,0.2,3.1,0.7,4.3,1.6c2.9,2.2,5.7,5.9,5.5,9c2.6-0.9,2.1-1.7,4.7-2.6
	c4.2-1.6,7.4-4.8,9.3-9.2c2.2-5.2,2.6-11.2,0.3-16.8c-4.2-9.2-14.9-14.8-25.3-14.1c1.6,1.9,0.3,4.8-1.6,6.6
	c-1.9,1.4-4.5,1.6-7.1,1.6c-7.4,0-14.5-1.9-21.6-1.9c-7.4-0.3-15.2,1.6-20.1,7.1c-4.5,5.2-4.5,13.8,0.7,18.2
	c0.3,0.3,0.9,0.7,1.4,0.9C719.4,57,734.3,71.3,730.7,87.4z"/>
<path fill="#2D3C79" d="M764.2,209.4l14.7-42.2l-5.4-8.3l9.7-3.6l-29.9-38.2C758.5,135.2,767,202,764.2,209.4z"/>
<path fill="#2D3C79" d="M728.1,157L718,169.2l39.3,35.1c-16.8-56.6-32.4-95.5-32.4-95.5l-16.8,47.8L728.1,157z"/>
<path fill="#60A4B0" d="M760.9,207.7l-3.6-3.3c2.2,7.4,2.1,29.9,3.8,37.9c10.6-55.2-2.8-107.1-7.6-125.1l-6.7-5.5l-6.1,5.9
	l-16.1-8.3c0,0,15.7,38.8,32.5,95.3L760.9,207.7z"/>
<path fill="#232D62" d="M769.4,267.6c-1-13.7-3.1-27.2-6.1-40.1c-1.7-8-3.8-15.7-6.1-23.2l-33.8-36.8l5.5-10.7l-20.2-0.5l16.3-47.4
	c0,0-39.6,22.7-57.3,30.5c0,0-19.9,22.3-15.7,91.2c-0.5,0.5,11.6,90.2,11.6,90.2l11.4,1.6c0,0,15.4-129.4,14-139.6
	c0,0,0.2-0.2,0.2,0c21.8,32.7,32,89.3,25.1,155l47.9-0.2l6.7-30.6C770.3,293.7,770.3,280.5,769.4,267.6z"/>
<path fill="#232628" d="M788.3,586.7l46.2,1.6l-4.2-4.7c-17.7-1.6-25.4-14-25.4-14c0-0.2,0-0.2,0-0.3l-11.2,0.9
	c0.2,0.7,0.3,0.9,0.3,0.9L788.3,586.7z"/>
<path fill="#528F99" d="M740.7,117.4c0,0-13.5-7.8-15.6-8.7c-2.1-0.9,5.2,13.5,5.2,13.5l8.1,1.4L740.7,117.4z"/>
<polygon fill="#528F99" points="740.7,117.4 747.1,109 753.5,117 748.7,124.3 "/>
<polygon fill="#232D62" points="740.7,117.4 738.3,123.6 745.4,130.7 748.7,124.3 "/>
<path fill="#232D62" d="M745.5,130.7c5.4,26.3,11.8,56.9,13.5,78l6.1,27.5l0,0l2.1-13.2C764.6,192.3,757.7,161.5,745.5,130.7z"/>
<path fill="#232628" d="M724.3,586.7l-46.2,1.6l4.2-4.7c17.7-1.6,25.4-14,25.4-14c0-0.2,0-0.2,0-0.3l11.2,0.9
	c-0.2,0.7-0.3,0.9-0.3,0.9L724.3,586.7z"/>
<path fill="#232D62" d="M755.6,199.3l10.6,26.9c0,0-14.1,10-14,4.5S755.6,199.3,755.6,199.3z"/>
<polygon fill="#232D62" points="156.1,159.2 96.9,207.9 128.2,116.1 "/>
<path fill="#1A2253" d="M44.3,569l11.2,0.9c3.3-8.4,29.7-67.3,23.5-114.7c0,0,9.5-58.5,16.4-92.4v-0.5c0.1-0.3,0.1-0.7,0.3-1
	c-0.1,0.5-0.1,0.9-0.3,1.4l34.8,208.9l10.9-1.7l-0.9-3.5c8.3-114.6-3.1-137.4-3.1-137.4l-2.1-91.2l-72.2-6.7
	C62.8,331.1,59.2,502.6,44.3,569z"/>
<g>
	<polygon fill="#E2B0A9" points="45.8,321.6 51.9,331.4 40.5,351.5 36.7,349.1 38.7,315 	"/>
	<polygon fill="#E2B0A9" points="47.2,339.4 53.5,347.2 60.5,350.6 60.9,352.2 51.7,349.9 45.7,342.5 	"/>
	<polygon fill="#E2B0A9" points="45.3,342.1 49.6,351.3 55.5,356 55.7,357.7 47.2,353.6 43.1,344.9 	"/>
	<polygon fill="#E2B0A9" points="43.2,345.3 45.5,354.9 50.9,360.8 50.3,362.6 42.5,356.9 40,347.3 	"/>
	<polygon fill="#E2B0A9" points="39.8,347.2 42.4,356.5 47.4,362.7 46.9,364.3 39.4,358.6 36.7,349.1 	"/>
</g>
<path fill="#232D62" d="M48.6,323.9l-11.2-2.2c0,0-7.1-90.2-6.6-90.7c0-55.5,10.1-78.4,18.9-85.3c5.3-4.1,7.4-5,7.4-5
	C59.7,177.9,48.6,324,48.6,323.9z"/>
<g>
	<polygon fill="#E2B0A9" points="182.9,313.8 183.1,347.9 179.1,350.1 168.9,329.5 175.4,320 	"/>
	<polygon fill="#E2B0A9" points="174.6,340.8 168,348 158.8,349.8 159.2,348.2 166.5,345.1 173,337.6 	"/>
	<polygon fill="#E2B0A9" points="177,343.4 172.3,351.8 163.5,355.5 163.9,353.7 170.1,349.4 174.8,340.4 	"/>
	<polygon fill="#E2B0A9" points="179.9,346 176.7,355.3 168.7,360.5 168.4,358.9 173.9,353.2 176.7,343.7 	"/>
	<polygon fill="#E2B0A9" points="183.1,347.9 179.8,357.2 172.2,362.6 171.6,360.8 177,354.9 180.1,345.8 	"/>
</g>
<path fill="#232D62" d="M134.7,337c-1.4-12.8-51.6-55.9-50.7-68.9l0.7-25.1L97,163.1L66.4,155c0,0,23.7-24.1,28.9-37.4l-42.2,25.3
	c-0.5,0.4-0.7,0.9-0.7,1.4l10.2,193.5L134.7,337z"/>
<linearGradient id="SVGID_2_" gradientUnits="userSpaceOnUse" x1="-52.1218" y1="-133.2383" x2="-7.859" y2="-133.2383" gradientTransform="matrix(-4.684 0 0 4.684 -118.1931 700.6831)">
	<stop  offset="0" style="stop-color:#F1DBD9"/>
	<stop  offset="1" style="stop-color:#E4B7B3"/>
</linearGradient>
<path fill="url(#SVGID_2_)" d="M59.6,72.6c0,2.9,4,3.1,6.6,4.5c3.6,1.9,4.2,7,4.5,11.2c0.4,4.2,1.2,9.3,5.2,10.9
	c5,2.4,10-2.8,15.2-4.2c2-0.4,5.8,3.4,8.7,9.3c1,1.9,1.9,3.9,2.6,6.1c0.2,1,0.6,1.9,0.9,2.6c0.7,1.4,3.5,7.6,4.2,8.3
	c6.3-3.3,12.1-6.7,18.2-10.2l-2.9-7.8l-0.9-4l-9.3-32c2.9,0.3,5.8-1.9,7.4-4.5c1.7-2.8,1.3-6.5-0.9-8.7c-2.2-1.9-11.2-4.7-10.9,5.5
	c0,0-6.1-5.7-8.7-13.8c-5.7-18.1-31.7-13.3-31.7-13.3c-3.5,1.9-4.7,7-4.2,11.2c0.6,4.2,2.6,8.1,3.5,12.3c1.1,4.1,0.4,9.3-2.9,11.9
	C62.6,69.1,60,70.1,59.6,72.6z"/>
<path fill="#162952" d="M122.9,34.4c0.5-0.2,1.1-0.6,1.4-0.9c5.2-4.4,5.2-13,0.7-18.2c-4.9-5.5-12.7-7.4-20.1-7.1
	c-7.1,0-14.2,1.9-21.6,1.9c-2.6,0-5.2-0.2-7.1-1.6c-1.9-1.8-3.2-4.7-1.6-6.6C64.2,1.2,53.5,6.8,49.3,16c-2.3,5.6-1.9,11.6,0.3,16.8
	c1.9,4.4,5.1,7.6,9.3,9.2c2.6,0.9,2.1,1.7,4.7,2.6c-0.2-3.1,2.6-6.8,5.5-9c1.2-0.9,2.7-1.4,4.3-1.6c5.9-0.7,22.3-0.8,26.5,12.5
	c2.3,7.2,8.5,15.9,8.5,15.9c0-9.3,7.4-10,9.3-8.1c1.8,1.9,2.3,5.2,0.9,7.8c-1.2,2.4-3.8,4.3-6.7,4l6.4,21.3
	C114.7,71.3,129.6,57,122.9,34.4z"/>
<path fill="#2D3C79" d="M95.7,117.1l-29.9,38.2l9.7,3.6l-5.4,8.3l14.7,42.2C82,202,90.5,135.2,95.7,117.1z"/>
<path fill="#2D3C79" d="M140.9,156.6l-16.8-47.8c0,0-15.6,38.9-32.4,95.5l39.3-35.1L120.9,157L140.9,156.6z"/>
<path fill="#60A4B0" d="M91.9,204.6c16.8-56.5,32.5-95.3,32.5-95.3l-16.1,8.3l-6.1-5.9l-6.7,5.5c-4.8,18-18.2,69.9-7.6,125.1
	c1.7-8,1.6-30.5,3.8-37.9l-3.6,3.3L91.9,204.6z"/>
<path fill="#232D62" d="M80.1,307l6.7,30.6l47.9,0.2c-6.9-65.7,3.3-122.3,25.1-155c0-0.2,0.2,0,0.2,0c-1.4,10.2,14,139.6,14,139.6
	l11.4-1.6c0,0,12.1-89.7,11.6-90.2c4.2-68.9-15.7-91.2-15.7-91.2c-17.7-7.8-57.3-30.5-57.3-30.5l16.3,47.4l-20.2,0.5l5.5,10.7
	l-33.8,36.8c-2.3,7.5-4.4,15.2-6.1,23.2c-3,12.9-5.1,26.4-6.1,40.1C78.7,280.5,78.7,293.7,80.1,307z"/>
<path fill="#232628" d="M55,571.1c0,0,0.1-0.2,0.3-0.9l-11.2-0.9c0,0.1,0,0.1,0,0.3c0,0-7.7,12.4-25.4,14l-4.2,4.7l46.2-1.6
	L55,571.1z"/>
<path fill="#528F99" d="M110.6,123.6l8.1-1.4c0,0,7.3-14.4,5.2-13.5c-2.1,0.9-15.6,8.7-15.6,8.7L110.6,123.6z"/>
<polygon fill="#528F99" points="100.3,124.3 95.5,117 101.9,109 108.3,117.4 "/>
<polygon fill="#232D62" points="100.3,124.3 103.6,130.7 110.7,123.6 108.3,117.4 "/>
<path fill="#232D62" d="M81.8,223l2.1,13.2l0,0l6.1-27.5c1.7-21.1,8.1-51.7,13.5-78C91.3,161.5,84.4,192.3,81.8,223z"/>
<path fill="#232628" d="M130.4,571.1c0,0-0.1-0.2-0.3-0.9l11.2-0.9c0,0.1,0,0.1,0,0.3c0,0,7.7,12.4,25.4,14l4.2,4.7l-46.2-1.6
	L130.4,571.1z"/>
<path fill="#232D62" d="M96.8,230.7c0.1,5.5-14-4.5-14-4.5l10.6-26.9C93.4,199.3,96.7,225.2,96.8,230.7z"/>
</svg>
