<?xml version="1.0" encoding="utf-8"?>
<!-- Generator: Adobe Illustrator 18.0.0, SVG Export Plug-In . SVG Version: 6.00 Build 0)  -->
<!DOCTYPE svg PUBLIC "-//W3C//DTD SVG 1.1//EN" "http://www.w3.org/Graphics/SVG/1.1/DTD/svg11.dtd">
<svg version="1.1" id="Layer_1" xmlns="http://www.w3.org/2000/svg" xmlns:xlink="http://www.w3.org/1999/xlink" x="0px" y="0px"
	 viewBox="29.9 86.3 772.4 390.4" enable-background="new 29.9 86.3 772.4 390.4" xml:space="preserve">
<path fill="#BF2C5D" d="M194.8,278H41.3c-6.5,0-11.4-5.2-11.4-11.4V152.9c0-6.5,5.2-11.4,11.4-11.4h153.5c6.5,0,11.4,5.2,11.4,11.4
	v113.7C206.2,272.8,201,278,194.8,278z"/>
<path fill="#5EA4B0" d="M393.5,278H240c-6.5,0-11.4-5.2-11.4-11.4V152.9c0-6.5,5.2-11.4,11.4-11.4h153.5c6.5,0,11.4,5.2,11.4,11.4
	v113.7C404.9,272.8,399.7,278,393.5,278z"/>
<path fill="#002653" d="M359.9,128c5-1.7,3.5-16.4-8.7-23.3c-8.9-5.2-19.9-6.5-30.3-6c-10.4,0.5-20.9,4.2-28.1,11.4
	c-10.7,10.7-13.4,27.8-9.9,42.5c1,4.7,2.5,10.4-1,13.9c-1.7,1.7-4,2.5-6.2,3.5c-2.2,1-4.2,2.7-4.7,5c-0.5,4.5,5.5,7.5,5.5,11.9
	c0,3.2-3.2,5.5-5.7,7.5c-2.7,2-5.2,5.2-4,8.2c1,2.2,4,3,6.5,3.7c2.5,0.7,5.2,2.7,4.7,5.2c-0.5,2.2-3.2,3.2-4.2,5.2
	c-1,2.5,1.7,5.2,4.5,5.2c1.7,0,3.2-0.2,4.7-1c1-0.5,1.7-1,2.7-1.5c1.2-0.7,2.7-1.5,4.2-2.2c3.5-1.7,7.2-3.7,10.4-5.5
	c1,1.2,2,2.2,3,3.2c4.7,4.5,10.2,7.9,16.1,10.2c0.7,0.2,1.7,0.5,2.5,0.7c3,1,6.2,1.5,9.4,1c1-0.2,2-0.5,3-1c2-1,3.5-2.2,4.5-4.2
	c1.2-3,0.7-6.7-2-8.4c1,0,2-0.2,2.7-0.5c3.5-1,6.2-3.7,7.5-7c1.5-4.2,0.5-9.2-2.7-12.4c6.7,1.2,13.7-1.7,18.1-6.7
	c4.7-5,7.2-11.4,8.2-18.1C373.4,154.6,369.1,139.2,359.9,128z"/>
<linearGradient id="SVGID_1_" gradientUnits="userSpaceOnUse" x1="121.9096" y1="556.5713" x2="186.0686" y2="556.5713" gradientTransform="matrix(2.4835 0 0 -2.4835 0 1543.7864)">
	<stop  offset="0" style="stop-color:#F1DBD9"/>
	<stop  offset="1" style="stop-color:#E4B6B3"/>
</linearGradient>
<path fill="url(#SVGID_1_)" d="M350.3,157.1c-2.5-2-3-6-2.2-9.2c0.7-3.2,2.2-6.2,2.7-9.4c0.5-3.2-0.5-7.2-3.2-8.7
	c0,0-19.9-3.7-24.3,10.2c-2,6.2-6.7,10.7-6.7,10.7c0.2-7.9-6.7-5.7-8.4-4.2c-1.7,1.7-2,4.5-0.7,6.7c1.2,2,3.5,3.7,5.7,3.5l-7.2,24.6
	l-0.7,3l-2.2,6c4.7,2.7,10.9,1.2,15.6,3.7c0.5-0.5,1-1.2,1.5-2.2c0.2-0.5,0.5-1.2,0.7-2c0.5-1.7,1.2-3.2,2-4.7
	c2.2-4.5,5.2-7.5,6.7-7.2c4,1,7.9,5,11.7,3.2c3-1.2,3.7-5.2,4-8.4c0.2-3.2,0.7-7.2,3.5-8.7c2-1,5-1.2,5-3.5
	C353.5,158.8,351.5,158.1,350.3,157.1z"/>
<path fill="#112664" d="M365.7,278H261.6v-54.6c0-19.1,15.4-34.5,34.5-34.5h35c19.1,0,34.5,15.4,34.5,34.5V278z"/>
<g>
	<path fill="#002653" d="M113.3,153.1l10.4-12.7c-2.2,0.2-4.2-1.2-5.2-3c-1-2-0.7-4.5,0.7-6c1.5-1.5,7.7-3.5,7.7,3.7
		c0,0,4.2-4,6-9.7c4-12.7,22.1-9.4,22.1-9.4c2.7,1.5,3.5,4.7,3.2,7.7c2-0.7,4.2-1,6.2-1.7c3.2-1.2,5.7-3.7,7.2-7
		c1.7-4,2-8.7,0.2-12.9c-3.2-7.2-11.4-11.4-19.4-10.9c1.2,1.5,0.2,3.7-1.2,5c-1.5,1-3.5,1.2-5.5,1.2c-5.7,0-11.2-1.5-16.6-1.5
		c-5.7-0.2-11.7,1.2-15.4,5.5c-3.5,4-3.5,10.7,0.5,13.9c0.2,0.2,0.7,0.5,1,0.7C116.6,128,116.1,140.7,113.3,153.1z"/>
	
		<linearGradient id="SVGID_2_" gradientUnits="userSpaceOnUse" x1="40.3357" y1="561.9431" x2="102.1853" y2="561.9431" gradientTransform="matrix(2.4835 0 0 -2.4835 0 1543.7864)">
		<stop  offset="0" style="stop-color:#F1DBD9"/>
		<stop  offset="1" style="stop-color:#E4B6B3"/>
	</linearGradient>
	<path fill="url(#SVGID_2_)" d="M158,140.4c-2.2-2-2.7-5.5-2.2-8.2c0.5-3,2-5.7,2.2-8.7l0,0c0.2-3-0.5-6.5-3.2-7.7
		c0,0-18.1-3-22.1,9.4c-1.7,5.7-6,9.7-6,9.7c0-7.2-6.2-5.2-7.7-3.7s-1.7,4.2-0.7,6c1,2,3.2,3.2,5.2,3l-10.4,12.7l-4.2,5l-8.7,10.7
		c0.2,9.2,11.2,11.7,17.4,12.4c1.5-2.5,6.7-12.2,9.9-16.4c0.7-1,1.2-1.5,1.7-2c2.7-2.2,6.5-3.7,9.9-2.7c3.7,1,7.2,4.5,10.7,2.7
		c2.7-1.2,3.2-4.7,3.5-7.7c0.2-3,0.5-6.5,3.2-7.9c1.7-1,4.5-1.2,4.5-3.2C160.8,142.2,159,141.4,158,140.4z"/>
	<path fill="#112664" d="M167,278H63.2v-78.2c0-17.9,14.7-32.5,32.5-32.5h39c17.9,0,32.5,14.7,32.5,32.5V278H167z"/>
</g>
<path fill="#5EA4B0" d="M592.1,278H438.7c-6.5,0-11.4-5.2-11.4-11.4V152.9c0-6.5,5.2-11.4,11.4-11.4h153.5c6.5,0,11.4,5.2,11.4,11.4
	v113.7C603.6,272.8,598.4,278,592.1,278z"/>
<path fill="#002653" d="M506.5,181.9c1,0.2,2.2,0.5,3.2,0.7c0.5,0,1,0.2,1.5,0.2l-2-1.2C508.2,181.7,507.5,181.7,506.5,181.9z"/>
<path fill="#002653" d="M570.5,128.5c-1-4.7-4.5-8.9-9.2-9.9c0-1.5-0.5-3-1-4.5c-1-2.2-2.2-4-4-5.7c-2.7-2.7-6.2-4.5-9.9-5.5
	c-10.7-3.5-23.1-2.2-32.3,4.2c-2.7,2-5,4.2-6.7,7c-4.7,6.5-6.7,14.9-4.7,22.6c-4.7,1.2-8.4,5.2-9.9,9.9c-1.2,4.7,0,9.9,3.2,13.7
	c-3.7,1.2-6,5.7-5.2,9.7c0.7,4,3.7,7,7.5,8.9c0.7,0.5,1.7,0.7,2.7,1.2c1.7,0.7,3.7,1.2,5.5,1.5c1,0.2,2.2,0.5,3.2,0.7
	c0.5,0,1,0.2,1.5,0.2c2.5,0.5,5,0.7,7.2,0c3.5-1,6.2-3.7,9.7-5c5.5-2,11.7,0.7,17.6,0.2c1.2,0,2.5-0.2,3.7-0.7
	c4-1.2,7.7-4.2,9.7-7.9c2.7-5,2.7-11.2,0-16.1c3.2-3.5,6.5-7,8.9-11.2C570.3,138.2,571.5,133.2,570.5,128.5z"/>
<linearGradient id="SVGID_3_" gradientUnits="userSpaceOnUse" x1="203.5773" y1="555.9789" x2="271.2449" y2="555.9789" gradientTransform="matrix(2.4835 0 0 -2.4835 0 1543.7864)">
	<stop  offset="0" style="stop-color:#F1DBD9"/>
	<stop  offset="1" style="stop-color:#E4B6B3"/>
</linearGradient>
<path fill="url(#SVGID_3_)" d="M555.9,158.3c-2.7-2.2-3-6.2-2.2-9.7c0.7-3.5,2.2-6.7,2.7-9.9c0.5-3.5-0.5-7.5-3.5-9.2
	c0,0-20.9-4-25.6,10.7c-2.2,6.7-7.2,11.2-7.2,11.2c0.2-8.2-7-6.2-8.7-4.2c-1.7,1.7-2,4.7-1,7c1.2,2.2,3.7,3.7,6.2,3.5l-7.5,26.1
	l-1,3.2l-2.2,6.2c5,3,11.7,1.2,16.6,4c0.5-0.7,1-1.5,1.5-2.2c0.2-0.5,0.5-1.2,0.7-2c0.5-1.7,1.2-3.5,2-5c2.2-4.7,5.5-7.9,7-7.5
	c4.2,1.2,8.4,5.2,12.4,3.5c3.2-1.5,4-5.5,4-8.9c0.2-3.5,0.7-7.5,3.7-9.2c2-1,5.2-1.5,5.2-3.7C559.1,160.3,557.1,159.3,555.9,158.3z"
	/>
<path fill="#112664" d="M569.3,278H459.8v-56.1c0-19.9,16.1-36,36-36h37.5c19.9,0,36,16.1,36,36V278z"/>
<path fill="#BF2C5D" d="M592.1,475.5H438.7c-6.5,0-11.4-5.2-11.4-11.4V350.3c0-6.5,5.2-11.4,11.4-11.4h153.5
	c6.5,0,11.4,5.2,11.4,11.4V464C603.6,470.2,598.4,475.5,592.1,475.5z"/>
<path fill="#002653" d="M506.5,379.3c1,0.2,2.2,0.5,3.2,0.7c0.5,0,1,0.2,1.5,0.2l-2-1.2C508.2,379.1,507.5,379.1,506.5,379.3z"/>
<path fill="#002653" d="M570.5,326c-1-4.7-4.5-8.9-9.2-9.9c0-1.5-0.5-3-1-4.5c-1-2.2-2.2-4-4-5.7c-2.7-2.7-6.2-4.5-9.9-5.5
	c-10.7-3.5-23.1-2.2-32.3,4.2c-2.7,2-5,4.2-6.7,7c-4.7,6.5-6.7,14.9-4.7,22.6c-4.7,1.2-8.4,5.2-9.9,9.9c-1.2,4.7,0,9.9,3.2,13.7
	c-3.7,1.2-6,5.7-5.2,9.7c0.7,4,3.7,7,7.5,8.9c0.7,0.5,1.7,0.7,2.7,1.2c1.7,0.7,3.7,1.2,5.5,1.5c1,0.2,2.2,0.5,3.2,0.7
	c0.5,0,1,0.2,1.5,0.2c2.5,0.5,5,0.7,7.2,0c3.5-1,6.2-3.7,9.7-5c5.5-2,11.7,0.7,17.6,0.2c1.2,0,2.5-0.2,3.7-0.7
	c4-1.2,7.7-4.2,9.7-7.9c2.7-5,2.7-11.2,0-16.1c3.2-3.5,6.5-7,8.9-11.2C570.3,335.6,571.5,330.7,570.5,326z"/>
<linearGradient id="SVGID_4_" gradientUnits="userSpaceOnUse" x1="203.5773" y1="476.4789" x2="271.2449" y2="476.4789" gradientTransform="matrix(2.4835 0 0 -2.4835 0 1543.7864)">
	<stop  offset="0" style="stop-color:#F1DBD9"/>
	<stop  offset="1" style="stop-color:#E4B6B3"/>
</linearGradient>
<path fill="url(#SVGID_4_)" d="M555.9,355.8c-2.7-2.2-3-6.2-2.2-9.7c0.7-3.5,2.2-6.7,2.7-9.9c0.5-3.5-0.5-7.5-3.5-9.2
	c0,0-20.9-4-25.6,10.7c-2.2,6.7-7.2,11.2-7.2,11.2c0.2-8.2-7-6.2-8.7-4.2c-1.7,1.7-2,4.7-1,7c1.2,2.2,3.7,3.7,6.2,3.5l-7.5,26.1
	l-1,3.2l-2.2,6.2c5,3,11.7,1.2,16.6,4c0.5-0.7,1-1.5,1.5-2.2c0.2-0.5,0.5-1.2,0.7-2c0.5-1.7,1.2-3.5,2-5c2.2-4.7,5.5-7.9,7-7.5
	c4.2,1.2,8.4,5.2,12.4,3.5c3.2-1.5,4-5.5,4-8.9c0.2-3.5,0.7-7.5,3.7-9.2c2-1,5.2-1.5,5.2-3.7C559.1,357.7,557.1,356.7,555.9,355.8z"
	/>
<path fill="#112664" d="M569.3,475.5H459.8v-56.1c0-19.9,16.1-36,36-36h37.5c19.9,0,36,16.1,36,36V475.5z"/>
<path fill="#BF2C5D" d="M194.8,476.7H41.3c-6.5,0-11.4-5.2-11.4-11.4V351.5c0-6.5,5.2-11.4,11.4-11.4h153.5
	c6.5,0,11.4,5.2,11.4,11.4v113.7C206.2,471.5,201,476.7,194.8,476.7z"/>
<path fill="#002653" d="M161.3,326.7c5-1.7,3.5-16.4-8.7-23.3c-8.9-5.2-19.9-6.5-30.3-6c-10.4,0.5-20.9,4.2-28.1,11.4
	c-10.7,10.7-13.4,27.8-9.9,42.5c1,4.7,2.5,10.4-1,13.9c-1.7,1.7-4,2.5-6.2,3.5c-2.2,1-4.2,2.7-4.7,5c-0.5,4.5,5.5,7.5,5.5,11.9
	c0,3.2-3.2,5.5-5.7,7.5c-2.7,2-5.2,5.2-4,8.2c1,2.2,4,3,6.5,3.7s5.2,2.7,4.7,5.2c-0.5,2.2-3.2,3.2-4.2,5.2c-1,2.5,1.7,5.2,4.5,5.2
	c1.7,0,3.2-0.2,4.7-1c1-0.5,1.7-1,2.7-1.5c1.2-0.7,2.7-1.5,4.2-2.2c3.5-1.7,7.2-3.7,10.4-5.5c1,1.2,2,2.2,3,3.2
	c4.7,4.5,10.2,7.9,16.1,10.2c0.7,0.2,1.7,0.5,2.5,0.7c3,1,6.2,1.5,9.4,1c1-0.2,2-0.5,3-1c2-1,3.5-2.2,4.5-4.2c1.2-3,0.7-6.7-2-8.4
	c1,0,2-0.2,2.7-0.5c3.5-1,6.2-3.7,7.5-7c1.5-4.2,0.5-9.2-2.7-12.4c6.7,1.2,13.7-1.7,18.1-6.7c4.7-5,7.2-11.4,8.2-18.1
	C174.7,353.3,170.5,337.9,161.3,326.7z"/>
<linearGradient id="SVGID_5_" gradientUnits="userSpaceOnUse" x1="41.9096" y1="476.5713" x2="106.0686" y2="476.5713" gradientTransform="matrix(2.4835 0 0 -2.4835 0 1543.7864)">
	<stop  offset="0" style="stop-color:#F1DBD9"/>
	<stop  offset="1" style="stop-color:#E4B6B3"/>
</linearGradient>
<path fill="url(#SVGID_5_)" d="M151.6,355.8c-2.5-2-3-6-2.2-9.2c0.7-3.2,2.2-6.2,2.7-9.4c0.5-3.2-0.5-7.2-3.2-8.7
	c0,0-19.9-3.7-24.3,10.2c-2,6.2-6.7,10.7-6.7,10.7c0.2-7.9-6.7-5.7-8.4-4.2c-1.7,1.7-2,4.5-0.7,6.7c1.2,2,3.5,3.7,5.7,3.5l-7.2,24.6
	l-0.7,3l-2.2,6c4.7,2.7,10.9,1.2,15.6,3.7c0.5-0.5,1-1.2,1.5-2.2c0.2-0.5,0.5-1.2,0.7-2c0.5-1.7,1.2-3.2,2-4.7
	c2.2-4.5,5.2-7.5,6.7-7.2c4,1,7.9,5,11.7,3.2c3-1.2,3.7-5.2,4-8.4c0.2-3.2,0.7-7.2,3.5-8.7c2-1,5-1.2,5-3.5
	C154.8,357.5,152.8,356.7,151.6,355.8z"/>
<path fill="#112664" d="M167,476.7H62.9v-54.6c0-19.1,15.4-34.5,34.5-34.5h35c19.1,0,34.5,15.4,34.5,34.5V476.7z"/>
<path fill="#5EA4B0" d="M394.7,476.7H241.2c-6.5,0-11.4-5.2-11.4-11.4V351.5c0-6.5,5.2-11.4,11.4-11.4h153.5
	c6.5,0,11.4,5.2,11.4,11.4v113.7C406.1,471.5,400.9,476.7,394.7,476.7z"/>
<g>
	<path fill="#002653" d="M313.3,351.8l10.4-12.7c-2.2,0.2-4.2-1.2-5.2-3c-1-2-0.7-4.5,0.7-6c1.5-1.5,7.7-3.5,7.7,3.7
		c0,0,4.2-4,6-9.7c4-12.7,22.1-9.4,22.1-9.4c2.7,1.5,3.5,4.7,3.2,7.7c2-0.7,4.2-1,6.2-1.7c3.2-1.2,5.7-3.7,7.2-7
		c1.7-4,2-8.7,0.2-12.9c-3.2-7.2-11.4-11.4-19.4-10.9c1.2,1.5,0.2,3.7-1.2,5c-1.5,1-3.5,1.2-5.5,1.2c-5.7,0-11.2-1.5-16.6-1.5
		c-5.7-0.2-11.7,1.2-15.4,5.5c-3.5,4-3.5,10.7,0.5,13.9c0.2,0.2,0.7,0.5,1,0.7C316.5,326.7,316,339.4,313.3,351.8z"/>
	
		<linearGradient id="SVGID_6_" gradientUnits="userSpaceOnUse" x1="120.851" y1="481.9931" x2="182.7006" y2="481.9931" gradientTransform="matrix(2.4835 0 0 -2.4835 0 1543.7864)">
		<stop  offset="0" style="stop-color:#F1DBD9"/>
		<stop  offset="1" style="stop-color:#E4B6B3"/>
	</linearGradient>
	<path fill="url(#SVGID_6_)" d="M358,339.1c-2.2-2-2.7-5.5-2.2-8.2c0.5-3,2-5.7,2.2-8.7l0,0c0.2-3-0.5-6.5-3.2-7.7
		c0,0-18.1-3-22.1,9.4c-1.7,5.7-6,9.7-6,9.7c0-7.2-6.2-5.2-7.7-3.7c-1.5,1.5-1.7,4.2-0.7,6c1,2,3.2,3.2,5.2,3L313,351.5l-4.2,5
		l-8.9,10.4c0.2,9.2,11.2,11.7,17.4,12.4c1.5-2.5,6.7-12.2,9.9-16.4c0.7-1,1.2-1.5,1.7-2c2.7-2.2,6.5-3.7,9.9-2.7
		c3.7,1,7.2,4.5,10.7,2.7c2.7-1.2,3.2-4.7,3.5-7.7c0.2-3,0.5-6.5,3.2-7.9c1.7-1,4.5-1.2,4.5-3.2C360.7,340.9,358.9,340.1,358,339.1z
		"/>
	<path fill="#112664" d="M366.9,476.7H263.1v-78.2c0-17.9,14.7-32.5,32.5-32.5h39c17.9,0,32.5,14.7,32.5,32.5v78.2H366.9z"/>
</g>
<path fill="#704085" d="M790.8,276.8H637.3c-6.5,0-11.4-5.2-11.4-11.4V151.6c0-6.5,5.2-11.4,11.4-11.4h153.5
	c6.5,0,11.4,5.2,11.4,11.4v113.7C802.2,271.6,797,276.8,790.8,276.8z"/>
<path fill="#002653" d="M700.2,379.3c1,0.2,2.2,0.5,3.2,0.7c0.5,0,1,0.2,1.5,0.2l-2-1.2C701.9,379.1,701.2,379.1,700.2,379.3z"/>
<path fill="#002653" d="M769.2,127.3c-1-4.7-4.5-8.9-9.2-9.9c0-1.5-0.5-3-1-4.5c-1-2.2-2.2-4-4-5.7c-2.7-2.7-6.2-4.5-9.9-5.5
	c-10.7-3.5-23.1-2.2-32.3,4.2c-2.7,2-5,4.2-6.7,7c-4.7,6.5-6.7,14.9-4.7,22.6c-4.7,1.2-8.4,5.2-9.9,9.9c-1.2,4.7,0,9.9,3.2,13.7
	c-3.7,1.2-6,5.7-5.2,9.7c0.7,4,3.7,7,7.5,8.9c0.7,0.5,1.7,0.7,2.7,1.2c1.7,0.7,3.7,1.2,5.5,1.5c1,0.2,2.2,0.5,3.2,0.7
	c0.5,0,1,0.2,1.5,0.2c2.5,0.5,5,0.7,7.2,0c3.5-1,6.2-3.7,9.7-5c5.5-2,11.7,0.7,17.6,0.2c1.2,0,2.5-0.2,3.7-0.7
	c4-1.2,7.7-4.2,9.7-7.9c2.7-5,2.7-11.2,0-16.1c3.2-3.5,6.5-7,8.9-11.2C769,137,770.2,132,769.2,127.3z"/>
<linearGradient id="SVGID_7_" gradientUnits="userSpaceOnUse" x1="283.5771" y1="556.4789" x2="351.2449" y2="556.4789" gradientTransform="matrix(2.4835 0 0 -2.4835 0 1543.7864)">
	<stop  offset="0" style="stop-color:#F1DBD9"/>
	<stop  offset="1" style="stop-color:#E4B6B3"/>
</linearGradient>
<path fill="url(#SVGID_7_)" d="M754.6,157.1c-2.7-2.2-3-6.2-2.2-9.7c0.7-3.5,2.2-6.7,2.7-9.9c0.5-3.5-0.5-7.5-3.5-9.2
	c0,0-20.9-4-25.6,10.7c-2.2,6.7-7.2,11.2-7.2,11.2c0.2-8.2-7-6.2-8.7-4.2c-1.7,1.7-2,4.7-1,7c1.2,2.2,3.7,3.7,6.2,3.5l-7.5,26.1
	l-1,3.2l-2.2,6.2c5,3,11.7,1.2,16.6,4c0.5-0.7,1-1.5,1.5-2.2c0.2-0.5,0.5-1.2,0.7-2c0.5-1.7,1.2-3.5,2-5c2.2-4.7,5.5-7.9,7-7.5
	c4.2,1.2,8.4,5.2,12.4,3.5c3.2-1.5,4-5.5,4-8.9c0.2-3.5,0.7-7.5,3.7-9.2c2-1,5.2-1.5,5.2-3.7C757.8,159.1,755.8,158.1,754.6,157.1z"
	/>
<path fill="#112664" d="M758,276.6H654V222c0-19.1,15.4-34.5,34.5-34.5h35c19.1,0,34.5,15.4,34.5,34.5V276.6z"/>
<path fill="#704085" d="M792.1,476.7H638.6c-6.5,0-11.4-5.2-11.4-11.4V351.5c0-6.5,5.2-11.4,11.4-11.4h153.5
	c6.5,0,11.4,5.2,11.4,11.4v113.7C803.5,471.5,798.3,476.7,792.1,476.7z"/>
<g>
	<path fill="#002653" d="M710.6,351.8l10.4-12.7c-2.2,0.2-4.2-1.2-5.2-3c-1-2-0.7-4.5,0.7-6c1.5-1.5,7.7-3.5,7.7,3.7
		c0,0,4.2-4,6-9.7c4-12.7,22.1-9.4,22.1-9.4c2.7,1.5,3.5,4.7,3.2,7.7c2-0.7,4.2-1,6.2-1.7c3.2-1.2,5.7-3.7,7.2-7
		c1.7-4,2-8.7,0.2-12.9c-3.2-7.2-11.4-11.4-19.4-10.9c1.2,1.5,0.2,3.7-1.2,5c-1.5,1-3.5,1.2-5.5,1.2c-5.7,0-11.2-1.5-16.6-1.5
		c-5.7-0.2-11.7,1.2-15.4,5.5c-3.5,4-3.5,10.7,0.5,13.9c0.2,0.2,0.7,0.5,1,0.7C713.8,326.7,713.3,339.4,710.6,351.8z"/>
	
		<linearGradient id="SVGID_8_" gradientUnits="userSpaceOnUse" x1="280.851" y1="481.9931" x2="342.7006" y2="481.9931" gradientTransform="matrix(2.4835 0 0 -2.4835 0 1543.7864)">
		<stop  offset="0" style="stop-color:#F1DBD9"/>
		<stop  offset="1" style="stop-color:#E4B6B3"/>
	</linearGradient>
	<path fill="url(#SVGID_8_)" d="M755.3,339.1c-2.2-2-2.7-5.5-2.2-8.2c0.5-3,2-5.7,2.2-8.7l0,0c0.2-3-0.5-6.5-3.2-7.7
		c0,0-18.1-3-22.1,9.4c-1.7,5.7-6,9.7-6,9.7c0-7.2-6.2-5.2-7.7-3.7c-1.5,1.5-1.7,4.2-0.7,6c1,2,3.2,3.2,5.2,3l-10.4,12.7l-4.2,5
		l-8.9,10.4c0.2,9.2,11.2,11.7,17.4,12.4c1.5-2.5,6.7-12.2,9.9-16.4c0.7-1,1.2-1.5,1.7-2c2.7-2.2,6.5-3.7,9.9-2.7
		c3.7,1,7.2,4.5,10.7,2.7c2.7-1.2,3.2-4.7,3.5-7.7s0.5-6.5,3.2-7.9c1.7-1,4.5-1.2,4.5-3.2C758,340.9,756.3,340.1,755.3,339.1z"/>
	<path fill="#112664" d="M764.2,476.7H660.4v-78.2c0-17.9,14.7-32.5,32.5-32.5h39c17.9,0,32.5,14.7,32.5,32.5v78.2H764.2z"/>
</g>
</svg>
