<?xml version="1.0" encoding="utf-8"?>
<!-- Generator: Adobe Illustrator 18.0.0, SVG Export Plug-In . SVG Version: 6.00 Build 0)  -->
<!DOCTYPE svg PUBLIC "-//W3C//DTD SVG 1.1//EN" "http://www.w3.org/Graphics/SVG/1.1/DTD/svg11.dtd">
<svg version="1.1" id="Layer_1" xmlns="http://www.w3.org/2000/svg" xmlns:xlink="http://www.w3.org/1999/xlink" x="0px" y="0px"
	 viewBox="7.2 77.3 826.5 447.3" enable-background="new 7.2 77.3 826.5 447.3" xml:space="preserve">
<g>
	<g>
		<polygon fill="#9E9D98" points="89.7,407.9 77.2,449.9 82,449.9 96.1,407.9 		"/>
		<polygon fill="#D5D4C9" points="106,407.9 96.1,407.9 82,449.9 87.9,449.9 		"/>
	</g>
	<g>
		<polygon fill="#9E9D98" points="25.1,402.4 12.7,444.2 17.4,444.2 31.5,402.4 		"/>
		<polygon fill="#D5D4C9" points="41.5,402.4 31.5,402.4 17.4,444.2 23.1,444.2 		"/>
	</g>
</g>
<g>
	<g>
		<polygon fill="#9E9D98" points="334.5,396.2 346.9,438.2 342,438.2 328.1,396.2 		"/>
		<polygon fill="#D5D4C9" points="318.1,396.2 328.1,396.2 342,438.2 336.3,438.2 		"/>
	</g>
	<g>
		<polygon fill="#9E9D98" points="399.1,402.4 411.5,444.2 406.8,444.2 392.6,402.4 		"/>
		<polygon fill="#D5D4C9" points="382.7,402.4 392.6,402.4 406.8,444.2 400.8,444.2 		"/>
	</g>
</g>
<path fill="#5EA4B0" d="M290.6,200.8h-32.8H34l35,156.5h232.2h32.5V244C333.8,220.2,314.4,200.8,290.6,200.8z"/>
<linearGradient id="SVGID_1_" gradientUnits="userSpaceOnUse" x1="20.75" y1="527.0466" x2="20.75" y2="477.4243" gradientTransform="matrix(2.4835 0 0 -2.4835 0 1543.7864)">
	<stop  offset="5.376340e-002" style="stop-color:#014D72"/>
	<stop  offset="1" style="stop-color:#002653"/>
</linearGradient>
<path fill="url(#SVGID_1_)" d="M34,200.8v156.5h35V235.8C69,216.4,53.4,200.8,34,200.8L34,200.8z"/>
<linearGradient id="SVGID_2_" gradientUnits="userSpaceOnUse" x1="145.9" y1="493.6441" x2="145.9" y2="475.5232" gradientTransform="matrix(2.4835 0 0 -2.4835 0 1543.7864)">
	<stop  offset="5.376340e-002" style="stop-color:#014D72"/>
	<stop  offset="1" style="stop-color:#002653"/>
</linearGradient>
<path fill="url(#SVGID_2_)" d="M417.7,406.7V293.2h-78.5c-17.9,0-32.3,14.4-32.3,32.3v91.4h70h30.3L417.7,406.7z"/>
<path fill="#14869C" d="M417.7,293.2L417.7,293.2v113.5c0,5.7-4.5,10.2-10.2,10.2h-30.3v-83.1C377,311.6,395.1,293.2,417.7,293.2z"
	/>
<linearGradient id="SVGID_3_" gradientUnits="userSpaceOnUse" x1="99.6995" y1="474.3936" x2="99.6995" y2="477.4366" gradientTransform="matrix(2.4835 0 0 -2.4835 0 1543.7864)">
	<stop  offset="5.376340e-002" style="stop-color:#014D72"/>
	<stop  offset="1" style="stop-color:#002653"/>
</linearGradient>
<rect x="118" y="357.2" fill="url(#SVGID_3_)" width="259.3" height="50.7"/>
<rect x="118" y="366.2" fill="#14869C" width="279.5" height="50.7"/>
<path fill="#14869C" d="M79.2,293.2L79.2,293.2c22.4,0,40.7,18.1,40.7,40.7v82.9H79.2V293.2z"/>
<linearGradient id="SVGID_4_" gradientUnits="userSpaceOnUse" x1="17.4" y1="501.3807" x2="17.4" y2="430.666" gradientTransform="matrix(2.4835 0 0 -2.4835 0 1543.7864)">
	<stop  offset="5.376340e-002" style="stop-color:#014D72"/>
	<stop  offset="1" style="stop-color:#002653"/>
</linearGradient>
<path fill="url(#SVGID_4_)" d="M36.8,416.8h42.5V293.2H32.3c-13.9,0-25.1,11.2-25.1,25.1v69C7.2,403.7,20.4,416.8,36.8,416.8z"/>
<g>
	<g>
		<polygon fill="#9E9D98" points="750,407.9 762.4,449.9 757.7,449.9 743.5,407.9 		"/>
		<polygon fill="#D5D4C9" points="733.6,407.9 743.5,407.9 757.7,449.9 751.7,449.9 		"/>
	</g>
	<g>
		<polygon fill="#9E9D98" points="814.6,402.4 827,444.2 822.3,444.2 808.1,402.4 		"/>
		<polygon fill="#D5D4C9" points="798.2,402.4 808.1,402.4 822.3,444.2 816.6,444.2 		"/>
	</g>
</g>
<g>
	<g>
		<polygon fill="#9E9D98" points="616.9,396.2 604.5,438.2 609.2,438.2 623.3,396.2 		"/>
		<polygon fill="#D5D4C9" points="633.3,396.2 623.3,396.2 609.2,438.2 615.2,438.2 		"/>
	</g>
	<g>
		<polygon fill="#9E9D98" points="552.3,402.4 539.9,444.2 544.6,444.2 558.8,402.4 		"/>
		<polygon fill="#D5D4C9" points="568.7,402.4 558.8,402.4 544.6,444.2 550.6,444.2 		"/>
	</g>
</g>
<path fill="#5EA4B0" d="M626.6,200.8h24.1h163.4l-25.6,156.5H618.6H595V244C595,220.2,609.2,200.8,626.6,200.8z"/>
<linearGradient id="SVGID_5_" gradientUnits="userSpaceOnUse" x1="594.429" y1="527.0466" x2="594.429" y2="477.4243" gradientTransform="matrix(-2.4835 0 0 -2.4835 2277.521 1543.7864)">
	<stop  offset="5.376340e-002" style="stop-color:#014D72"/>
	<stop  offset="1" style="stop-color:#002653"/>
</linearGradient>
<path fill="url(#SVGID_5_)" d="M814.1,200.8v156.5h-25.6V235.8C788.5,216.4,799.9,200.8,814.1,200.8L814.1,200.8z"/>
<linearGradient id="SVGID_6_" gradientUnits="userSpaceOnUse" x1="685.8789" y1="493.6441" x2="685.8789" y2="475.5232" gradientTransform="matrix(-2.4835 0 0 -2.4835 2277.521 1543.7864)">
	<stop  offset="5.376340e-002" style="stop-color:#014D72"/>
	<stop  offset="1" style="stop-color:#002653"/>
</linearGradient>
<path fill="url(#SVGID_6_)" d="M533.7,406.7V293.2h57.4c12.9,0,23.6,14.4,23.6,32.3v91.4h-51.2h-22.1L533.7,406.7z"/>
<path fill="#14869C" d="M533.7,293.2L533.7,293.2v113.5c0,5.7,3.2,10.2,7.5,10.2h22.1v-83.1C563.5,311.6,550.1,293.2,533.7,293.2z"
	/>
<linearGradient id="SVGID_7_" gradientUnits="userSpaceOnUse" x1="652.1282" y1="474.3936" x2="652.1282" y2="477.4366" gradientTransform="matrix(-2.4835 0 0 -2.4835 2277.521 1543.7864)">
	<stop  offset="5.376340e-002" style="stop-color:#014D72"/>
	<stop  offset="1" style="stop-color:#002653"/>
</linearGradient>
<rect x="563.3" y="357.2" fill="url(#SVGID_7_)" width="189.5" height="50.7"/>
<rect x="559.3" y="366.2" fill="#14869C" width="193.5" height="50.7"/>
<path fill="#14869C" d="M781,293.2L781,293.2c-16.4,0-29.8,18.1-29.8,40.7v82.9H781V293.2z"/>
<linearGradient id="SVGID_8_" gradientUnits="userSpaceOnUse" x1="591.9789" y1="501.3807" x2="591.9789" y2="430.666" gradientTransform="matrix(-2.4835 0 0 -2.4835 2277.521 1543.7864)">
	<stop  offset="5.376340e-002" style="stop-color:#014D72"/>
	<stop  offset="1" style="stop-color:#002653"/>
</linearGradient>
<path fill="url(#SVGID_8_)" d="M808.4,416.8H781V293.2h31.3c11.7,0,21.4,9.4,21.4,21.4v77C833.7,405.4,822.3,416.8,808.4,416.8z"/>
<path fill="#112664" d="M189,269.8c3.2-5.5,7.7-10.2,12.9-13.9c-2.5-2.2-8.9-8.4-9.4-9.2c-0.2-1-0.2-35.8-0.2-43
	c0-4.2-1.2-8.9-5-10.7c-2.7-1.5-6.5-0.7-9.2,1c-5.7,3.5-8.4,9.9-10.4,16.1c-5.7,16.9,3.5,45.7,3.7,46.9
	C172.1,258.4,183.8,267.3,189,269.8z"/>
<linearGradient id="SVGID_9_" gradientUnits="userSpaceOnUse" x1="76.1199" y1="513.3307" x2="91.2908" y2="513.3307" gradientTransform="matrix(2.4835 0 0 -2.4835 0 1543.7864)">
	<stop  offset="0" style="stop-color:#F5E5DA"/>
	<stop  offset="1" style="stop-color:#E2B0A8;stop-opacity:0.9697"/>
</linearGradient>
<path fill="url(#SVGID_9_)" d="M201.9,256.2l24.8,20.6l-2.5,5l-35-11.7C189,269.8,196.7,255.9,201.9,256.2z"/>
<g>
	<polygon fill="#E2B0A8" points="226.7,276.8 234.7,294.7 232.9,296.6 223,288.2 224,281.5 	"/>
	<polygon fill="#E2B0A8" points="228.5,292.7 226.7,298.1 222.3,301.1 222,300.1 225.2,296.9 227,291.4 	"/>
	<polygon fill="#E2B0A8" points="230.5,293.7 229.7,299.1 226.2,303.1 225.7,302.1 228,298.4 228.5,292.7 	"/>
	<polygon fill="#E2B0A8" points="232.5,294.4 232.9,299.9 230,304.6 229.5,303.6 231,299.4 230.5,293.9 	"/>
	<polygon fill="#E2B0A8" points="234.7,294.7 235.2,300.4 232.2,304.8 231.7,303.8 233.2,299.6 232.7,294.2 	"/>
</g>
<path fill="#112664" d="M155.5,166.3c-2,0-3.7,0.7-5.7,1.5c-10.2,4.2-20.4,8.2-30.5,12.4c-1.7,0.7-3.5,1.5-4.5,3c-1,1.2-1,3-1,4.7
	c-1.7,43,9.4,97.6,24.6,137.6c20.4,0.2,41.2-8.4,61.8-12.2c-10.2-27.8-15.6-74-4.7-101.6c2-5,1.2-13.7-0.7-18.6
	c-1-2.2-20.9-19.6-33.3-25.1C159.4,167,157.5,166,155.5,166.3z"/>
<path fill="#112664" d="M134.1,285.2c1.5-7.5,4.7-14.7,9.4-20.9c-3.7-1.7-13.4-6.2-14.2-7.2c-0.7-1,0.5-56.1-2.2-64.6
	c-1.5-4.7-5-9.7-9.9-10.4c-3.7-0.5-7.7,1.5-10.2,4.5c-5.2,6-5.7,14.7-5.7,22.6c0,21.4,7,66.6,7.7,67.5
	C110.3,278.5,126.9,284.2,134.1,285.2z"/>
<linearGradient id="SVGID_10_" gradientUnits="userSpaceOnUse" x1="54" y1="510.98" x2="72.4399" y2="510.98" gradientTransform="matrix(2.4835 0 0 -2.4835 0 1543.7864)">
	<stop  offset="0" style="stop-color:#F5E5DA"/>
	<stop  offset="1" style="stop-color:#E2B0A8;stop-opacity:0.9697"/>
</linearGradient>
<path fill="url(#SVGID_10_)" d="M143.5,264.4l36.5,14.2l-1.2,6.7h-44.7C134.1,285.2,137.6,266.1,143.5,264.4z"/>
<g>
	<polygon fill="#E2B0A8" points="179.8,278.5 195.7,296.1 194.7,299.1 179.8,293.2 178.8,285.2 	"/>
	<polygon fill="#E2B0A8" points="188,296.4 188,303.1 184,308.3 183.5,307.3 185.8,302.4 185.8,295.4 	"/>
	<polygon fill="#E2B0A8" points="190.5,296.6 192,303.1 189.2,309.1 188.5,308.1 189.7,302.9 188,296.1 	"/>
	<polygon fill="#E2B0A8" points="193.2,296.6 195.9,302.9 194.2,309.3 193.2,308.6 193.5,303.1 190.5,296.9 	"/>
	<polygon fill="#E2B0A8" points="195.7,296.1 198.4,302.4 196.9,308.8 195.9,308.1 195.9,302.6 193.2,296.4 	"/>
</g>
<polygon fill="#FCFCFC" points="228.5,292.4 227.5,299.9 229,299.9 230.7,295.2 "/>
<polygon fill="#9E9D98" points="285.8,340.6 266,331.2 173.1,359 247.4,362.2 247.4,374.1 256,398.2 283.9,357.2 "/>
<polygon fill="#CCCAC3" points="273.2,451.6 283.9,357.2 250.3,382.6 261,451.9 "/>
<path fill="#D5D4C9" d="M356.6,374.9c-0.2-0.5-58.4-50.7-58.4-50.7l-19.4-9.9l-6,28.8l72,35.5C345,378.4,356.6,374.9,356.6,374.9z"
	/>
<path fill="#D5D4C9" d="M138.8,325.2l7,20.4c5.2,15.4,22.1,24.6,39,21.1l93.4-23.6c7.5-1.5,12.7-7.7,12.7-14.7l0,0
	c0-8.2-7.2-14.9-15.9-14.9l-84.7,0.5L138.8,325.2z"/>
<g>
	<path fill="#ECE8D2" d="M221.8,309.8h82l12.2-50.2c1.2-4.7-2.5-8.9-7.2-8.9h-66.8c-3.5,0-6.2,2.2-7.2,5.7L221.8,309.8z"/>
	<path fill="#D5D4C9" d="M225,309.8l13.2-53.6c0.7-3.2,3.7-5.7,7.2-5.7h66.8c2.5,0,4.5,1.2,6,3L262,309.6h-37V309.8z"/>
	<path fill="#CCCAC3" d="M318.1,253.4c1.2,1.7,1.7,3.7,1.2,6l-12.2,50.2H262L318.1,253.4z"/>
	<path fill="#9E9D98" d="M188,309.8h70.5l-4.2,4.2h-70.5C183.8,311.5,185.8,309.8,188,309.8z"/>
	<path fill="#9E9D98" d="M307,309.8c0,2.2-1.7,4.2-4.2,4.2h-48.4l4.2-4.2H307z"/>
	<path fill="#ECE8D2" d="M183.8,313.8H221c2.2,0,4.2-1.7,4.2-4.2H188C185.8,309.8,183.8,311.5,183.8,313.8z"/>
</g>
<path fill="#112664" d="M196.4,144.7c2.7,2,7,2,9.7,0.2c2.7-2,4.2-5.7,3.5-8.9c5.5,2,11.4-4.7,9.2-9.9c3.5-0.5,6.5-3.5,6.7-7
	c0.2-3.5-2.5-7-6-7.7c1.7-4.2,0.5-9.4-3-12.7c-3.5-3.2-8.7-4-12.9-2c-0.2-5.5-3.7-10.7-8.9-12.7s-11.4-0.5-15.1,3.5
	c-8.4-5.7-21.9-1.5-25.6,8.2c-7-0.5-13.4,6.7-12.2,13.7c-4.2,0-8.2,2.7-9.4,6.7c-1.2,4,0,8.4,3.5,10.9c-4.5,5.2-1,14.9,6,15.9
	c-2,1.7-2.7,5-1.2,7.2s4.7,3.2,7,2c-0.5,3.7,1.5,7.5,4.7,9.2c3.2,1.7,7.5,1.5,10.4-0.7L196.4,144.7z"/>
<g>
	
		<linearGradient id="SVGID_11_" gradientUnits="userSpaceOnUse" x1="59.8586" y1="558.6915" x2="81.9933" y2="558.6915" gradientTransform="matrix(2.4835 0 0 -2.4835 0 1543.7864)">
		<stop  offset="0" style="stop-color:#F5E5DA"/>
		<stop  offset="1" style="stop-color:#E2B0A8;stop-opacity:0.9697"/>
	</linearGradient>
	<path fill="url(#SVGID_11_)" d="M197.7,123.8c2.7,1.5,3.5,5,3.2,7.9c-0.5,3-1.7,5.7-2.2,8.7c-0.5,3-0.2,6.5,2.2,8.2
		c1.2,1,2.7,1.7,2.7,3.2c0,2-2.7,2.2-4.5,3.2c-2.7,1.5-3,5-3.2,7.9c-0.2,3-0.7,6.5-3.5,7.7c-3.5,1.5-7-1.7-10.7-2.7
		c-3.5-1-7.2,0.5-9.9,2.7c-2.7,2.2-9.7,15.4-11.7,18.4c-6.2-0.7-11.7-9.7-11.7-18.9l18.1-21.9c-2.2,0.2-4.2-1.2-5.2-3
		c-1-2-0.7-4.5,0.7-6c1.5-1.5,7.7-3.5,7.7,3.7c0,0,4.2-4,6-9.7C179.6,120.8,197.7,123.8,197.7,123.8z"/>
</g>
<path fill="#002653" d="M261,451.9l12.2-0.2l14.9,7.2c0.2,0,0.5,0.2,0.7,0.2l17.6,1.5c0.7,0,1.2,0.5,1.7,1l0,0c1,1.5,0,3.5-1.7,3.5
	l-46.4,2.2c-1.5,0-2.7-1.2-2.2-2.7L261,451.9z"/>
<path fill="#002653" d="M346.7,377.9l9.4-3c0.2,0,0.7-0.2,1,0l15.9,2.7c0.2,0,0.5,0,0.7,0l17.4-3.5c0.7-0.2,1.2,0,2,0.5l0,0
	c1.2,1.2,1,3.2-0.7,4l-44,14.9c-1.5,0.5-3-0.5-3-2l-0.2-11.2C345,379.1,345.7,378.1,346.7,377.9z"/>
<g>
	<polygon fill="#E2B0A8" points="534.7,277.8 518.3,284.5 526.2,298.4 535.7,293.7 538.9,285.5 	"/>
	<g>
		<g>
			<path fill="#E2B0A8" d="M521.3,286.2c-4.5,0.5-8.4,2.2-11.4,5.5c-1.2,1.2-3.2-1-1.7-2.2c3.5-3.7,7.9-5.7,12.9-6.2
				C522.5,283.2,523,286.2,521.3,286.2L521.3,286.2z"/>
		</g>
	</g>
	<g>
		<g>
			<path fill="#E2B0A8" d="M523.3,290.7c-5.5,0.5-9.9,2.7-13.9,6.7c-1.2,1.2-3.2-1-1.7-2.2c4-4.2,9.4-6.7,15.1-7.2
				C524.5,287.7,525,290.4,523.3,290.7L523.3,290.7z"/>
		</g>
	</g>
	<g>
		<g>
			<path fill="#E2B0A8" d="M527.5,294.2c-5.5,0.5-9.9,2.7-13.9,6.7c-1.2,1.2-3.2-1-1.7-2.2c4-4.2,9.4-6.7,15.1-7.2
				C528.7,291.2,529.2,293.9,527.5,294.2L527.5,294.2z"/>
		</g>
	</g>
	<g>
		<g>
			<path fill="#E2B0A8" d="M532.9,295.2c-5,1.5-9.2,4.7-11.9,9.2c-1,1.5-3.2,0-2.2-1.7c3.2-5.2,7.9-8.7,13.7-10.4
				C534.2,291.7,534.7,294.7,532.9,295.2L532.9,295.2z"/>
		</g>
	</g>
</g>
<linearGradient id="SVGID_12_" gradientUnits="userSpaceOnUse" x1="778.8989" y1="528.8157" x2="772.313" y2="511.653" gradientTransform="matrix(-2.4835 0 0 -2.4835 2523.1733 1543.7864)">
	<stop  offset="0" style="stop-color:#F5E5DA"/>
	<stop  offset="1" style="stop-color:#E2B0A8;stop-opacity:0.9697"/>
</linearGradient>
<path fill="url(#SVGID_12_)" d="M534.7,277.8l67.8-0.5l24.3-63.1c3.2-8.9,12.9-15.9,21.4-11.2l0,0c7.2,4.2,7.5,14.2,3.5,21.6
	l-34.5,75.2c-1.2,3.2-79.2-12.7-79.2-12.7L534.7,277.8z"/>
<path fill="#002653" d="M657.4,209.7c-5.7,6.7-13.4,11.7-21.6,14.2c-3,1-6.2,1.5-9.4,1c-3.2-0.5-6.2-2.5-7.5-5.2
	c-1.2-3-0.7-6.7,2-8.4c-4.5-0.2-8.7-3.2-10.2-7.5c-1.5-4.2-0.5-9.2,2.7-12.4c-6.7,1.2-13.7-1.7-18.1-6.7c-4.7-5-7.2-11.4-8.2-18.1
	c-2.2-14.4,1.7-29.6,10.9-40.7c-5-1.7-3.5-16.4,8.7-23.3c8.9-5.2,19.9-6.5,30.3-6c10.4,0.5,20.9,4.2,28.1,11.4
	c10.7,10.7,13.4,27.8,9.9,42.5c-1,4.7-2.5,10.4,1,13.9c1.7,1.7,4,2.5,6.2,3.5c2.2,1,4.2,2.7,4.7,5c0.5,4.5-5.5,7.5-5.5,11.9
	c0,3.2,3.2,5.5,5.7,7.5c2.7,2,5.2,5.2,4,8.2c-1,2.2-4,3-6.5,3.7c-2.5,0.7-5.2,2.7-4.7,5.2c0.5,2.2,3.2,3.2,4.2,5.2
	c1,2.5-1.7,5.2-4.5,5.2c-2.7,0.2-5.2-1.2-7.5-2.5C667.6,214.9,661.8,212.5,657.4,209.7z"/>
<path fill="#BF2C5D" d="M625.8,199.5c4.2-6.5,6-18.6,14.7-19.6c20.4-2.5,31.5,17.4,33.5,34.3c1.2,10.9,2.2,22.1,3.2,33
	c0.5,6.7,0,16.4,3.5,22.4c6,10.7,20.1,34.5,28.3,47.9c2.7,4.7,4,9.7-1.5,9.9l-71.8,4.7c0,0-1.7-29.3,0-45.4
	c1.2-11.4-3.5-18.6-6.7-29.3c-1.5-5-2-7.7-5.7-11.7c-3.5-4-10.2-8.7-11.7-14.2C608.9,219.9,619.6,209.2,625.8,199.5z"/>
<g>
	
		<linearGradient id="SVGID_13_" gradientUnits="userSpaceOnUse" x1="752.8268" y1="557.5713" x2="772.582" y2="557.5713" gradientTransform="matrix(-2.4835 0 0 -2.4835 2523.1733 1543.7864)">
		<stop  offset="0" style="stop-color:#F5E5DA"/>
		<stop  offset="1" style="stop-color:#E2B0A8;stop-opacity:0.9697"/>
	</linearGradient>
	<path fill="url(#SVGID_13_)" d="M607.5,154.6c2.5-2,3-6,2.2-9.2s-2.2-6.2-2.7-9.4s0.5-7.2,3.2-8.7c0,0,19.9-3.7,24.3,10.2
		c2,6.2,6.7,10.7,6.7,10.7c-0.2-7.9,6.7-5.7,8.4-4.2c1.7,1.7,2,4.5,0.7,6.7c-1.2,2-3.5,3.7-5.7,3.5l8.7,29.8
		c-4.7,2.7-9.4,5-14.2,7.5c-1-1-1.7-2.5-2.2-4c-2-6.5-6.5-12.4-8.4-11.9c-4,1-7.9,5-11.7,3.2c-3-1.2-3.7-5.2-4-8.4
		c-0.2-3.2-0.7-7.2-3.5-8.7c-2-1-5-1.2-5-3.5C604.5,156.3,606.2,155.6,607.5,154.6z"/>
</g>
<g>
	<polygon fill="#E2B0A8" points="592.6,321 581.6,334.9 595.5,343.1 601.2,334.4 600,325.7 	"/>
	<g>
		<g>
			<path fill="#E2B0A8" d="M585.1,335.1c-3.7,2.5-6,6.2-7.2,10.4c-0.5,1.7-3.2,0.7-2.7-1c1.2-4.7,4-8.9,7.9-11.7
				C584.9,331.9,586.6,334.1,585.1,335.1L585.1,335.1z"/>
		</g>
	</g>
	<g>
		<g>
			<path fill="#E2B0A8" d="M589.1,338.1c-4.5,3.2-7.5,7.5-8.7,12.7c-0.5,1.7-3.2,0.7-2.7-1c1.2-5.7,4.7-10.7,9.4-13.9
				C588.8,334.6,590.6,336.9,589.1,338.1L589.1,338.1z"/>
		</g>
	</g>
	<g>
		<g>
			<path fill="#E2B0A8" d="M594.3,338.9c-4.5,3.2-7.5,7.5-8.7,12.7c-0.5,1.7-3.2,0.7-2.7-1c1.2-5.7,4.7-10.7,9.4-13.9
				C594,335.6,595.8,337.9,594.3,338.9L594.3,338.9z"/>
		</g>
	</g>
	<g>
		<g>
			<path fill="#E2B0A8" d="M599.8,336.9c-3.7,3.7-5.5,8.7-5.7,13.9c0,1.7-3,1.5-3-0.2c0.2-6,2.5-11.4,6.7-15.9
				C599,333.4,601,335.6,599.8,336.9L599.8,336.9z"/>
		</g>
	</g>
</g>
<linearGradient id="SVGID_14_" gradientUnits="userSpaceOnUse" x1="735.9625" y1="566.5229" x2="780.256" y2="566.5229" gradientTransform="matrix(-2.2999 0.937 -0.937 -2.2999 2902.9573 856.1209)">
	<stop  offset="0" style="stop-color:#F5E5DA"/>
	<stop  offset="1" style="stop-color:#E2B0A8;stop-opacity:0.9697"/>
</linearGradient>
<path fill="url(#SVGID_14_)" d="M592.6,321l58.6-34.5l-10.7-66.8c-1.7-9.4,3.2-20.4,12.9-20.4l0,0c8.4,0,13.4,8.7,13.9,16.9
	l7.9,82.2c0.5,3.2-75,28.6-75,28.6L592.6,321z"/>
<polygon fill="#001C48" points="551.1,382.8 567.7,368.4 664.6,369.9 594,393 597.3,404.7 595.3,430.3 557.5,398.2 "/>
<polygon fill="#001C48" points="593.3,486.1 557.5,398.2 596.5,413.6 605,483.2 "/>
<path fill="#001C48" d="M603.7,481.4l-9.4,2.5c-0.2,0-0.7,0.2-1,0.5l-11.9,10.7c-0.2,0.2-0.5,0.2-0.7,0.5l-16.6,6.2
	c-0.7,0.2-1.2,0.7-1.2,1.5l0,0c-0.5,1.7,1,3.2,2.7,3l45.2-10.4c1.5-0.2,2.2-2,1.5-3.2l-5.7-9.7C605.7,481.6,604.7,481.2,603.7,481.4
	z"/>
<path fill="#112664" d="M675.3,322.7c10.7,0.7,21.6-8.7,29.1-7c4.2,1,6.5,9.2,6.5,12.4c-0.2,8.4-1,19.6-6,26.3
	c-13.7,18.1-124.7,32-124.7,32l23.3,27.6l25.6,73.8l-7.7,7l-72-122.4C549.3,372.4,646.4,320.7,675.3,322.7z"/>
<path fill="#001C48" d="M614.2,507.7l4.5-12.4c0.2-1,1-2,1.7-2.5l4.2-4c2-2,5-2.2,7.5-1l0,0c3.7,2,4.7,7,1.7,10.2l-22.9,24.7
	c-0.7,0.8-2,0.4-2.2-0.6l0,0c-0.2-1.5-0.2-3,0.5-4.2l4.7-9.4C614.2,508.2,614.2,508,614.2,507.7z"/>
</svg>
