<?xml version="1.0" encoding="utf-8"?>
<!-- Generator: Adobe Illustrator 18.0.0, SVG Export Plug-In . SVG Version: 6.00 Build 0)  -->
<!DOCTYPE svg PUBLIC "-//W3C//DTD SVG 1.1//EN" "http://www.w3.org/Graphics/SVG/1.1/DTD/svg11.dtd">
<svg version="1.1" id="Layer_1" xmlns="http://www.w3.org/2000/svg" xmlns:xlink="http://www.w3.org/1999/xlink" x="0px" y="0px"
	 viewBox="174.2 6.9 493.4 581.5" enable-background="new 174.2 6.9 493.4 581.5" xml:space="preserve">
<path fill="#4956BD" d="M190.1,38.8h432.6c8.7,0,15.9,7.1,15.9,15.9v517.9c0,8.7-7.1,15.9-15.9,15.9H190.1
	c-8.7,0-15.9-7.1-15.9-15.9V54.6C174.2,45.9,181.4,38.8,190.1,38.8z"/>
<path fill="#F2F2F2" d="M219.2,6.9h432.6c8.7,0,15.9,7.1,15.9,15.9v517.9c0,8.7-7.1,15.9-15.9,15.9H219.2c-8.7,0-15.9-7.1-15.9-15.9
	V22.8C203.3,14,210.5,6.9,219.2,6.9z"/>
<g>
	<path fill="#F2F2F2" d="M310.2,348.2h10.2v-2.9h-10.2c-1.6,0-2.9,1.3-2.9,2.9v10.2h2.9V348.2z"/>
	<path fill="#F2F2F2" d="M333.4,345.3h-10.2v2.9h10.2v10.2h2.9v-10.2C336.3,346.6,335,345.3,333.4,345.3z"/>
	<path fill="#F2F2F2" d="M333.4,371.6h-10.2v2.9h10.2c1.6,0,2.9-1.3,2.9-2.9v-10.2h-2.9V371.6z"/>
	<path fill="#F2F2F2" d="M310.2,361.4h-2.9v10.2c0,1.6,1.3,2.9,2.9,2.9h10.2v-2.9h-10.2V361.4z"/>
</g>
<g>
	<path fill="#F2F2F2" d="M310.2,395.1h10.2v-2.9h-10.2c-1.6,0-2.9,1.3-2.9,2.9v10.2h2.9V395.1z"/>
	<path fill="#F2F2F2" d="M333.4,392.2h-10.2v2.9h10.2v10.2h2.9v-10.2C336.3,393.5,335,392.2,333.4,392.2z"/>
	<path fill="#F2F2F2" d="M333.4,418.5h-10.2v2.9h10.2c1.6,0,2.9-1.3,2.9-2.9v-10.2h-2.9V418.5z"/>
	<path fill="#F2F2F2" d="M310.2,408.4h-2.9v10.2c0,1.6,1.3,2.9,2.9,2.9h10.2v-2.9h-10.2V408.4z"/>
</g>
<g>
	<g>
		<g>
			<path fill="#4956BD" d="M310.1,207.3h10.2v-2.9h-10.2c-1.6,0-2.9,1.3-2.9,2.9v10.2h2.9V207.3z"/>
			<path fill="#4956BD" d="M333.2,204.4h-10.2v2.9h10.2v10.2h2.9v-10.2C336.2,205.7,334.8,204.4,333.2,204.4z"/>
			<path fill="#4956BD" d="M333.2,230.7h-10.2v2.9h10.2c1.6,0,2.9-1.3,2.9-2.9v-10.2h-2.9V230.7z"/>
			<path fill="#4956BD" d="M310.1,220.5h-2.9v10.2c0,1.6,1.3,2.9,2.9,2.9h10.2v-2.9h-10.2V220.5z"/>
		</g>
		<g>
			<polygon fill="#4956BD" points="312.9,215.8 316.7,211.9 324.6,220 340.8,203.7 344.4,207.4 324.5,227.4 			"/>
		</g>
	</g>
</g>
<g>
	<g>
		<g>
			<path fill="#4956BD" d="M310.1,254.3h10.2v-2.9h-10.2c-1.6,0-2.9,1.3-2.9,2.9v10.2h2.9V254.3z"/>
			<path fill="#4956BD" d="M333.2,251.3h-10.2v2.9h10.2v10.2h2.9v-10.2C336.2,252.7,334.8,251.3,333.2,251.3z"/>
			<path fill="#4956BD" d="M333.2,277.7h-10.2v2.9h10.2c1.6,0,2.9-1.3,2.9-2.9v-10.2h-2.9V277.7z"/>
			<path fill="#4956BD" d="M310.1,267.5h-2.9v10.2c0,1.6,1.3,2.9,2.9,2.9h10.2v-2.9h-10.2V267.5z"/>
		</g>
		<g>
			<polygon fill="#4956BD" points="312.9,262.7 316.7,258.9 324.6,267 340.8,250.7 344.4,254.4 324.5,274.4 			"/>
		</g>
	</g>
</g>
<g>
	<g>
		<g>
			<path fill="#4956BD" d="M310.1,301.2h10.2v-2.9h-10.2c-1.6,0-2.9,1.3-2.9,2.9v10.2h2.9V301.2z"/>
			<path fill="#4956BD" d="M333.2,298.3h-10.2v2.9h10.2v10.2h2.9v-10.2C336.2,299.6,334.8,298.3,333.2,298.3z"/>
			<path fill="#4956BD" d="M333.2,324.6h-10.2v2.9h10.2c1.6,0,2.9-1.3,2.9-2.9v-10.2h-2.9V324.6z"/>
			<path fill="#4956BD" d="M310.1,314.4h-2.9v10.2c0,1.6,1.3,2.9,2.9,2.9h10.2v-2.9h-10.2V314.4z"/>
		</g>
		<g>
			<polygon fill="#4956BD" points="312.9,309.7 316.7,305.8 324.6,313.9 340.8,297.6 344.4,301.3 324.5,321.3 			"/>
		</g>
	</g>
</g>
<g>
	<path fill="#CCCCCC" d="M561.2,234.8H355.3c-1.5,0-2.6-1.2-2.6-2.6v-7.7c0-1.5,1.2-2.6,2.6-2.6h205.8c1.5,0,2.6,1.2,2.6,2.6v7.7
		C563.8,233.6,562.6,234.8,561.2,234.8z"/>
	<path fill="#CCCCCC" d="M561.2,217.3H355.3c-1.5,0-2.6-1.2-2.6-2.6V207c0-1.5,1.2-2.6,2.6-2.6h205.8c1.5,0,2.6,1.2,2.6,2.6v7.7
		C563.8,216.2,562.6,217.3,561.2,217.3z"/>
	<path fill="#CCCCCC" d="M561.2,281.8H355.3c-1.5,0-2.6-1.2-2.6-2.6v-7.7c0-1.5,1.2-2.6,2.6-2.6h205.8c1.5,0,2.6,1.2,2.6,2.6v7.7
		C563.8,280.6,562.6,281.8,561.2,281.8z"/>
	<path fill="#CCCCCC" d="M561.2,264.3H355.3c-1.5,0-2.6-1.2-2.6-2.6V254c0-1.5,1.2-2.6,2.6-2.6h205.8c1.5,0,2.6,1.2,2.6,2.6v7.7
		C563.8,263.1,562.6,264.3,561.2,264.3z"/>
	<path fill="#CCCCCC" d="M561.2,328.7H355.3c-1.5,0-2.6-1.2-2.6-2.6v-7.7c0-1.5,1.2-2.6,2.6-2.6h205.8c1.5,0,2.6,1.2,2.6,2.6v7.7
		C563.8,327.5,562.6,328.7,561.2,328.7z"/>
	<path fill="#CCCCCC" d="M561.2,311.3H355.3c-1.5,0-2.6-1.2-2.6-2.6v-7.7c0-1.5,1.2-2.6,2.6-2.6h205.8c1.5,0,2.6,1.2,2.6,2.6v7.7
		C563.8,310.1,562.6,311.3,561.2,311.3z"/>
	<path fill="#CCCCCC" d="M561.2,375.7H355.3c-1.5,0-2.6-1.2-2.6-2.6v-7.7c0-1.5,1.2-2.6,2.6-2.6h205.8c1.5,0,2.6,1.2,2.6,2.6v7.7
		C563.8,374.5,562.6,375.7,561.2,375.7z"/>
	<path fill="#CCCCCC" d="M561.2,358.2H355.3c-1.5,0-2.6-1.2-2.6-2.6v-7.7c0-1.5,1.2-2.6,2.6-2.6h205.8c1.5,0,2.6,1.2,2.6,2.6v7.7
		C563.8,357,562.6,358.2,561.2,358.2z"/>
	<path fill="#CCCCCC" d="M561.2,422.6H355.3c-1.5,0-2.6-1.2-2.6-2.6v-7.7c0-1.5,1.2-2.6,2.6-2.6h205.8c1.5,0,2.6,1.2,2.6,2.6v7.7
		C563.8,421.5,562.6,422.6,561.2,422.6z"/>
	<path fill="#CCCCCC" d="M561.2,405.2H355.3c-1.5,0-2.6-1.2-2.6-2.6v-7.7c0-1.5,1.2-2.6,2.6-2.6h205.8c1.5,0,2.6,1.2,2.6,2.6v7.7
		C563.8,404,562.6,405.2,561.2,405.2z"/>
</g>
<path fill="#BF2C5D" d="M559.6,137.4h-56.5c-2.4,0-4.2-1.9-4.2-4.2V91.3c0-2.4,1.9-4.2,4.2-4.2h56.5c2.4,0,4.2,1.9,4.2,4.2v41.9
	C563.8,135.5,561.9,137.4,559.6,137.4z"/>
<path fill="#002653" d="M547.3,82.2c1.8-0.6,1.3-6-3.2-8.6c-3.3-1.9-7.3-2.4-11.2-2.2c-3.8,0.2-7.7,1.6-10.3,4.2
	c-3.9,3.9-4.9,10.2-3.7,15.6c0.4,1.7,0.9,3.8-0.4,5.1c-0.6,0.6-1.5,0.9-2.3,1.3c-0.8,0.4-1.6,1-1.7,1.8c-0.2,1.6,2,2.7,2,4.4
	c0,1.2-1.2,2-2.1,2.7c-1,0.7-1.9,1.9-1.5,3c0.4,0.8,1.5,1.1,2.4,1.4c0.9,0.3,1.9,1,1.7,1.9c-0.2,0.8-1.2,1.2-1.6,1.9
	c-0.4,0.9,0.6,1.9,1.6,1.9c0.6,0,1.2-0.1,1.7-0.4c0.4-0.2,0.6-0.4,1-0.5c0.5-0.3,1-0.5,1.6-0.8c1.3-0.6,2.7-1.4,3.8-2
	c0.4,0.5,0.7,0.8,1.1,1.2c1.7,1.6,3.7,2.9,5.9,3.7c0.3,0.1,0.6,0.2,0.9,0.3c1.1,0.4,2.3,0.5,3.5,0.4c0.4-0.1,0.7-0.2,1.1-0.4
	c0.7-0.4,1.3-0.8,1.6-1.6c0.5-1.1,0.3-2.5-0.7-3.1c0.4,0,0.7-0.1,1-0.2c1.3-0.4,2.3-1.4,2.7-2.6c0.5-1.6,0.2-3.4-1-4.6
	c2.5,0.5,5-0.6,6.7-2.5c1.7-1.8,2.7-4.2,3-6.7C552.2,91.9,550.6,86.3,547.3,82.2z"/>
<linearGradient id="SVGID_1_" gradientUnits="userSpaceOnUse" x1="211.8902" y1="583.572" x2="235.5056" y2="583.572" gradientTransform="matrix(2.4835 0 0 -2.4835 -8.488377e-006 1543.7864)">
	<stop  offset="0" style="stop-color:#F1DBD9"/>
	<stop  offset="1" style="stop-color:#E4B6B3"/>
</linearGradient>
<path fill="url(#SVGID_1_)" d="M543.7,92.9c-0.9-0.7-1.1-2.2-0.8-3.4c0.3-1.2,0.8-2.3,1-3.5s-0.2-2.7-1.2-3.2c0,0-7.3-1.4-9,3.7
	c-0.7,2.3-2.5,3.9-2.5,3.9c0.1-2.9-2.5-2.1-3.1-1.6c-0.6,0.6-0.7,1.6-0.3,2.5c0.5,0.7,1.3,1.4,2.1,1.3l-2.7,9l-0.3,1.1l-0.8,2.2
	c1.7,1,4,0.5,5.8,1.4c0.2-0.2,0.4-0.5,0.5-0.8c0.1-0.2,0.2-0.5,0.3-0.7c0.2-0.6,0.5-1.2,0.7-1.7c0.8-1.6,1.9-2.7,2.5-2.7
	c1.5,0.4,2.9,1.8,4.3,1.2c1.1-0.5,1.4-1.9,1.5-3.1c0.1-1.2,0.3-2.7,1.3-3.2c0.7-0.4,1.8-0.5,1.8-1.3
	C544.9,93.5,544.2,93.2,543.7,92.9z"/>
<path fill="#112664" d="M549.4,137.4h-38.3v-20.1c0-7,5.7-12.7,12.7-12.7h12.9c7,0,12.7,5.7,12.7,12.7V137.4z"/>
</svg>
