<?xml version="1.0" encoding="utf-8"?>
<!-- Generator: Adobe Illustrator 18.0.0, SVG Export Plug-In . SVG Version: 6.00 Build 0)  -->
<!DOCTYPE svg PUBLIC "-//W3C//DTD SVG 1.1//EN" "http://www.w3.org/Graphics/SVG/1.1/DTD/svg11.dtd">
<svg version="1.1"
	 id="Layer_1" xmlns:svg="http://www.w3.org/2000/svg" xmlns:rdf="http://www.w3.org/1999/02/22-rdf-syntax-ns#" xmlns:inkscape="http://www.inkscape.org/namespaces/inkscape" xmlns:dc="http://purl.org/dc/elements/1.1/" xmlns:cc="http://creativecommons.org/ns#" xmlns:sodipodi="http://sodipodi.sourceforge.net/DTD/sodipodi-0.dtd" inkscape:version="0.92.3 (2405546, 2018-03-11)" sodipodi:docname="servicos-img.svg"
	 xmlns="http://www.w3.org/2000/svg" xmlns:xlink="http://www.w3.org/1999/xlink" x="0px" y="0px" viewBox="173.3 6.9 495.3 581.5"
	 enable-background="new 173.3 6.9 495.3 581.5" xml:space="preserve">
<sodipodi:namedview  inkscape:cy="233.60892" inkscape:cx="65.239934" inkscape:zoom="1.0488889" showgrid="false" bordercolor="#666666" id="namedview77" pagecolor="#ffffff" objecttolerance="10" borderopacity="1" guidetolerance="10" gridtolerance="10" inkscape:current-layer="Layer_1" inkscape:window-maximized="1" inkscape:window-y="-8" inkscape:window-x="-8" inkscape:window-height="837" inkscape:window-width="1600" inkscape:pageshadow="2" inkscape:pageopacity="0">
	</sodipodi:namedview>
<path id="path2" inkscape:connector-curvature="0" fill="#4956BD" d="M652.7,38.8H220.1c-8.7,0-15.9,7.1-15.9,15.9v517.9
	c0,8.7,7.1,15.9,15.9,15.9h432.6c8.7,0,15.9-7.1,15.9-15.9V54.6C668.6,45.9,661.4,38.8,652.7,38.8z"/>
<path id="path4" inkscape:connector-curvature="0" fill="#FFFFFF" d="M621.8,6.9H189.2c-8.7,0-15.9,7.1-15.9,15.9v517.9
	c0,8.7,7.1,15.9,15.9,15.9h432.6c8.7,0,15.9-7.1,15.9-15.9V22.8C637.6,14,630.5,6.9,621.8,6.9z"/>
<path id="path2-3" inkscape:connector-curvature="0" fill="#BF2C5D" d="M289.8,142.1h-80.2c-3.4,0-6-2.7-6-6V76.7c0-3.4,2.7-6,6-6
	h80.2c3.4,0,6,2.7,6,6v59.5C295.8,139.4,293.1,142.1,289.8,142.1z"/>
<path id="path4-5" inkscape:connector-curvature="0" fill="#5EA4B0" d="M393.7,142.1h-80.2c-3.4,0-6-2.7-6-6V76.7c0-3.4,2.7-6,6-6
	h80.2c3.4,0,6,2.7,6,6v59.5C399.6,139.4,396.9,142.1,393.7,142.1z"/>
<path id="path6-0" inkscape:connector-curvature="0" fill="#002653" d="M376.1,63.7c2.6-0.9,1.8-8.6-4.5-12.2
	c-4.7-2.7-10.4-3.4-15.8-3.1c-5.5,0.3-10.9,2.2-14.7,6c-5.6,5.6-7,14.5-5.2,22.2c0.5,2.5,1.3,5.5-0.5,7.3c-0.9,0.9-2.1,1.3-3.2,1.8
	c-1.2,0.5-2.2,1.4-2.5,2.6c-0.3,2.3,2.9,3.9,2.9,6.2c0,1.7-1.7,2.9-3,3.9c-1.4,1-2.7,2.7-2.1,4.3c0.5,1.2,2.1,1.6,3.4,1.9
	s2.7,1.4,2.5,2.7c-0.3,1.2-1.7,1.7-2.2,2.7c-0.5,1.3,0.9,2.7,2.3,2.7c0.9,0,1.7-0.1,2.5-0.5c0.5-0.3,0.9-0.5,1.4-0.8
	c0.6-0.4,1.4-0.8,2.2-1.2c1.8-0.9,3.8-1.9,5.5-2.9c0.5,0.6,1,1.2,1.6,1.7c2.5,2.3,5.3,4.2,8.4,5.3c0.4,0.1,0.9,0.3,1.3,0.4
	c1.6,0.5,3.2,0.8,4.9,0.5c0.5-0.1,1-0.3,1.6-0.5c1-0.5,1.8-1.2,2.3-2.2c0.6-1.6,0.4-3.5-1-4.4c0.5,0,1-0.1,1.4-0.3
	c1.8-0.5,3.2-1.9,3.9-3.6c0.8-2.2,0.3-4.8-1.4-6.5c3.5,0.6,7.1-0.9,9.5-3.5c2.5-2.6,3.8-6,4.3-9.5C383.2,77.6,381,69.5,376.1,63.7
	L376.1,63.7z"/>
<linearGradient id="path13_1_" gradientUnits="userSpaceOnUse" x1="123.4399" y1="546.8842" x2="186.3991" y2="546.8842" gradientTransform="matrix(1.3228 0 0 -1.3228 182.9664 804.6536)">
	<stop  offset="0" style="stop-color:#F1DBD9"/>
	<stop  offset="1" style="stop-color:#E4B6B3"/>
</linearGradient>
<path id="path13" inkscape:connector-curvature="0" fill="url(#path13_1_)" d="M371.1,78.9c-1.3-1-1.6-3.1-1.2-4.8s1.2-3.2,1.4-4.9
	c0.3-1.7-0.3-3.8-1.7-4.5c0,0-10.4-1.9-12.7,5.3c-1,3.2-3.5,5.6-3.5,5.6c0.1-4.2-3.5-3-4.4-2.2c-0.9,0.9-1,2.3-0.4,3.5
	c0.6,1,1.8,1.9,3,1.8l-3.8,12.9l-0.4,1.6l-1.2,3.1c2.5,1.4,5.7,0.6,8.2,1.9c0.3-0.3,0.5-0.6,0.8-1.2c0.1-0.3,0.3-0.6,0.4-1
	c0.3-0.9,0.6-1.7,1-2.5c1.2-2.3,2.7-3.9,3.5-3.8c2.1,0.5,4.2,2.6,6.1,1.7c1.6-0.6,1.9-2.7,2.1-4.4s0.4-3.8,1.8-4.5
	c1-0.5,2.6-0.6,2.6-1.8C372.8,79.8,371.7,79.4,371.1,78.9L371.1,78.9z"/>
<path id="path15" inkscape:connector-curvature="0" fill="#112664" d="M379.1,142.1h-54.4v-28.6c0-10,8-18,18-18h18.3
	c10,0,18,8,18,18V142.1z"/>
<g id="g28" transform="translate(12.600842,12.995243)">
	<path id="path17" inkscape:connector-curvature="0" fill="#002653" d="M234.6,63.8l5.5-6.6c-1.2,0.1-2.2-0.6-2.7-1.6
		c-0.5-1-0.4-2.3,0.4-3.1c0.8-0.8,4-1.8,4,1.9c0,0,2.2-2.1,3.1-5.1c2.1-6.6,11.6-4.9,11.6-4.9c1.4,0.8,1.8,2.5,1.7,4
		c1-0.4,2.2-0.5,3.2-0.9c1.7-0.6,3-1.9,3.8-3.6c0.9-2.1,1-4.5,0.1-6.8c-1.7-3.8-6-6-10.1-5.7c0.6,0.8,0.1,1.9-0.6,2.6
		c-0.8,0.5-1.8,0.6-2.9,0.6c-3,0-5.8-0.8-8.7-0.8c-3-0.1-6.1,0.6-8,2.9c-1.8,2.1-1.8,5.6,0.3,7.3c0.1,0.1,0.4,0.3,0.5,0.4
		C236.3,50.7,236.1,57.3,234.6,63.8z"/>
	
		<linearGradient id="path24_1_" gradientUnits="userSpaceOnUse" x1="30.7907" y1="539.1603" x2="91.4837" y2="539.1603" gradientTransform="matrix(1.3228 0 0 -1.3228 187.0345 774.4677)">
		<stop  offset="0" style="stop-color:#F1DBD9"/>
		<stop  offset="1" style="stop-color:#E4B6B3"/>
	</linearGradient>
	<path id="path24" inkscape:connector-curvature="0" fill="url(#path24_1_)" d="M258,57.2c-1.2-1-1.4-2.9-1.2-4.3
		c0.3-1.6,1-3,1.2-4.5l0,0c0.1-1.6-0.3-3.4-1.7-4c0,0-9.5-1.6-11.6,4.9c-0.9,3-3.1,5.1-3.1,5.1c0-3.8-3.2-2.7-4-1.9
		c-0.8,0.8-0.9,2.2-0.4,3.1c0.5,1,1.7,1.7,2.7,1.6l-5.5,6.6l-2.2,2.6l-4.5,5.6c0.1,4.8,5.8,6.1,9.1,6.5c0.8-1.3,3.5-6.4,5.2-8.6
		c0.4-0.5,0.6-0.8,0.9-1c1.4-1.2,3.4-1.9,5.2-1.4c1.9,0.5,3.8,2.3,5.6,1.4c1.4-0.6,1.7-2.5,1.8-4c0.1-1.6,0.3-3.4,1.7-4.2
		c0.9-0.5,2.3-0.6,2.3-1.7C259.4,58.1,258.5,57.7,258,57.2L258,57.2z"/>
	<path id="path26-1" inkscape:connector-curvature="0" fill="#112664" d="M262.7,129.1h-54.3V88.2c0-9.3,7.7-17,17-17h20.4
		c9.3,0,17,7.7,17,17v40.9H262.7z"/>
</g>
<path id="path30-5" inkscape:connector-curvature="0" fill="#5EA4B0" d="M497.5,142.1h-80.2c-3.4,0-6-2.7-6-6V76.7c0-3.4,2.7-6,6-6
	h80.2c3.4,0,6,2.7,6,6v59.5C503.5,139.4,500.8,142.1,497.5,142.1z"/>
<path id="path32-1" inkscape:connector-curvature="0" fill="#002653" d="M452.7,91.8c0.5,0.1,1.2,0.3,1.7,0.4c0.3,0,0.5,0.1,0.8,0.1
	l-1-0.6C453.6,91.7,453.3,91.7,452.7,91.8z"/>
<path id="path34-1" inkscape:connector-curvature="0" fill="#002653" d="M486.2,63.9c-0.5-2.5-2.3-4.7-4.8-5.2
	c0-0.8-0.3-1.6-0.5-2.3c-0.5-1.2-1.2-2.1-2.1-3c-1.4-1.4-3.2-2.3-5.2-2.9c-5.6-1.8-12.1-1.2-16.9,2.2c-1.4,1-2.6,2.2-3.5,3.6
	c-2.5,3.4-3.5,7.8-2.5,11.8c-2.5,0.6-4.4,2.7-5.2,5.2c-0.6,2.5,0,5.2,1.7,7.1c-1.9,0.6-3.1,3-2.7,5.1c0.4,2.1,1.9,3.6,3.9,4.7
	c0.4,0.3,0.9,0.4,1.4,0.6c0.9,0.4,1.9,0.6,2.9,0.8c0.5,0.1,1.2,0.3,1.7,0.4c0.3,0,0.5,0.1,0.8,0.1c1.3,0.3,2.6,0.4,3.8,0
	c1.8-0.5,3.2-1.9,5.1-2.6c2.9-1,6.1,0.4,9.2,0.1c0.6,0,1.3-0.1,1.9-0.4c2.1-0.6,4-2.2,5.1-4.2c1.4-2.6,1.4-5.8,0-8.4
	c1.7-1.8,3.4-3.6,4.7-5.8C486.1,69,486.7,66.4,486.2,63.9L486.2,63.9z"/>
<linearGradient id="path41_1_" gradientUnits="userSpaceOnUse" x1="203.5803" y1="546.3029" x2="269.9825" y2="546.3029" gradientTransform="matrix(1.3228 0 0 -1.3228 182.9664 804.6536)">
	<stop  offset="0" style="stop-color:#F1DBD9"/>
	<stop  offset="1" style="stop-color:#E4B6B3"/>
</linearGradient>
<path id="path41" inkscape:connector-curvature="0" fill="url(#path41_1_)" d="M478.6,79.5c-1.4-1.2-1.6-3.2-1.2-5.1
	c0.4-1.8,1.2-3.5,1.4-5.2c0.3-1.8-0.3-3.9-1.8-4.8c0,0-10.9-2.1-13.4,5.6c-1.2,3.5-3.8,5.8-3.8,5.8c0.1-4.3-3.6-3.2-4.5-2.2
	c-0.9,0.9-1,2.5-0.5,3.6c0.6,1.2,1.9,1.9,3.2,1.8l-3.9,13.6l-0.5,1.7l-1.2,3.2c2.6,1.6,6.1,0.6,8.7,2.1c0.3-0.4,0.5-0.8,0.8-1.2
	c0.1-0.3,0.3-0.6,0.4-1c0.3-0.9,0.6-1.8,1-2.6c1.2-2.5,2.9-4.2,3.6-3.9c2.2,0.6,4.4,2.7,6.5,1.8c1.7-0.8,2.1-2.9,2.1-4.7
	c0.1-1.8,0.4-3.9,1.9-4.8c1-0.5,2.7-0.8,2.7-1.9C480.3,80.6,479.2,80,478.6,79.5L478.6,79.5z"/>
<path id="path43" inkscape:connector-curvature="0" fill="#112664" d="M485.6,142.1h-57.2v-29.3c0-10.4,8.4-18.8,18.8-18.8h19.6
	c10.4,0,18.8,8.4,18.8,18.8V142.1z"/>
<path id="path45" inkscape:connector-curvature="0" fill="#BF2C5D" d="M497.5,245.3h-80.2c-3.4,0-6-2.7-6-6v-59.5c0-3.4,2.7-6,6-6
	h80.2c3.4,0,6,2.7,6,6v59.5C503.5,242.6,500.8,245.3,497.5,245.3z"/>
<path id="path47" inkscape:connector-curvature="0" fill="#002653" d="M452.7,195c0.5,0.1,1.2,0.3,1.7,0.4c0.3,0,0.5,0.1,0.8,0.1
	l-1-0.6C453.6,194.9,453.3,194.9,452.7,195L452.7,195z"/>
<path id="path49" inkscape:connector-curvature="0" fill="#002653" d="M486.2,167.1c-0.5-2.5-2.3-4.7-4.8-5.2c0-0.8-0.3-1.6-0.5-2.3
	c-0.5-1.2-1.2-2.1-2.1-3c-1.4-1.4-3.2-2.3-5.2-2.9c-5.6-1.8-12.1-1.2-16.9,2.2c-1.4,1-2.6,2.2-3.5,3.6c-2.5,3.4-3.5,7.8-2.5,11.8
	c-2.5,0.6-4.4,2.7-5.2,5.2c-0.6,2.5,0,5.2,1.7,7.1c-1.9,0.6-3.1,3-2.7,5.1c0.4,2.1,1.9,3.6,3.9,4.7c0.4,0.3,0.9,0.4,1.4,0.6
	c0.9,0.4,1.9,0.6,2.9,0.8c0.5,0.1,1.2,0.3,1.7,0.4c0.3,0,0.5,0.1,0.8,0.1c1.3,0.3,2.6,0.4,3.8,0c1.8-0.5,3.2-1.9,5.1-2.6
	c2.9-1,6.1,0.4,9.2,0.1c0.6,0,1.3-0.1,1.9-0.4c2.1-0.6,4-2.2,5.1-4.2c1.4-2.6,1.4-5.8,0-8.4c1.7-1.8,3.4-3.6,4.7-5.8
	C486.1,172.2,486.7,169.6,486.2,167.1L486.2,167.1z"/>
<linearGradient id="path56-5_1_" gradientUnits="userSpaceOnUse" x1="203.5803" y1="468.2896" x2="269.9825" y2="468.2896" gradientTransform="matrix(1.3228 0 0 -1.3228 182.9664 804.6536)">
	<stop  offset="0" style="stop-color:#F1DBD9"/>
	<stop  offset="1" style="stop-color:#E4B6B3"/>
</linearGradient>
<path id="path56-5" inkscape:connector-curvature="0" fill="url(#path56-5_1_)" d="M478.6,182.7c-1.4-1.2-1.6-3.2-1.2-5.1
	s1.2-3.5,1.4-5.2c0.3-1.8-0.3-3.9-1.8-4.8c0,0-10.9-2.1-13.4,5.6c-1.2,3.5-3.8,5.8-3.8,5.8c0.1-4.3-3.6-3.2-4.5-2.2
	c-0.9,0.9-1,2.5-0.5,3.6c0.6,1.2,1.9,1.9,3.2,1.8l-3.9,13.6l-0.5,1.7l-1.2,3.2c2.6,1.6,6.1,0.6,8.7,2.1c0.3-0.4,0.5-0.8,0.8-1.2
	c0.1-0.3,0.3-0.6,0.4-1c0.3-0.9,0.6-1.8,1-2.6c1.2-2.5,2.9-4.2,3.6-3.9c2.2,0.6,4.4,2.7,6.5,1.8c1.7-0.8,2.1-2.9,2.1-4.7
	c0.1-1.8,0.4-3.9,1.9-4.8c1-0.5,2.7-0.8,2.7-1.9C480.3,183.7,479.2,183.2,478.6,182.7L478.6,182.7z"/>
<path id="path58-4" inkscape:connector-curvature="0" fill="#112664" d="M485.6,245.3h-57.2v-29.3c0-10.4,8.4-18.8,18.8-18.8h19.6
	c10.4,0,18.8,8.4,18.8,18.8V245.3z"/>
<path id="path60-2" inkscape:connector-curvature="0" fill="#BF2C5D" d="M289.8,245.9h-80.2c-3.4,0-6-2.7-6-6v-59.5c0-3.4,2.7-6,6-6
	h80.2c3.4,0,6,2.7,6,6V240C295.8,243.2,293.1,245.9,289.8,245.9z"/>
<path id="path62-1" inkscape:connector-curvature="0" fill="#002653" d="M272.3,167.5c2.6-0.9,1.8-8.6-4.5-12.2
	c-4.7-2.7-10.4-3.4-15.8-3.1c-5.5,0.3-10.9,2.2-14.7,6c-5.6,5.6-7,14.5-5.2,22.2c0.5,2.5,1.3,5.5-0.5,7.3c-0.9,0.9-2.1,1.3-3.2,1.8
	c-1.2,0.5-2.2,1.4-2.5,2.6c-0.3,2.3,2.9,3.9,2.9,6.2c0,1.7-1.7,2.9-3,3.9c-1.4,1-2.7,2.7-2.1,4.3c0.5,1.2,2.1,1.6,3.4,1.9
	c1.3,0.4,2.7,1.4,2.5,2.7c-0.3,1.2-1.7,1.7-2.2,2.7c-0.5,1.3,0.9,2.7,2.3,2.7c0.9,0,1.7-0.1,2.5-0.5c0.5-0.3,0.9-0.5,1.4-0.8
	c0.6-0.4,1.4-0.8,2.2-1.2c1.8-0.9,3.8-1.9,5.5-2.9c0.5,0.6,1,1.2,1.6,1.7c2.5,2.3,5.3,4.2,8.4,5.3c0.4,0.1,0.9,0.3,1.3,0.4
	c1.6,0.5,3.2,0.8,4.9,0.5c0.5-0.1,1-0.3,1.6-0.5c1-0.5,1.8-1.2,2.3-2.2c0.6-1.6,0.4-3.5-1-4.4c0.5,0,1-0.1,1.4-0.3
	c1.8-0.5,3.2-1.9,3.9-3.6c0.8-2.2,0.3-4.8-1.4-6.5c3.5,0.6,7.1-0.9,9.5-3.5c2.5-2.6,3.8-6,4.3-9.5
	C279.3,181.4,277.1,173.4,272.3,167.5L272.3,167.5z"/>
<linearGradient id="path69_1_" gradientUnits="userSpaceOnUse" x1="44.936" y1="468.3802" x2="107.8952" y2="468.3802" gradientTransform="matrix(1.3228 0 0 -1.3228 182.9664 804.6536)">
	<stop  offset="0" style="stop-color:#F1DBD9"/>
	<stop  offset="1" style="stop-color:#E4B6B3"/>
</linearGradient>
<path id="path69" inkscape:connector-curvature="0" fill="url(#path69_1_)" d="M267.2,182.7c-1.3-1-1.6-3.1-1.2-4.8
	c0.4-1.7,1.2-3.2,1.4-4.9c0.3-1.7-0.3-3.8-1.7-4.5c0,0-10.4-1.9-12.7,5.3c-1,3.2-3.5,5.6-3.5,5.6c0.1-4.2-3.5-3-4.4-2.2
	c-0.9,0.9-1,2.3-0.4,3.5c0.6,1,1.8,1.9,3,1.8l-3.8,12.9l-0.4,1.6l-1.2,3.1c2.5,1.4,5.7,0.6,8.2,1.9c0.3-0.3,0.5-0.6,0.8-1.2
	c0.1-0.3,0.3-0.6,0.4-1c0.3-0.9,0.6-1.7,1-2.5c1.2-2.3,2.7-3.9,3.5-3.8c2.1,0.5,4.2,2.6,6.1,1.7c1.6-0.6,1.9-2.7,2.1-4.4
	c0.1-1.7,0.4-3.8,1.8-4.5c1-0.5,2.6-0.6,2.6-1.8C268.9,183.6,267.9,183.2,267.2,182.7L267.2,182.7z"/>
<path id="path71" inkscape:connector-curvature="0" fill="#112664" d="M275.3,245.9h-54.4v-28.6c0-10,8-18,18-18h18.3
	c10,0,18,8,18,18V245.9z"/>
<path id="path73" inkscape:connector-curvature="0" fill="#5EA4B0" d="M394.3,245.9h-80.2c-3.4,0-6-2.7-6-6v-59.5c0-3.4,2.7-6,6-6
	h80.2c3.4,0,6,2.7,6,6V240C400.3,243.2,397.6,245.9,394.3,245.9z"/>
<g id="g86" transform="translate(12.600842,12.995243)">
	<path id="path75" inkscape:connector-curvature="0" fill="#002653" d="M339.1,167.6l5.5-6.6c-1.2,0.1-2.2-0.6-2.7-1.6
		c-0.5-1-0.4-2.3,0.4-3.1c0.8-0.8,4-1.8,4,1.9c0,0,2.2-2.1,3.1-5.1c2.1-6.6,11.6-4.9,11.6-4.9c1.4,0.8,1.8,2.5,1.7,4
		c1-0.4,2.2-0.5,3.2-0.9c1.7-0.6,3-1.9,3.8-3.6c0.9-2.1,1-4.5,0.1-6.8c-1.7-3.8-6-6-10.1-5.7c0.6,0.8,0.1,1.9-0.6,2.6
		c-0.8,0.5-1.8,0.6-2.9,0.6c-3,0-5.8-0.8-8.7-0.8c-3-0.1-6.1,0.6-8,2.9c-1.8,2.1-1.8,5.6,0.3,7.3c0.1,0.1,0.4,0.3,0.5,0.4
		C340.8,154.5,340.6,161.1,339.1,167.6L339.1,167.6z"/>
	
		<linearGradient id="path82_1_" gradientUnits="userSpaceOnUse" x1="109.8003" y1="460.7054" x2="170.4932" y2="460.7054" gradientTransform="matrix(1.3228 0 0 -1.3228 187.0345 774.4677)">
		<stop  offset="0" style="stop-color:#F1DBD9"/>
		<stop  offset="1" style="stop-color:#E4B6B3"/>
	</linearGradient>
	<path id="path82" inkscape:connector-curvature="0" fill="url(#path82_1_)" d="M362.5,161c-1.2-1-1.4-2.9-1.2-4.3
		c0.3-1.6,1-3,1.2-4.5l0,0c0.1-1.6-0.3-3.4-1.7-4c0,0-9.5-1.6-11.6,4.9c-0.9,3-3.1,5.1-3.1,5.1c0-3.8-3.2-2.7-4-1.9
		c-0.8,0.8-0.9,2.2-0.4,3.1c0.5,1,1.7,1.7,2.7,1.6l-5.5,6.6l-2.2,2.6l-4.7,5.5c0.1,4.8,5.8,6.1,9.1,6.5c0.8-1.3,3.5-6.4,5.2-8.6
		c0.4-0.5,0.6-0.8,0.9-1c1.4-1.2,3.4-1.9,5.2-1.4c1.9,0.5,3.8,2.3,5.6,1.4c1.4-0.6,1.7-2.5,1.8-4c0.1-1.6,0.3-3.4,1.7-4.2
		c0.9-0.5,2.3-0.6,2.3-1.7C363.9,161.9,363,161.5,362.5,161L362.5,161z"/>
	<path id="path84" inkscape:connector-curvature="0" fill="#112664" d="M367.2,232.9h-54.3V192c0-9.3,7.7-17,17-17h20.4
		c9.3,0,17,7.7,17,17v40.9H367.2z"/>
</g>
<path id="path88" inkscape:connector-curvature="0" fill="#704085" d="M601.4,141.4h-80.2c-3.4,0-6-2.7-6-6V76c0-3.4,2.7-6,6-6h80.2
	c3.4,0,6,2.7,6,6v59.5C607.3,138.7,604.6,141.4,601.4,141.4z"/>
<path id="path90" inkscape:connector-curvature="0" fill="#002653" d="M554,195c0.5,0.1,1.2,0.3,1.7,0.4c0.3,0,0.5,0.1,0.8,0.1
	l-1-0.6C554.9,194.9,554.5,194.9,554,195L554,195z"/>
<path id="path92" inkscape:connector-curvature="0" fill="#002653" d="M590.1,63.3c-0.5-2.5-2.3-4.7-4.8-5.2c0-0.8-0.3-1.6-0.5-2.3
	c-0.5-1.2-1.2-2.1-2.1-3c-1.4-1.4-3.2-2.3-5.2-2.9c-5.6-1.8-12.1-1.2-16.9,2.2c-1.4,1-2.6,2.2-3.5,3.6c-2.5,3.4-3.5,7.8-2.5,11.8
	c-2.5,0.6-4.4,2.7-5.2,5.2c-0.6,2.5,0,5.2,1.7,7.1c-1.9,0.6-3.1,3-2.7,5.1c0.4,2.1,1.9,3.6,3.9,4.7c0.4,0.3,0.9,0.4,1.4,0.6
	c0.9,0.4,1.9,0.6,2.9,0.8c0.5,0.1,1.2,0.3,1.7,0.4c0.3,0,0.5,0.1,0.8,0.1c1.3,0.3,2.6,0.4,3.8,0c1.8-0.5,3.2-1.9,5.1-2.6
	c2.9-1,6.1,0.4,9.2,0.1c0.6,0,1.3-0.1,1.9-0.4c2.1-0.6,4-2.2,5.1-4.2c1.4-2.6,1.4-5.8,0-8.4c1.7-1.8,3.4-3.6,4.7-5.8
	C589.9,68.3,590.6,65.8,590.1,63.3L590.1,63.3z"/>
<linearGradient id="path99_1_" gradientUnits="userSpaceOnUse" x1="282.0841" y1="546.7935" x2="348.4864" y2="546.7935" gradientTransform="matrix(1.3228 0 0 -1.3228 182.9664 804.6536)">
	<stop  offset="0" style="stop-color:#F1DBD9"/>
	<stop  offset="1" style="stop-color:#E4B6B3"/>
</linearGradient>
<path id="path99" inkscape:connector-curvature="0" fill="url(#path99_1_)" d="M582.4,78.9c-1.4-1.2-1.6-3.2-1.2-5.1
	c0.4-1.8,1.2-3.5,1.4-5.2c0.3-1.8-0.3-3.9-1.8-4.8c0,0-10.9-2.1-13.4,5.6c-1.2,3.5-3.8,5.8-3.8,5.8c0.1-4.3-3.6-3.2-4.5-2.2
	c-0.9,0.9-1,2.5-0.5,3.6c0.6,1.2,1.9,1.9,3.2,1.8L558,92.1l-0.5,1.7l-1.2,3.2c2.6,1.6,6.1,0.6,8.7,2.1c0.3-0.4,0.5-0.8,0.8-1.2
	c0.1-0.3,0.3-0.6,0.4-1c0.3-0.9,0.6-1.8,1-2.6c1.2-2.5,2.9-4.2,3.6-3.9c2.2,0.6,4.4,2.7,6.5,1.8c1.7-0.8,2.1-2.9,2.1-4.7
	c0.1-1.8,0.4-3.9,1.9-4.8c1-0.5,2.7-0.8,2.7-1.9C584.1,79.9,583.1,79.4,582.4,78.9L582.4,78.9z"/>
<path id="path101" inkscape:connector-curvature="0" fill="#112664" d="M586.8,245.3h-57.2v-29.3c0-10.4,8.4-18.8,18.8-18.8H568
	c10.4,0,18.8,8.4,18.8,18.8V245.3z"/>
<path id="path103" inkscape:connector-curvature="0" fill="#112664" d="M584.2,142.1h-54.4v-28.6c0-10,8-18,18-18h18.3
	c10,0,18,8,18,18V142.1z"/>
<path id="path105" inkscape:connector-curvature="0" fill="#704085" d="M602,245.9h-80.2c-3.4,0-6-2.7-6-6v-59.5c0-3.4,2.7-6,6-6
	H602c3.4,0,6,2.7,6,6V240C608,243.2,605.3,245.9,602,245.9z"/>
<g id="g118" transform="translate(12.600842,12.995243)">
	<path id="path107" inkscape:connector-curvature="0" fill="#002653" d="M546.8,167.6l5.5-6.6c-1.2,0.1-2.2-0.6-2.7-1.6
		c-0.5-1-0.4-2.3,0.4-3.1c0.8-0.8,4-1.8,4,1.9c0,0,2.2-2.1,3.1-5.1c2.1-6.6,11.6-4.9,11.6-4.9c1.4,0.8,1.8,2.5,1.7,4
		c1-0.4,2.2-0.5,3.2-0.9c1.7-0.6,3-1.9,3.8-3.6c0.9-2.1,1-4.5,0.1-6.8c-1.7-3.8-6-6-10.1-5.7c0.6,0.8,0.1,1.9-0.6,2.6
		c-0.8,0.5-1.8,0.6-2.9,0.6c-3,0-5.8-0.8-8.7-0.8c-3-0.1-6.1,0.6-8,2.9c-1.8,2.1-1.8,5.6,0.3,7.3c0.1,0.1,0.4,0.3,0.5,0.4
		C548.5,154.5,548.3,161.1,546.8,167.6L546.8,167.6z"/>
	
		<linearGradient id="path114_1_" gradientUnits="userSpaceOnUse" x1="266.8081" y1="460.7054" x2="327.501" y2="460.7054" gradientTransform="matrix(1.3228 0 0 -1.3228 187.0345 774.4677)">
		<stop  offset="0" style="stop-color:#F1DBD9"/>
		<stop  offset="1" style="stop-color:#E4B6B3"/>
	</linearGradient>
	<path id="path114" inkscape:connector-curvature="0" fill="url(#path114_1_)" d="M570.2,161c-1.2-1-1.4-2.9-1.2-4.3
		c0.3-1.6,1-3,1.2-4.5l0,0c0.1-1.6-0.3-3.4-1.7-4c0,0-9.5-1.6-11.6,4.9c-0.9,3-3.1,5.1-3.1,5.1c0-3.8-3.2-2.7-4-1.9
		c-0.8,0.8-0.9,2.2-0.4,3.1c0.5,1,1.7,1.7,2.7,1.6l-5.5,6.6l-2.2,2.6l-4.7,5.5c0.1,4.8,5.8,6.1,9.1,6.5c0.8-1.3,3.5-6.4,5.2-8.6
		c0.4-0.5,0.6-0.8,0.9-1c1.4-1.2,3.4-1.9,5.2-1.4c1.9,0.5,3.8,2.3,5.6,1.4c1.4-0.6,1.7-2.5,1.8-4s0.3-3.4,1.7-4.2
		c0.9-0.5,2.3-0.6,2.3-1.7C571.6,161.9,570.7,161.5,570.2,161L570.2,161z"/>
	<path id="path116" inkscape:connector-curvature="0" fill="#112664" d="M574.9,232.9h-54.3V192c0-9.3,7.7-17,17-17H558
		c9.3,0,17,7.7,17,17v40.9H574.9z"/>
</g>
<g>
	<path id="path50" inkscape:connector-curvature="0" fill="#CCCCCC" d="M605.9,277.2h-400c-1.5,0-2.6-1.2-2.6-2.6V264
		c0-1.5,1.2-2.6,2.6-2.6h400c1.5,0,2.6,1.2,2.6,2.6v10.6C608.6,276,607.4,277.2,605.9,277.2z"/>
	<path id="path52" inkscape:connector-curvature="0" fill="#CCCCCC" d="M605.9,308.4h-400c-1.5,0-2.6-1.2-2.6-2.6v-10.6
		c0-1.5,1.2-2.6,2.6-2.6h400c1.5,0,2.6,1.2,2.6,2.6v10.6C608.6,307.3,607.4,308.4,605.9,308.4z"/>
	<path id="path54" inkscape:connector-curvature="0" fill="#CCCCCC" d="M605.9,339.8h-400c-1.5,0-2.6-1.2-2.6-2.6v-10.6
		c0-1.5,1.2-2.6,2.6-2.6h400c1.5,0,2.6,1.2,2.6,2.6v10.6C608.6,338.6,607.4,339.8,605.9,339.8z"/>
	<path id="path56" inkscape:connector-curvature="0" fill="#CCCCCC" d="M605.9,371.1h-400c-1.5,0-2.6-1.2-2.6-2.6v-10.6
		c0-1.5,1.2-2.6,2.6-2.6h400c1.5,0,2.6,1.2,2.6,2.6v10.6C608.6,370,607.4,371.1,605.9,371.1z"/>
</g>
<g>
	<path id="path50-6" inkscape:connector-curvature="0" fill="#CCCCCC" d="M606.7,461.1h-400c-1.5,0-2.6-1.2-2.6-2.6v-10.6
		c0-1.5,1.2-2.6,2.6-2.6h400c1.5,0,2.6,1.2,2.6,2.6v10.6C609.4,460,608.2,461.1,606.7,461.1z"/>
	<path id="path52-7" inkscape:connector-curvature="0" fill="#CCCCCC" d="M606.7,492.4h-400c-1.5,0-2.6-1.2-2.6-2.6v-10.6
		c0-1.5,1.2-2.6,2.6-2.6h400c1.5,0,2.6,1.2,2.6,2.6v10.6C609.4,491.2,608.2,492.4,606.7,492.4z"/>
	<path id="path54-5" inkscape:connector-curvature="0" fill="#CCCCCC" d="M606.7,523.7h-400c-1.5,0-2.6-1.2-2.6-2.6v-10.6
		c0-1.5,1.2-2.6,2.6-2.6h400c1.5,0,2.6,1.2,2.6,2.6v10.6C609.4,522.5,608.2,523.7,606.7,523.7z"/>
</g>
</svg>
