<?xml version="1.0" encoding="utf-8"?>
<!-- Generator: Adobe Illustrator 18.0.0, SVG Export Plug-In . SVG Version: 6.00 Build 0)  -->
<!DOCTYPE svg PUBLIC "-//W3C//DTD SVG 1.1//EN" "http://www.w3.org/Graphics/SVG/1.1/DTD/svg11.dtd">
<svg version="1.1" id="Layer_1" xmlns="http://www.w3.org/2000/svg" xmlns:xlink="http://www.w3.org/1999/xlink" x="0px" y="0px"
	 viewBox="0 0 276 276" enable-background="new 0 0 276 276" xml:space="preserve">
<g>
	<path fill="#4956BB" d="M261,3.1H36.8c-6.6,0-12,5.4-12,12v224c0,6.6,5.4,12,12,12H261c6.6,0,12-5.4,12-12v-224
		C273,8.5,267.6,3.1,261,3.1z"/>
	<path fill="#FFFFFF" d="M239.2,24.9H15c-6.6,0-12,5.4-12,12v224c0,6.6,5.4,12,12,12h224.2c6.6,0,12-5.4,12-12v-224
		C251.2,30.3,245.8,24.9,239.2,24.9z"/>
	<g>
		<g>
			<g>
				<path fill="#4F58B8" d="M92.2,163.9c-3.6-2.3-6.5-5.4-8.6-9.3s-3.2-8.1-3.2-12.5c0-4.5,1.1-8.7,3.3-12.6c2.2-3.8,5.2-6.9,9-9.2
					c3.8-2.3,8-3.4,12.7-3.4c5.3,0,9.8,1.4,13.7,4.1c3.9,2.7,6.8,6.3,8.9,10.7c2.1,4.4,3.1,9.1,3.1,14.2c0,5.6-1.1,11.9-3.3,18.6
					c-2.2,6.8-5.8,13.1-10.8,18.9c-5,5.8-11.5,10-19.3,12.5c-0.7,0.2-1.3,0.3-2,0.3c-1.5,0-2.8-0.4-3.8-1.2c-1-0.8-1.5-2.1-1.5-3.9
					c0-1.2,0.4-2.3,1.2-3.3c0.8-1,1.9-1.6,3.3-2c5.1-1.8,9.9-5,14.3-9.5c4.4-4.5,7.6-9.5,9.5-15.1c-4.3,4-9.3,6-14.9,6
					C99.6,167.3,95.8,166.2,92.2,163.9z"/>
			</g>
		</g>
		<g>
			<g>
				<path fill="#4F58B8" d="M149.1,163.9c-3.6-2.3-6.5-5.4-8.6-9.3c-2.2-3.9-3.2-8.1-3.2-12.5c0-4.5,1.1-8.7,3.3-12.6
					c2.2-3.8,5.2-6.9,9-9.2c3.8-2.3,8-3.4,12.7-3.4c5.3,0,9.8,1.4,13.7,4.1c3.9,2.7,6.8,6.3,8.9,10.7c2.1,4.4,3.1,9.1,3.1,14.2
					c0,5.6-1.1,11.9-3.3,18.6c-2.2,6.8-5.8,13.1-10.8,18.9c-5,5.8-11.5,10-19.3,12.5c-0.7,0.2-1.3,0.3-2,0.3c-1.5,0-2.8-0.4-3.8-1.2
					c-1-0.8-1.5-2.1-1.5-3.9c0-1.2,0.4-2.3,1.2-3.3c0.8-1,1.9-1.6,3.3-2c5.1-1.8,9.9-5,14.3-9.5c4.4-4.5,7.6-9.5,9.5-15.1
					c-4.3,4-9.3,6-14.9,6C156.5,167.3,152.7,166.2,149.1,163.9z"/>
			</g>
		</g>
	</g>
</g>
</svg>
