<?xml version="1.0" encoding="utf-8"?>
<!-- Generator: Adobe Illustrator 18.0.0, SVG Export Plug-In . SVG Version: 6.00 Build 0)  -->
<!DOCTYPE svg PUBLIC "-//W3C//DTD SVG 1.1//EN" "http://www.w3.org/Graphics/SVG/1.1/DTD/svg11.dtd">
<svg version="1.1" id="Layer_1" xmlns="http://www.w3.org/2000/svg" xmlns:xlink="http://www.w3.org/1999/xlink" x="0px" y="0px"
	 viewBox="0 0 170.4 226" enable-background="new 0 0 170.4 226" xml:space="preserve">
<g>
	<path fill="#4956BD" d="M91,4.7c-41.9,0-75.8,33.9-75.8,75.8c0,56.8,75.8,140.8,75.8,140.8s75.8-83.9,75.8-140.8
		C166.8,38.6,132.9,4.7,91,4.7z M91,107.6C76.1,107.6,64,95.5,64,80.5S76.1,53.4,91,53.4s27.1,12.1,27.1,27.1S106,107.6,91,107.6z"
		/>
	<path fill="#FFFFFF" d="M79.4,4.7C37.5,4.7,3.6,38.6,3.6,80.5c0,56.8,75.8,140.8,75.8,140.8s75.8-83.9,75.8-140.8
		C155.2,38.6,121.3,4.7,79.4,4.7z M79.4,107.6c-14.9,0-27.1-12.1-27.1-27.1s12.1-27.1,27.1-27.1s27.1,12.1,27.1,27.1
		S94.3,107.6,79.4,107.6z"/>
	<circle fill="#4956BD" cx="79.4" cy="81.5" r="27.7"/>
</g>
</svg>
