<?xml version="1.0" encoding="utf-8"?>
<!-- Generator: Adobe Illustrator 18.0.0, SVG Export Plug-In . SVG Version: 6.00 Build 0)  -->
<!DOCTYPE svg PUBLIC "-//W3C//DTD SVG 1.1//EN" "http://www.w3.org/Graphics/SVG/1.1/DTD/svg11.dtd">
<svg version="1.1" id="Layer_1" xmlns="http://www.w3.org/2000/svg" xmlns:xlink="http://www.w3.org/1999/xlink" x="0px" y="0px"
	 viewBox="0 0 95.8 102.8" enable-background="new 0 0 95.8 102.8" xml:space="preserve">
<g>
	<circle fill="#4956BD" cx="51.4" cy="43.5" r="40.8"/>
	<path fill="#4956BD" d="M36.2,72.9L10.1,99.1c-1.3,1.3-3.4,1.3-4.7,0l-0.7-0.7c-1.3-1.3-1.3-3.4,0-4.7l26.1-26.1
		c0.8-0.8,2.1-0.8,2.8,0l2.6,2.6C37,70.9,37,72.2,36.2,72.9z"/>
	<path fill="#FFFFFF" d="M41.6,72.2L16,97.8c-1.2,1.2-3.2,1.2-4.4,0l-0.7-0.7c-1.2-1.2-1.2-3.2,0-4.4l25.6-25.6c1.1-1.1,3-1.1,4.1,0
		l1,1C42.7,69.3,42.7,71.1,41.6,72.2z"/>
	<circle fill="#FFFFFF" cx="51.7" cy="43.2" r="37.1"/>
	<g>
		<path fill="#4956BD" d="M60.2,44.8H42.1c-0.8,0-1.5-0.7-1.5-1.5v-0.5c0-0.8,0.7-1.5,1.5-1.5h18.1c0.8,0,1.5,0.7,1.5,1.5v0.5
			C61.7,44.2,61,44.8,60.2,44.8z"/>
		<path fill="#4956BD" d="M49.4,52.2V34.1c0-0.8,0.7-1.5,1.5-1.5h0.5c0.8,0,1.5,0.7,1.5,1.5v18.1c0,0.8-0.7,1.5-1.5,1.5h-0.5
			C50.1,53.7,49.4,53,49.4,52.2z"/>
	</g>
</g>
</svg>
