<?xml version="1.0" encoding="utf-8"?>
<!-- Generator: Adobe Illustrator 18.0.0, SVG Export Plug-In . SVG Version: 6.00 Build 0)  -->
<!DOCTYPE svg PUBLIC "-//W3C//DTD SVG 1.1//EN" "http://www.w3.org/Graphics/SVG/1.1/DTD/svg11.dtd">
<svg version="1.1" id="Layer_1" xmlns="http://www.w3.org/2000/svg" xmlns:xlink="http://www.w3.org/1999/xlink" x="0px" y="0px"
	 viewBox="0 0 95.8 102.8" enable-background="new 0 0 95.8 102.8" xml:space="preserve">
<g>
	<path fill="#4956BD" d="M47.5,41.9C47.7,44.1,50,47,50,47s-3.8,30.7-3.2,33.2c0.7,3.2,5.1,7.5,5.1,7.5s2.8-3.4,4-7.8
		c1.2-4.4-4.5-32.9-4.5-32.9s1.7-3.1,1.9-5.1c0.2-2-1.3-5.1-3-5.1C48.2,36.9,47.4,40.5,47.5,41.9z"/>
	<path fill="#4956BD" d="M41.4,1.2c0,0-8.7,12.8,0.9,24.3c0,0,4.7,5.6,12.5,2c0,0,6.6-3,8.2-11.9c0,0,10.7-0.2,16.1,3
		c0,0,11,5.4,7.8,17.1c0,0-1.3,6.7-10.2,16.3c0,0-0.9-6.6-10.8-15c0,0-14-11.6-30.3,0.9c0,0-11.5,7.6-11.1,26.5V87
		c0,0-0.3,4.9,3.6,5.2c0,0,0.9,4.1-3.9,4.2c0,0-3.8,0.1-4-4.6V78.4c0,0-8.5-1.9-11.1-9.8c0,0-5.8-14.2,14-33.6
		c0,0,6.7-6.5,13.6-10.4c0,0-1.3-1.9-2.1-6C34.7,18.6,32.1,8.5,41.4,1.2z"/>
	<path fill="#4956BD" d="M32.4,91.5c0,0,0.8-1.4,1.2-3.4c0,0,0.1-1.5,0.1-2.5V70.3c0,0-0.2-1.8,1.7-1.6c0,0,0.9-0.1,0.9,1.7V86
		c0,0-0.8,9.7,8.6,11c0,0,11.4,2.3,18.9-1.5c0,0-2.6,7.2-19.5,5.8c0,0-12.2-1.2-12.1-9.4"/>
	<path fill="#4956BD" d="M68.1,92.2c0,0,1.2-1.3,1.2-3.2l0-19c0,0-0.2-1.1,1.1-1.2c0,0,1.3-0.1,1.5,1.3l0,18.4c0,0,0,3.7,3.5,4.2
		c0,0,0.1,4.4-4.4,3.9C70.8,96.6,67.4,96.1,68.1,92.2z"/>
</g>
<path fill="#4956BD" stroke="#FFFFFF" stroke-width="7" stroke-miterlimit="10" d="M438.1,49.7c0-13-5.1-26-15.3-35.7
	c-18.2-17.2-47.1-17.8-66-1.2c-21.5,18.9-22.4,51.7-2.4,71.6c13.9,13.9,34.1,17.7,51.5,11.3c4.1-1.5,5.2-6.8,2.1-9.9l-0.2-0.2
	c-1.7-1.7-4.2-2.2-6.4-1.4c-13.9,4.9-30.3,1.2-40.6-11.2c-11.1-13.3-11.3-32.9-0.6-46.4c13.9-17.5,39.6-18.5,54.9-3.2
	c7.2,7.2,10.6,16.6,10.6,26h-16.2c-4.3,0-6.5,5.2-3.4,8.3l18.9,18.9c1.8,1.8,4.6,1.8,6.4,0L450.2,58c3.1-3.1,0.9-8.3-3.4-8.3H438.1z
	"/>
</svg>
